<svg width="132" height="50" viewBox="0 0 132 50" fill="none" xmlns="http://www.w3.org/2000/svg">
<g clip-path="url(#clip0_4003_99)">
<path d="M9.95659 33.649C9.73856 33.3583 9.44785 33.0676 9.08448 32.8496C8.7211 32.6315 8.28504 32.5588 7.84899 32.5588C6.75885 32.5588 5.88674 32.8496 5.30534 33.5036C4.72393 34.1577 4.36055 35.0298 4.36055 36.0473C4.36055 37.1374 4.65125 37.9369 5.30534 38.5909C5.88674 39.245 6.75885 39.5357 7.84899 39.5357C8.35772 39.5357 8.7211 39.463 9.08448 39.245C9.44785 39.027 9.73856 38.809 9.95659 38.5183L12.7909 41.498C12.1369 42.2247 11.3374 42.6608 10.3926 42.9515C9.44786 43.2422 8.57575 43.3875 7.77631 43.3875C6.68618 43.3875 5.66871 43.2422 4.72393 42.8788C3.77914 42.5154 2.97971 42.0067 2.25295 41.4253C1.5262 40.7712 1.01746 39.9718 0.581409 39.0997C0.145354 38.2276 0 37.2101 0 36.0473C0 34.9572 0.21803 33.9397 0.581409 32.9949C1.01746 32.1228 1.5262 31.3234 2.25295 30.6693C2.97971 30.0152 3.77914 29.5065 4.72393 29.2158C5.66871 28.8524 6.68618 28.707 7.77631 28.707C8.57575 28.707 9.44786 28.8524 10.3926 29.1431C11.3374 29.4338 12.0642 29.9425 12.7909 30.5966L9.95659 33.649Z" fill="#036EB8"/>
<path d="M15.4062 36.1215C15.4062 35.0314 15.6244 34.0139 15.9878 33.0691C16.4238 32.197 16.9325 31.3976 17.6593 30.7435C18.3861 30.0894 19.1854 29.5808 20.1302 29.2901C21.075 28.9267 22.0924 28.7812 23.1826 28.7812C24.2727 28.7812 25.2902 28.9267 26.2349 29.2901C27.1797 29.6535 27.9792 30.1621 28.7059 30.7435C29.4327 31.3976 29.9415 32.197 30.3776 33.0691C30.8135 33.9412 30.959 34.9587 30.959 36.1215C30.959 37.2116 30.7409 38.2291 30.3776 39.174C29.9415 40.0461 29.4327 40.8454 28.7059 41.4995C27.9792 42.1537 27.1797 42.6623 26.2349 42.953C25.2902 43.3164 24.2727 43.4618 23.1826 43.4618C22.0924 43.4618 21.075 43.3164 20.1302 42.953C19.1854 42.5897 18.3861 42.0809 17.6593 41.4995C16.9325 40.8454 16.4238 40.0461 15.9878 39.174C15.6244 38.2291 15.4062 37.2116 15.4062 36.1215ZM19.7668 36.1215C19.7668 37.2116 20.0575 38.0111 20.7116 38.6652C21.293 39.3192 22.1651 39.61 23.2552 39.61C24.3454 39.61 25.2176 39.2466 25.799 38.6652C26.3804 38.0111 26.7437 37.139 26.7437 36.1215C26.7437 35.0314 26.4531 34.2319 25.799 33.5779C25.2176 32.9238 24.3454 32.6331 23.2552 32.6331C22.1651 32.6331 21.293 32.9238 20.7116 33.5779C20.0575 34.2319 19.7668 35.104 19.7668 36.1215Z" fill="#036EB8"/>
<path d="M35.1024 29.1431H39.2449V31.0327H39.3176C39.4629 30.742 39.6083 30.5239 39.899 30.2332C40.117 29.9425 40.4804 29.7245 40.7711 29.5065C41.1345 29.2884 41.4978 29.1431 41.9339 28.9977C42.37 28.8524 42.8787 28.7797 43.3874 28.7797C44.3322 28.7797 45.2043 28.9977 46.0038 29.3611C46.7305 29.7972 47.3119 30.3786 47.748 31.2507C48.2567 30.3786 48.8381 29.7245 49.5649 29.2884C50.2916 28.9251 51.1637 28.707 52.1812 28.707C53.126 28.707 53.9254 28.8524 54.5795 29.2158C55.2336 29.5065 55.7423 29.9425 56.1057 30.5239C56.4691 31.1053 56.7598 31.6867 56.9051 32.4862C57.0505 33.2129 57.1232 34.0124 57.1232 34.8845V43.1695H52.7626V34.9572C52.7626 34.3031 52.6172 33.7217 52.3265 33.2856C52.0358 32.8496 51.5271 32.5588 50.873 32.5588C50.3643 32.5588 49.9282 32.6315 49.6375 32.7769C49.2742 32.9222 49.0561 33.1403 48.8381 33.431C48.6201 33.7217 48.4747 34.085 48.4021 34.4484C48.3294 34.8118 48.2567 35.2479 48.2567 35.6839V43.0968H43.8962V35.7566C43.8962 35.5386 43.8962 35.1752 43.8962 34.8118C43.8962 34.4484 43.8235 34.085 43.6781 33.7943C43.5328 33.5036 43.3874 33.2129 43.0967 32.9222C42.806 32.7042 42.4426 32.5588 41.9339 32.5588C41.3525 32.5588 40.9164 32.6315 40.5531 32.8496C40.1897 33.0676 39.9717 33.2856 39.7536 33.649C39.5356 34.0124 39.4629 34.3757 39.3902 34.8118C39.3176 35.2479 39.3176 35.6839 39.3176 36.12V43.0968H34.957V29.1431H35.1024Z" fill="#036EB8"/>
<path d="M62.2133 29.1431H66.2105V30.96H66.2831C66.4285 30.742 66.6465 30.4513 66.9372 30.1605C67.2279 29.8698 67.5186 29.6518 67.882 29.4338C68.2454 29.2158 68.6815 29.0704 69.1175 28.9251C69.5536 28.7797 70.0623 28.707 70.4983 28.707C71.5158 28.707 72.4606 28.8524 73.3327 29.2158C74.2048 29.5791 74.9316 30.0879 75.513 30.742C76.0944 31.396 76.6031 32.1228 76.8938 33.0676C77.1845 33.9397 77.4025 34.9571 77.4025 35.9746C77.4025 36.9194 77.2572 37.8642 76.9665 38.809C76.6758 39.6811 76.2397 40.4805 75.731 41.2073C75.1496 41.934 74.4955 42.4428 73.6961 42.8788C72.8967 43.3149 72.0245 43.5329 71.0071 43.5329C70.135 43.5329 69.2629 43.3875 68.4634 43.0968C67.664 42.8061 67.0099 42.3701 66.5739 41.6433H66.5012V49.7103H62.1406V29.1431H62.2133ZM66.2105 36.12C66.2105 37.2101 66.5012 38.0095 67.1553 38.6636C67.7367 39.3177 68.6088 39.6084 69.6989 39.6084C70.7891 39.6084 71.6612 39.245 72.2426 38.6636C72.824 38.0095 73.1873 37.1374 73.1873 36.12C73.1873 35.0298 72.8967 34.2304 72.2426 33.5763C71.6612 32.9222 70.7891 32.6315 69.6989 32.6315C68.6088 32.6315 67.7367 32.9222 67.1553 33.5763C66.5012 34.2304 66.2105 35.1025 66.2105 36.12Z" fill="#036EB8"/>
<path d="M90.3369 41.3542C89.8282 42.0809 89.1741 42.6623 88.3747 42.953C87.5753 43.3164 86.7032 43.4618 85.831 43.4618C85.177 43.4618 84.5229 43.3892 83.9415 43.1712C83.3601 42.9531 82.7787 42.7351 82.3426 42.3717C81.9065 42.0083 81.5432 41.5722 81.2525 40.9908C80.9618 40.4821 80.8164 39.828 80.8164 39.1012C80.8164 38.3018 80.9618 37.575 81.2525 37.0663C81.5432 36.4849 81.9792 36.0489 82.488 35.6856C82.9967 35.3222 83.5781 35.0315 84.2322 34.8134C84.8863 34.5954 85.5403 34.45 86.2671 34.3773C86.9938 34.3046 87.6479 34.2319 88.3747 34.2319C89.1015 34.2319 89.7555 34.2319 90.3369 34.2319C90.3369 33.4325 90.0462 32.8512 89.5375 32.4151C88.9561 31.9791 88.3747 31.761 87.5753 31.761C86.8485 31.761 86.1944 31.9063 85.613 32.197C85.0316 32.4877 84.5229 32.9238 84.0141 33.4325L81.6885 31.0343C82.488 30.3075 83.4327 29.726 84.5229 29.3627C85.613 28.9993 86.7032 28.7812 87.866 28.7812C89.1015 28.7812 90.1916 28.9267 90.991 29.2901C91.7905 29.5808 92.4445 30.0894 92.9533 30.6708C93.462 31.2522 93.7527 32.0518 93.9707 32.9239C94.1888 33.796 94.2614 34.8861 94.2614 36.0489V43.1712H90.2643V41.3542H90.3369ZM89.3195 36.9936C88.9561 36.9936 88.5927 36.9936 88.084 37.0663C87.5753 37.0663 87.1392 37.2117 86.7032 37.2844C86.2671 37.4298 85.831 37.6477 85.5403 37.8657C85.2496 38.1564 85.0316 38.5198 85.0316 38.9559C85.0316 39.4646 85.2496 39.828 85.6857 40.1187C86.1217 40.3367 86.5578 40.4822 87.0665 40.4822C87.5026 40.4822 87.866 40.4094 88.302 40.3368C88.6654 40.1913 89.0288 40.046 89.3195 39.828C89.6102 39.6099 89.9009 39.3192 90.0462 39.0285C90.2643 38.6652 90.3369 38.3018 90.3369 37.8657V36.9209H89.3195V36.9936Z" fill="#036EB8"/>
<path d="M98.6235 29.1446H102.766V31.0343H102.839C102.984 30.7436 103.129 30.5255 103.42 30.2348C103.638 29.9441 104.001 29.726 104.292 29.508C104.656 29.29 105.019 29.1446 105.455 28.9993C105.891 28.8539 106.4 28.7812 106.908 28.7812C107.999 28.7812 108.871 28.9267 109.597 29.2901C110.252 29.6535 110.76 30.0894 111.196 30.6708C111.56 31.2522 111.85 31.9791 111.996 32.7785C112.141 33.578 112.214 34.45 112.214 35.3947V43.0984H107.853V36.2669C107.853 35.8308 107.853 35.4674 107.781 35.0314C107.781 34.5953 107.635 34.2319 107.49 33.8686C107.345 33.5052 107.127 33.2145 106.836 32.9964C106.545 32.7784 106.109 32.6331 105.528 32.6331C104.946 32.6331 104.51 32.7058 104.147 32.9239C103.783 33.1419 103.565 33.3599 103.347 33.7233C103.129 34.0867 103.057 34.4501 102.984 34.8861C102.911 35.3222 102.911 35.7581 102.911 36.1942V43.1712H98.5508V29.1446H98.6235Z" fill="#036EB8"/>
<path d="M124.859 45.4224C124.568 46.1491 124.277 46.8032 123.987 47.3846C123.696 47.966 123.405 48.4748 122.969 48.8381C122.533 49.2015 122.024 49.5649 121.37 49.7102C120.716 49.9283 119.917 50.0009 118.827 50.0009C117.737 50.0009 116.646 49.8556 115.629 49.4922L116.21 45.9311C116.864 46.2218 117.519 46.3672 118.245 46.3672C118.754 46.3672 119.117 46.2945 119.408 46.2218C119.699 46.1491 119.99 45.9311 120.208 45.7857C120.426 45.5677 120.571 45.3497 120.716 45.059C120.862 44.7683 121.007 44.4049 121.152 44.0415L121.443 43.2421L115.266 29.0703H119.917L123.551 38.3001H123.623L126.676 29.0703H131.109L124.859 45.4224Z" fill="#036EB8"/>
<path d="M0.371094 0.148438H7.71135C9.52825 0.148438 11.1998 0.366464 12.7987 0.802519C14.3975 1.23857 15.7784 1.89266 17.0139 2.83744C18.1767 3.78223 19.1941 5.01772 19.8482 6.47123C20.575 7.99742 20.9383 9.81432 20.9383 11.9219C20.9383 13.8115 20.575 15.483 19.9209 16.9365C19.2668 18.3901 18.322 19.6256 17.1592 20.5703C15.9964 21.5151 14.6882 22.3146 13.162 22.8233C11.6358 23.332 10.037 23.55 8.43811 23.55H0.443774V0.148438H0.371094ZM5.24038 18.7534H7.78403C8.94684 18.7534 9.9643 18.6081 10.9091 18.3901C11.8539 18.172 12.726 17.736 13.4527 17.1546C14.1795 16.5732 14.7609 15.8464 15.1243 14.9743C15.5603 14.0295 15.7057 12.9394 15.7057 11.6312C15.7057 10.4684 15.4877 9.52361 15.1243 8.65151C14.6882 7.7794 14.1795 7.12531 13.4527 6.54391C12.726 5.9625 11.9265 5.59912 10.9818 5.30842C10.037 5.01772 9.09219 4.87236 8.07473 4.87236H5.1677V18.7534H5.24038Z" fill="#036EB8"/>
<path d="M33.4411 19.8419L36.4208 22.9669H32.787L31.6968 21.7314C31.1154 22.3128 30.534 22.6762 29.9526 22.9669C29.2985 23.1849 28.5718 23.3303 27.845 23.3303C27.2636 23.3303 26.6822 23.2576 26.1008 23.1123C25.5194 22.9669 25.0107 22.6762 24.5746 22.3855C24.1386 22.0221 23.7752 21.6588 23.4845 21.15C23.1938 20.6413 23.1211 20.0599 23.1211 19.4058C23.1211 18.9697 23.1938 18.6064 23.3391 18.1703C23.4845 17.8069 23.7025 17.4436 23.9205 17.1529C24.2112 16.8621 24.5019 16.5714 24.7926 16.3534C25.156 16.1354 25.5194 15.9174 25.8828 15.772C25.6647 15.554 25.4467 15.336 25.3014 15.1179C25.0833 14.8999 24.938 14.6819 24.8653 14.4638C24.72 14.2458 24.6473 13.9551 24.5746 13.7371C24.5019 13.4464 24.5019 13.1557 24.5019 12.865C24.5019 12.2836 24.6473 11.7748 24.8653 11.3388C25.0833 10.9027 25.374 10.5394 25.8101 10.2487C26.1735 9.95795 26.6095 9.73992 27.1183 9.66725C27.627 9.52189 28.1357 9.44922 28.6445 9.44922C29.1532 9.44922 29.6619 9.52189 30.098 9.66725C30.534 9.8126 30.9701 10.0306 31.3335 10.2487C31.6968 10.5394 31.9875 10.8301 32.2056 11.2661C32.4236 11.7022 32.4963 12.1382 32.4963 12.7196C32.4963 13.1557 32.4236 13.5191 32.2782 13.8098C32.1329 14.1731 31.9875 14.4638 31.7695 14.7546C31.5515 15.0453 31.2608 15.336 30.9701 15.554C30.6794 15.772 30.3887 15.99 30.0253 16.1354L31.7695 17.9523L33.0777 16.2081H36.3481L33.4411 19.8419ZM27.627 17.2982C27.409 17.4436 27.2636 17.5162 27.0456 17.6616C26.9002 17.8069 26.6822 17.8796 26.5369 18.025C26.3915 18.1703 26.2462 18.3157 26.1735 18.5337C26.1008 18.7517 26.0281 18.9697 26.0281 19.1878C26.0281 19.4058 26.1008 19.6965 26.1735 19.8419C26.2462 20.0599 26.3915 20.2052 26.5369 20.3506C26.6822 20.4959 26.9002 20.5686 27.1183 20.714C27.3363 20.7866 27.5543 20.8593 27.7723 20.8593C28.2084 20.8593 28.5718 20.7866 28.9352 20.5686C29.2259 20.3506 29.5892 20.1326 29.8799 19.8419L27.627 17.2982ZM28.4991 11.5568C28.1357 11.5568 27.845 11.7022 27.5543 11.9202C27.3363 12.1382 27.1909 12.4289 27.1909 12.7923C27.1909 12.9377 27.2636 13.083 27.3363 13.301C27.409 13.4464 27.4816 13.5917 27.627 13.7371C27.6997 13.8824 27.845 14.0278 27.9904 14.1731C28.1357 14.3185 28.2811 14.3912 28.3537 14.5365C28.4991 14.4638 28.6445 14.3185 28.8625 14.2458C29.0078 14.1005 29.2259 14.0278 29.3712 13.8824C29.5166 13.7371 29.6619 13.5917 29.7346 13.4464C29.8073 13.301 29.8799 13.083 29.8799 12.9377C29.8799 12.5743 29.7346 12.2836 29.5166 12.0655C29.2259 11.7022 28.8625 11.5568 28.4991 11.5568Z" fill="#036EB8"/>
<path d="M53.5691 6.46815C53.0603 5.88674 52.4789 5.45068 51.8248 5.08731C51.0981 4.7966 50.2987 4.57857 49.3539 4.57857C48.4091 4.57857 47.6097 4.72393 46.8102 5.08731C46.0108 5.45068 45.3567 5.95941 44.7753 6.6135C44.1939 7.26758 43.7578 7.99434 43.3944 8.86645C43.1037 9.73856 42.8857 10.6833 42.8857 11.7008C42.8857 12.7183 43.0311 13.7357 43.3944 14.6078C43.6852 15.4799 44.1939 16.2067 44.7026 16.8608C45.284 17.5149 45.9381 18.0236 46.6649 18.387C47.4643 18.7504 48.2637 18.8957 49.1358 18.8957C50.1533 18.8957 51.0254 18.6777 51.8248 18.2416C52.6243 17.8056 53.2057 17.2242 53.7144 16.4974L57.7843 19.5498C56.8395 20.858 55.6767 21.8754 54.2231 22.4568C52.7696 23.1109 51.3161 23.4016 49.7899 23.4016C48.0457 23.4016 46.4468 23.1109 44.9933 22.6022C43.5398 22.0208 42.2316 21.294 41.2142 20.2765C40.124 19.2591 39.3246 18.0236 38.7432 16.5701C38.1618 15.1166 37.8711 13.5177 37.8711 11.7008C37.8711 9.88391 38.1618 8.28504 38.7432 6.83152C39.3246 5.37801 40.1967 4.14252 41.2142 3.12506C42.3043 2.1076 43.5398 1.30816 44.9933 0.799434C46.4468 0.290703 48.0457 0 49.7899 0C50.444 0 51.0981 0.0726758 51.7522 0.145352C52.4062 0.290703 53.133 0.436055 53.7871 0.726758C54.4412 0.944785 55.0953 1.30816 55.6767 1.74422C56.2581 2.18027 56.8395 2.689 57.3482 3.27041L53.5691 6.46815Z" fill="#036EB8"/>
<path d="M62.2016 16.4961H64.3092C64.8179 16.4961 65.3266 16.5688 65.7627 16.6414C66.1988 16.7868 66.6348 16.9321 66.9255 17.2229C67.2889 17.4409 67.5069 17.8043 67.7249 18.2403C67.943 18.6764 68.0157 19.1124 68.0157 19.6938C68.0157 20.2026 67.943 20.6386 67.7249 21.0747C67.5069 21.438 67.2889 21.8014 66.9255 22.0195C66.5621 22.3102 66.1988 22.4555 65.7627 22.6009C65.3266 22.7462 64.8906 22.8189 64.3819 22.8189H62.1289V16.4961H62.2016ZM63.5824 21.5107H64.3092C64.5999 21.5107 64.9633 21.5107 65.1813 21.438C65.472 21.3654 65.69 21.2927 65.908 21.1473C66.1261 21.002 66.2714 20.784 66.4168 20.5659C66.5621 20.3479 66.5621 19.9845 66.5621 19.6938C66.5621 19.4031 66.4895 19.1124 66.4168 18.8944C66.2714 18.6764 66.1261 18.4583 65.9807 18.313C65.7627 18.1676 65.5447 18.0223 65.254 17.9496C64.9633 17.8769 64.7452 17.8043 64.4545 17.8043H63.6551V21.5107H63.5824Z" fill="#036EB8"/>
<path d="M72.8815 22.0166C72.6635 22.3073 72.3728 22.5253 72.0821 22.6707C71.7187 22.816 71.428 22.8887 71.0646 22.8887C70.7012 22.8887 70.4106 22.816 70.1199 22.7434C69.8292 22.6707 69.5384 22.4527 69.3204 22.3073C69.1024 22.0893 68.957 21.8713 68.8117 21.5805C68.6663 21.2898 68.5938 20.9991 68.5938 20.6358C68.5938 20.2724 68.6663 19.9817 68.8117 19.691C68.957 19.4003 69.1024 19.1822 69.3204 18.9642C69.5384 18.7462 69.8292 18.6008 70.1199 18.5282C70.4106 18.4555 70.7012 18.3828 71.0646 18.3828C71.3553 18.3828 71.646 18.4555 71.9367 18.5282C72.1548 18.6008 72.3728 18.8189 72.5908 18.9642C72.7362 19.1822 72.8815 19.4003 73.0269 19.691C73.0995 19.9817 73.1722 20.2724 73.1722 20.6358V21.0718H70.0472C70.1198 21.3625 70.1925 21.5079 70.4105 21.6532C70.5559 21.7986 70.7739 21.8713 71.0646 21.8713C71.2826 21.8713 71.5007 21.7986 71.646 21.7259C71.7914 21.6532 71.9367 21.5079 72.0094 21.3625L72.8815 22.0166ZM71.7914 20.127C71.7914 19.909 71.7187 19.691 71.5734 19.5456C71.428 19.4003 71.21 19.3276 70.9919 19.3276C70.8466 19.3276 70.7012 19.3276 70.6286 19.4003C70.4832 19.4729 70.4105 19.4729 70.3379 19.6183C70.2652 19.691 70.1926 19.7637 70.1199 19.909C70.0473 19.9817 70.0472 20.127 70.0472 20.1997H71.7914V20.127Z" fill="#036EB8"/>
<path d="M76.3734 19.7706C76.1554 19.5526 75.9374 19.4073 75.574 19.4073C75.4286 19.4073 75.356 19.4073 75.2106 19.4799C75.1379 19.5526 75.0653 19.6253 75.0653 19.7706C75.0653 19.8433 75.1379 19.9887 75.2106 19.9887C75.356 20.0613 75.4286 20.0613 75.6467 20.134C75.792 20.2067 76.01 20.2067 76.2281 20.2794C76.4461 20.3521 76.5915 20.4247 76.7368 20.4974C76.8822 20.5701 77.0275 20.7154 77.1729 20.8608C77.3182 21.0061 77.3182 21.2242 77.3182 21.5149C77.3182 21.8056 77.2455 22.0236 77.1002 22.2416C76.9548 22.4596 76.8095 22.605 76.6641 22.6777C76.4461 22.823 76.2281 22.8957 76.01 22.8957C75.792 22.9684 75.5013 22.9684 75.2833 22.9684C74.9926 22.9684 74.7019 22.8957 74.3385 22.823C74.0478 22.7504 73.7571 22.605 73.5391 22.387L74.3385 21.5149C74.4839 21.6602 74.6292 21.8056 74.7746 21.8782C74.9199 21.9509 75.1379 22.0236 75.2833 22.0236C75.4286 22.0236 75.574 22.0236 75.7193 21.9509C75.8647 21.8782 75.9374 21.8056 75.9374 21.7329C75.9374 21.5875 75.8647 21.5149 75.792 21.5149C75.6467 21.4422 75.574 21.4422 75.356 21.3695C75.2106 21.2968 74.9926 21.2968 74.7746 21.2242C74.5565 21.1515 74.4112 21.0788 74.2658 21.0061C74.1205 20.9335 73.9751 20.7881 73.8298 20.6428C73.6844 20.4974 73.6844 20.2794 73.6844 19.9887C73.6844 19.698 73.7571 19.4799 73.8298 19.3346C73.9024 19.1166 74.0478 18.9712 74.2658 18.8985C74.4112 18.7532 74.6292 18.6805 74.8472 18.6078C75.0653 18.5352 75.2833 18.5352 75.5013 18.5352C75.792 18.5352 76.0827 18.6078 76.3734 18.6805C76.6641 18.7532 76.8822 18.8985 77.1002 19.1166L76.3734 19.7706Z" fill="#036EB8"/>
<path d="M77.9727 17.0768C77.9727 16.8587 78.0453 16.7134 78.1907 16.4954C78.336 16.35 78.5541 16.2773 78.7721 16.2773C78.9901 16.2773 79.1355 16.35 79.3535 16.4954C79.4988 16.6407 79.5715 16.8587 79.5715 17.0768C79.5715 17.2948 79.4988 17.4402 79.3535 17.6582C79.2081 17.8035 78.9901 17.8762 78.7721 17.8762C78.5541 17.8762 78.4087 17.8035 78.1907 17.6582C78.0453 17.5128 77.9727 17.2948 77.9727 17.0768ZM78.0453 18.4576H79.3535V22.8182H78.0453V18.4576Z" fill="#036EB8"/>
<path d="M84.949 22.4527C84.949 23.2521 84.7309 23.9062 84.2949 24.3422C83.8588 24.7783 83.2774 24.9963 82.4053 24.9963C82.0419 24.9963 81.6059 24.9236 81.2425 24.851C80.8791 24.7783 80.5157 24.5603 80.225 24.3422L80.9518 23.2521C81.1698 23.3974 81.3878 23.5428 81.6059 23.6881C81.8239 23.7608 82.1146 23.8335 82.3326 23.8335C82.7687 23.8335 83.0594 23.7608 83.2047 23.5428C83.4228 23.3248 83.4954 23.1067 83.4954 22.7434V22.3073C83.3501 22.5253 83.1321 22.6707 82.914 22.7434C82.696 22.816 82.478 22.8887 82.2599 22.8887C81.9692 22.8887 81.6785 22.816 81.3878 22.7434C81.0971 22.598 80.8791 22.4527 80.7338 22.3073C80.5157 22.0893 80.3704 21.8713 80.2977 21.5805C80.225 21.2898 80.1523 20.9991 80.1523 20.7084C80.1523 20.4177 80.225 20.127 80.2977 19.8363C80.3704 19.5456 80.5157 19.3276 80.6611 19.1096C80.8064 18.8915 81.0245 18.7462 81.3152 18.6008C81.5332 18.4555 81.8239 18.3828 82.1146 18.3828C82.3326 18.3828 82.478 18.3828 82.6233 18.4555C82.7687 18.5282 82.914 18.5282 83.0594 18.6008C83.2047 18.6735 83.2774 18.7462 83.3501 18.8189C83.4228 18.8915 83.4954 18.9642 83.5681 19.0369V18.4555H84.8036V22.4527H84.949ZM81.5332 20.5631C81.5332 20.7084 81.5332 20.8538 81.6059 20.9991C81.6785 21.1445 81.7512 21.2172 81.8239 21.3625C81.8966 21.4352 82.0419 21.5079 82.1873 21.5805C82.3326 21.6532 82.478 21.6532 82.6233 21.6532C82.7687 21.6532 82.914 21.6532 83.0594 21.5805C83.2047 21.5079 83.2774 21.4352 83.4228 21.3625C83.4954 21.2898 83.5681 21.1445 83.6408 20.9991C83.7135 20.8538 83.7135 20.7084 83.7135 20.5631C83.7135 20.4177 83.7135 20.2724 83.6408 20.127C83.5681 19.9817 83.4954 19.909 83.4228 19.7637C83.3501 19.691 83.2047 19.6183 83.0594 19.5456C82.914 19.4729 82.7687 19.4729 82.6233 19.4729C82.478 19.4729 82.3326 19.4729 82.1873 19.5456C82.0419 19.6183 81.9692 19.691 81.8239 19.7637C81.7512 19.8363 81.6785 19.9817 81.6059 20.127C81.6059 20.3451 81.5332 20.4904 81.5332 20.5631Z" fill="#036EB8"/>
<path d="M85.9688 18.4555H87.2768V19.0369C87.3495 18.9642 87.3495 18.8915 87.4222 18.8189C87.4948 18.7462 87.5675 18.6735 87.7129 18.6008C87.7855 18.5282 87.9309 18.4555 88.0762 18.4555C88.2216 18.3828 88.367 18.3828 88.5123 18.3828C88.8757 18.3828 89.0937 18.4555 89.3117 18.5282C89.5298 18.6008 89.6751 18.7462 89.8205 18.9642C89.9658 19.1822 90.0385 19.4003 90.0385 19.6183C90.1112 19.8363 90.1112 20.127 90.1112 20.4177V22.816H88.803V20.7084C88.803 20.5631 88.803 20.4904 88.803 20.3451C88.803 20.1997 88.803 20.0544 88.7303 19.9817C88.6577 19.8363 88.585 19.7637 88.5123 19.691C88.4396 19.6183 88.2943 19.6183 88.1489 19.6183C88.0036 19.6183 87.8582 19.6183 87.7129 19.691C87.6402 19.7637 87.4949 19.8363 87.4949 19.909C87.4223 19.9817 87.4222 20.127 87.3495 20.2724C87.3495 20.4177 87.3495 20.5631 87.3495 20.7084V22.8887H86.0413V18.4555H85.9688Z" fill="#036EB8"/>
<path d="M100.717 18.0973C100.571 17.952 100.426 17.8066 100.208 17.7339C99.9901 17.6613 99.7721 17.5886 99.4813 17.5886C99.1906 17.5886 98.9726 17.6613 98.7546 17.7339C98.5366 17.8066 98.3185 17.952 98.1732 18.17C98.0278 18.388 97.8825 18.5334 97.8098 18.8241C97.7371 19.0421 97.6645 19.3328 97.6645 19.6235C97.6645 19.9142 97.7371 20.2049 97.8098 20.4229C97.8825 20.641 98.0278 20.859 98.1732 21.077C98.3185 21.2951 98.5366 21.3677 98.7546 21.5131C98.9726 21.5858 99.1906 21.6584 99.4813 21.6584C99.7721 21.6584 99.9901 21.5858 100.208 21.5131C100.426 21.3677 100.644 21.2224 100.717 21.0044L101.88 21.8765C101.589 22.2398 101.298 22.5305 100.862 22.6759C100.426 22.8213 100.063 22.9666 99.6267 22.9666C99.118 22.9666 98.6819 22.8939 98.2459 22.7486C97.8098 22.6032 97.4464 22.3852 97.1557 22.0945C96.865 21.8038 96.647 21.4404 96.429 21.077C96.2836 20.641 96.2109 20.2049 96.2109 19.6962C96.2109 19.1875 96.2836 18.7514 96.429 18.3154C96.5743 17.8793 96.865 17.5886 97.1557 17.2979C97.4464 17.0072 97.8098 16.7892 98.2459 16.6438C98.6819 16.4985 99.118 16.4258 99.6267 16.4258C99.772 16.4258 99.9901 16.4258 100.208 16.4985C100.426 16.4985 100.571 16.5711 100.79 16.6438C101.008 16.7165 101.153 16.7892 101.298 16.9345C101.444 17.0799 101.589 17.2252 101.734 17.3706L100.717 18.0973Z" fill="#036EB8"/>
<path d="M102.539 18.4555H103.847V19.1822C103.993 18.8915 104.138 18.7462 104.356 18.6008C104.574 18.4555 104.792 18.3828 105.083 18.3828C105.155 18.3828 105.228 18.3828 105.301 18.3828C105.373 18.3828 105.446 18.3828 105.519 18.3828V19.6183C105.446 19.6183 105.301 19.5456 105.228 19.5456C105.155 19.5456 105.01 19.5456 104.937 19.5456C104.647 19.5456 104.501 19.5456 104.356 19.6183C104.211 19.691 104.065 19.7637 103.993 19.909C103.92 20.0544 103.847 20.1997 103.847 20.3451C103.847 20.4904 103.847 20.7084 103.847 20.9265V22.7434H102.539V18.4555Z" fill="#036EB8"/>
<path d="M110.093 22.0166C109.875 22.3073 109.584 22.5253 109.293 22.6707C108.93 22.816 108.639 22.8887 108.276 22.8887C107.912 22.8887 107.622 22.816 107.331 22.7434C107.04 22.6707 106.749 22.4527 106.531 22.3073C106.313 22.0893 106.168 21.8713 106.023 21.5805C105.877 21.2898 105.805 20.9991 105.805 20.6358C105.805 20.2724 105.877 19.9817 106.023 19.691C106.168 19.4003 106.313 19.1822 106.531 18.9642C106.749 18.7462 107.04 18.6008 107.331 18.5282C107.622 18.4555 107.912 18.3828 108.276 18.3828C108.566 18.3828 108.857 18.4555 109.148 18.5282C109.366 18.6008 109.584 18.8189 109.802 18.9642C109.947 19.1822 110.093 19.4003 110.238 19.691C110.311 19.9817 110.383 20.2724 110.383 20.6358V21.0718H107.258C107.331 21.3625 107.404 21.5079 107.622 21.6532C107.767 21.7986 107.985 21.8713 108.276 21.8713C108.494 21.8713 108.712 21.7986 108.857 21.7259C109.002 21.6532 109.148 21.5079 109.22 21.3625L110.093 22.0166ZM108.93 20.127C108.93 19.909 108.857 19.691 108.712 19.5456C108.566 19.4003 108.348 19.3276 108.13 19.3276C107.985 19.3276 107.84 19.3276 107.767 19.4003C107.622 19.4729 107.549 19.4729 107.476 19.6183C107.404 19.691 107.331 19.7637 107.258 19.909C107.186 19.9817 107.186 20.127 107.186 20.1997H108.93V20.127Z" fill="#036EB8"/>
<path d="M113.8 22.237C113.655 22.455 113.437 22.6004 113.219 22.7457C113.001 22.8184 112.71 22.8911 112.419 22.8911C112.201 22.8911 112.056 22.8911 111.838 22.8184C111.62 22.7457 111.474 22.673 111.329 22.6004C111.184 22.455 111.038 22.3823 110.966 22.1643C110.893 22.019 110.82 21.8009 110.82 21.5829C110.82 21.3649 110.893 21.1469 110.966 20.9288C111.038 20.7835 111.184 20.6381 111.329 20.4928C111.474 20.3474 111.692 20.2747 111.838 20.2021C112.056 20.1294 112.274 20.1294 112.492 20.0567C112.71 20.0567 112.928 19.984 113.146 19.984C113.364 19.984 113.582 19.984 113.727 19.984C113.727 19.766 113.655 19.548 113.509 19.4026C113.364 19.2573 113.146 19.1846 112.928 19.1846C112.71 19.1846 112.492 19.2573 112.347 19.33C112.128 19.4026 111.983 19.548 111.838 19.6933L111.111 18.9666C111.329 18.7486 111.62 18.5305 111.983 18.4579C112.347 18.3125 112.637 18.3125 113.001 18.3125C113.364 18.3125 113.727 18.3852 113.945 18.4579C114.163 18.5305 114.381 18.6759 114.527 18.8939C114.672 19.1119 114.817 19.33 114.817 19.6207C114.89 19.9114 114.89 20.2021 114.89 20.5654V22.7457H113.655V22.237H113.8ZM113.509 20.9288C113.437 20.9288 113.291 20.9288 113.146 20.9288C113.001 20.9288 112.855 20.9288 112.71 21.0015C112.565 21.0742 112.419 21.0742 112.347 21.2195C112.274 21.2922 112.201 21.4376 112.201 21.5829C112.201 21.7283 112.274 21.8736 112.419 21.9463C112.565 22.019 112.71 22.0916 112.855 22.0916C113.001 22.0916 113.146 22.0916 113.219 22.019C113.364 22.019 113.437 21.9463 113.509 21.8736C113.582 21.8009 113.655 21.7283 113.727 21.6556C113.8 21.5829 113.8 21.4376 113.8 21.2922V21.0015H113.509V20.9288Z" fill="#036EB8"/>
<path d="M118.818 19.5491H117.655V21.0026C117.655 21.148 117.655 21.2206 117.655 21.2933C117.655 21.366 117.728 21.5113 117.728 21.5113C117.801 21.584 117.801 21.6567 117.946 21.6567C118.019 21.7294 118.164 21.7294 118.309 21.7294C118.382 21.7294 118.455 21.7294 118.6 21.7294C118.745 21.7294 118.818 21.6567 118.891 21.6567V22.7468C118.745 22.8195 118.6 22.8195 118.455 22.8195C118.309 22.8195 118.164 22.8195 117.946 22.8195C117.728 22.8195 117.51 22.8195 117.292 22.7468C117.074 22.6742 116.929 22.6015 116.783 22.5288C116.638 22.4561 116.492 22.3108 116.42 22.0928C116.347 21.9474 116.274 21.7294 116.274 21.5113V19.4764H115.402V18.3863H116.274V17.0781H117.583V18.3863H118.745V19.5491H118.818Z" fill="#036EB8"/>
<path d="M119.395 17.0768C119.395 16.8587 119.467 16.7134 119.613 16.4954C119.758 16.35 119.976 16.2773 120.194 16.2773C120.412 16.2773 120.557 16.35 120.775 16.4954C120.921 16.6407 120.993 16.8587 120.993 17.0768C120.993 17.2948 120.921 17.4402 120.775 17.6582C120.63 17.8035 120.412 17.8762 120.194 17.8762C119.976 17.8762 119.831 17.8035 119.613 17.6582C119.54 17.5128 119.395 17.2948 119.395 17.0768ZM119.54 18.4576H120.848V22.8182H119.54V18.4576Z" fill="#036EB8"/>
<path d="M121.359 18.4609H122.813L123.903 21.4406L124.92 18.4609H126.301L124.557 22.8215H123.104L121.359 18.4609Z" fill="#036EB8"/>
<path d="M130.882 22.0166C130.664 22.3073 130.373 22.5253 130.082 22.6707C129.719 22.816 129.428 22.8887 129.065 22.8887C128.701 22.8887 128.411 22.816 128.12 22.7434C127.829 22.6707 127.539 22.4527 127.321 22.3073C127.102 22.0893 126.957 21.8713 126.812 21.5805C126.666 21.2898 126.594 20.9991 126.594 20.6358C126.594 20.2724 126.666 19.9817 126.812 19.691C126.957 19.4003 127.102 19.1822 127.321 18.9642C127.539 18.7462 127.829 18.6008 128.12 18.5282C128.411 18.4555 128.701 18.3828 129.065 18.3828C129.355 18.3828 129.646 18.4555 129.937 18.5282C130.155 18.6008 130.373 18.8189 130.591 18.9642C130.736 19.1822 130.882 19.4003 131.027 19.691C131.1 19.9817 131.172 20.2724 131.172 20.6358V21.0718H128.047C128.12 21.3625 128.193 21.5079 128.411 21.6532C128.556 21.7986 128.774 21.8713 129.065 21.8713C129.283 21.8713 129.501 21.7986 129.646 21.7259C129.791 21.6532 129.937 21.5079 130.01 21.3625L130.882 22.0166ZM129.791 20.127C129.791 19.909 129.719 19.691 129.573 19.5456C129.428 19.4003 129.21 19.3276 128.992 19.3276C128.847 19.3276 128.701 19.3276 128.629 19.4003C128.483 19.4729 128.411 19.4729 128.338 19.6183C128.265 19.691 128.193 19.7637 128.12 19.909C128.047 19.9817 128.047 20.127 128.047 20.1997H129.791V20.127Z" fill="#036EB8"/>
<path d="M95.6339 22.0195H91.6367V22.7463H95.6339V22.0195Z" fill="#036EB8"/>
</g>
<defs>
<clipPath id="clip0_4003_99">
<rect width="132" height="50" fill="white"/>
</clipPath>
</defs>
</svg>
