<svg width="132" height="50" viewBox="0 0 132 50" fill="none" xmlns="http://www.w3.org/2000/svg">
<g clip-path="url(#clip0_4197_102)">
<mask id="mask0_4197_102" style="mask-type:luminance" maskUnits="userSpaceOnUse" x="0" y="0" width="132" height="50">
<path d="M132 0H0V50H132V0Z" fill="white"/>
</mask>
<g mask="url(#mask0_4197_102)">
<path d="M9.95659 33.649C9.73856 33.3583 9.44785 33.0676 9.08448 32.8496C8.7211 32.6315 8.28504 32.5588 7.84899 32.5588C6.75885 32.5588 5.88674 32.8496 5.30534 33.5036C4.72393 34.1577 4.36055 35.0298 4.36055 36.0473C4.36055 37.1374 4.65125 37.9369 5.30534 38.5909C5.88674 39.245 6.75885 39.5357 7.84899 39.5357C8.35772 39.5357 8.7211 39.463 9.08448 39.245C9.44785 39.027 9.73856 38.809 9.95659 38.5183L12.7909 41.498C12.1369 42.2247 11.3374 42.6608 10.3926 42.9515C9.44786 43.2422 8.57575 43.3875 7.77631 43.3875C6.68618 43.3875 5.66871 43.2422 4.72393 42.8788C3.77914 42.5154 2.97971 42.0067 2.25295 41.4253C1.5262 40.7712 1.01746 39.9718 0.581409 39.0997C0.145354 38.2276 0 37.2101 0 36.0473C0 34.9572 0.21803 33.9397 0.581409 32.9949C1.01746 32.1228 1.5262 31.3234 2.25295 30.6693C2.97971 30.0152 3.77914 29.5065 4.72393 29.2158C5.66871 28.8524 6.68618 28.707 7.77631 28.707C8.57575 28.707 9.44786 28.8524 10.3926 29.1431C11.3374 29.4338 12.0642 29.9425 12.7909 30.5966L9.95659 33.649Z" fill="white"/>
<path d="M15.4062 36.1215C15.4062 35.0314 15.6244 34.0139 15.9878 33.0691C16.4238 32.197 16.9325 31.3976 17.6593 30.7435C18.3861 30.0894 19.1854 29.5808 20.1302 29.2901C21.075 28.9267 22.0924 28.7812 23.1826 28.7812C24.2727 28.7812 25.2902 28.9267 26.2349 29.2901C27.1797 29.6535 27.9792 30.1621 28.7059 30.7435C29.4327 31.3976 29.9415 32.197 30.3776 33.0691C30.8135 33.9412 30.959 34.9587 30.959 36.1215C30.959 37.2116 30.7409 38.2291 30.3776 39.174C29.9415 40.0461 29.4327 40.8454 28.7059 41.4995C27.9792 42.1537 27.1797 42.6623 26.2349 42.953C25.2902 43.3164 24.2727 43.4618 23.1826 43.4618C22.0924 43.4618 21.075 43.3164 20.1302 42.953C19.1854 42.5897 18.3861 42.0809 17.6593 41.4995C16.9325 40.8454 16.4238 40.0461 15.9878 39.174C15.6244 38.2291 15.4062 37.2116 15.4062 36.1215ZM19.7668 36.1215C19.7668 37.2116 20.0575 38.0111 20.7116 38.6652C21.293 39.3192 22.1651 39.6101 23.2552 39.6101C24.3454 39.6101 25.2176 39.2466 25.799 38.6652C26.3804 38.0111 26.7437 37.139 26.7437 36.1215C26.7437 35.0314 26.4531 34.2319 25.799 33.5779C25.2176 32.9238 24.3454 32.6331 23.2552 32.6331C22.1651 32.6331 21.293 32.9238 20.7116 33.5779C20.0575 34.2319 19.7668 35.104 19.7668 36.1215Z" fill="white"/>
<path d="M35.0985 29.1431H39.241V31.0327H39.3137C39.459 30.742 39.6044 30.5239 39.8951 30.2332C40.1131 29.9425 40.4765 29.7245 40.7672 29.5065C41.1306 29.2884 41.4939 29.1431 41.93 28.9977C42.3661 28.8524 42.8748 28.7797 43.3835 28.7797C44.3283 28.7797 45.2004 28.9977 45.9999 29.3611C46.7266 29.7972 47.308 30.3786 47.7441 31.2507C48.2528 30.3786 48.8342 29.7245 49.561 29.2884C50.2877 28.9251 51.1598 28.707 52.1773 28.707C53.1221 28.707 53.9215 28.8524 54.5756 29.2158C55.2297 29.5065 55.7384 29.9425 56.1018 30.5239C56.4652 31.1053 56.7559 31.6867 56.9012 32.4862C57.0466 33.2129 57.1193 34.0124 57.1193 34.8845V43.1695H52.7587V34.9572C52.7587 34.3031 52.6133 33.7217 52.3226 33.2856C52.0319 32.8496 51.5232 32.5588 50.8691 32.5588C50.3604 32.5588 49.9243 32.6315 49.6336 32.7769C49.2703 32.9222 49.0522 33.1403 48.8342 33.431C48.6162 33.7217 48.4708 34.085 48.3982 34.4484C48.3255 34.8118 48.2528 35.2479 48.2528 35.6839V43.0968H43.8923V35.7566C43.8923 35.5386 43.8923 35.1752 43.8923 34.8118C43.8923 34.4484 43.8196 34.085 43.6742 33.7943C43.5289 33.5036 43.3835 33.2129 43.0928 32.9222C42.8021 32.7042 42.4387 32.5588 41.93 32.5588C41.3486 32.5588 40.9125 32.6315 40.5492 32.8496C40.1858 33.0676 39.9678 33.2856 39.7497 33.649C39.5317 34.0124 39.459 34.3757 39.3863 34.8118C39.3137 35.2479 39.3137 35.6839 39.3137 36.12V43.0968H34.9531V29.1431H35.0985Z" fill="white"/>
<path d="M62.2133 29.1431H66.2105V30.96H66.2831C66.4285 30.742 66.6465 30.4513 66.9372 30.1605C67.2279 29.8698 67.5186 29.6518 67.882 29.4338C68.2454 29.2158 68.6815 29.0704 69.1175 28.9251C69.5536 28.7797 70.0623 28.707 70.4983 28.707C71.5158 28.707 72.4606 28.8524 73.3327 29.2158C74.2048 29.5791 74.9316 30.0879 75.513 30.742C76.0944 31.396 76.6031 32.1228 76.8938 33.0676C77.1845 33.9397 77.4025 34.9571 77.4025 35.9746C77.4025 36.9194 77.2572 37.8642 76.9665 38.809C76.6758 39.6811 76.2397 40.4805 75.731 41.2073C75.1496 41.934 74.4955 42.4428 73.6961 42.8788C72.8967 43.3149 72.0245 43.5329 71.0071 43.5329C70.135 43.5329 69.2629 43.3875 68.4634 43.0968C67.664 42.8061 67.0099 42.3701 66.5739 41.6433H66.5012V49.7103H62.1406V29.1431H62.2133ZM66.2105 36.12C66.2105 37.2101 66.5012 38.0095 67.1553 38.6636C67.7367 39.3177 68.6088 39.6084 69.6989 39.6084C70.7891 39.6084 71.6612 39.245 72.2426 38.6636C72.824 38.0095 73.1873 37.1374 73.1873 36.12C73.1873 35.0298 72.8967 34.2304 72.2426 33.5763C71.6612 32.9222 70.7891 32.6315 69.6989 32.6315C68.6088 32.6315 67.7367 32.9222 67.1553 33.5763C66.5012 34.2304 66.2105 35.1025 66.2105 36.12Z" fill="white"/>
<path d="M90.333 41.3542C89.8243 42.0809 89.1702 42.6623 88.3708 42.953C87.5714 43.3164 86.6993 43.4618 85.8271 43.4618C85.1731 43.4618 84.519 43.3892 83.9376 43.1712C83.3562 42.9531 82.7748 42.7352 82.3387 42.3717C81.9026 42.0083 81.5393 41.5722 81.2486 40.9908C80.9579 40.4821 80.8125 39.828 80.8125 39.1012C80.8125 38.3018 80.9579 37.575 81.2486 37.0663C81.5393 36.4849 81.9753 36.0489 82.4841 35.6856C82.9928 35.3222 83.5742 35.0315 84.2283 34.8134C84.8824 34.5954 85.5364 34.45 86.2632 34.3773C86.9899 34.3046 87.644 34.2319 88.3708 34.2319C89.0976 34.2319 89.7516 34.2319 90.333 34.2319C90.333 33.4325 90.0423 32.8512 89.5336 32.4151C88.9522 31.9791 88.3708 31.761 87.5714 31.761C86.8446 31.761 86.1905 31.9063 85.6091 32.197C85.0277 32.4877 84.519 32.9238 84.0102 33.4325L81.6846 31.0343C82.4841 30.3075 83.4288 29.726 84.519 29.3627C85.6091 28.9993 86.6993 28.7812 87.8621 28.7812C89.0976 28.7812 90.1877 28.9267 90.9871 29.2901C91.7866 29.5808 92.4406 30.0894 92.9494 30.6708C93.4581 31.2522 93.7488 32.0519 93.9668 32.924C94.1849 33.7961 94.2575 34.8862 94.2575 36.049V43.1712H90.2604V41.3542H90.333ZM89.3156 36.9936C88.9522 36.9936 88.5888 36.9936 88.0801 37.0663C87.5714 37.0663 87.1353 37.2118 86.6993 37.2845C86.2632 37.4299 85.8271 37.6477 85.5364 37.8657C85.2457 38.1564 85.0277 38.5198 85.0277 38.9559C85.0277 39.4646 85.2457 39.828 85.6818 40.1187C86.1178 40.3367 86.5539 40.4823 87.0626 40.4823C87.4987 40.4823 87.8621 40.4094 88.2981 40.3368C88.6615 40.1913 89.0249 40.046 89.3156 39.828C89.6063 39.6099 89.897 39.3192 90.0423 39.0285C90.2604 38.6652 90.333 38.3018 90.333 37.8657V36.9209H89.3156V36.9936Z" fill="white"/>
<path d="M98.6274 29.1446H102.77V31.0343H102.843C102.988 30.7436 103.133 30.5255 103.424 30.2348C103.642 29.9441 104.005 29.726 104.296 29.508C104.66 29.29 105.023 29.1446 105.459 28.9993C105.895 28.8539 106.404 28.7812 106.912 28.7812C108.003 28.7812 108.875 28.9267 109.601 29.2901C110.256 29.6535 110.764 30.0894 111.2 30.6708C111.564 31.2522 111.854 31.9791 112 32.7785C112.145 33.578 112.218 34.45 112.218 35.3947V43.0984H107.857V36.2669C107.857 35.8308 107.857 35.4674 107.785 35.0314C107.785 34.5953 107.639 34.2319 107.494 33.8686C107.349 33.5052 107.131 33.2145 106.84 32.9964C106.549 32.7784 106.113 32.6331 105.532 32.6331C104.95 32.6331 104.514 32.7059 104.151 32.924C103.787 33.142 103.569 33.36 103.351 33.7234C103.133 34.0868 103.061 34.4502 102.988 34.8862C102.915 35.3223 102.915 35.7581 102.915 36.1942V43.1712H98.5547V29.1446H98.6274Z" fill="white"/>
<path d="M124.859 45.4224C124.568 46.1491 124.277 46.8032 123.987 47.3846C123.696 47.966 123.405 48.4748 122.969 48.8381C122.533 49.2015 122.024 49.5649 121.37 49.7102C120.716 49.9283 119.917 50.0009 118.827 50.0009C117.737 50.0009 116.646 49.8556 115.629 49.4922L116.21 45.9311C116.864 46.2218 117.519 46.3672 118.245 46.3672C118.754 46.3672 119.117 46.2945 119.408 46.2218C119.699 46.1491 119.99 45.9311 120.208 45.7857C120.426 45.5677 120.571 45.3497 120.716 45.059C120.862 44.7683 121.007 44.4049 121.152 44.0415L121.443 43.2421L115.266 29.0703H119.917L123.551 38.3001H123.623L126.676 29.0703H131.109L124.859 45.4224Z" fill="white"/>
<path d="M0.375 0.148438H7.71526C9.53216 0.148438 11.2037 0.366463 12.8026 0.802518C14.4014 1.23857 15.7823 1.89266 17.0178 2.83744C18.1806 3.78223 19.198 5.01772 19.8521 6.47123C20.5789 7.99742 20.9422 9.81432 20.9422 11.9219C20.9422 13.8115 20.5789 15.483 19.9248 16.9365C19.2707 18.3901 18.3259 19.6256 17.1631 20.5703C16.0003 21.5151 14.6921 22.3146 13.1659 22.8233C11.6397 23.332 10.0409 23.55 8.44202 23.55H0.44768V0.148438H0.375ZM5.24429 18.7534H7.78794C8.95075 18.7534 9.96821 18.6081 10.913 18.3901C11.8578 18.172 12.7299 17.736 13.4566 17.1546C14.1834 16.5732 14.7648 15.8464 15.1282 14.9743C15.5642 14.0295 15.7096 12.9394 15.7096 11.6312C15.7096 10.4684 15.4916 9.52361 15.1282 8.65151C14.6921 7.7794 14.1834 7.12531 13.4566 6.54391C12.7299 5.9625 11.9304 5.59912 10.9857 5.30842C10.0409 5.01772 9.0961 4.87236 8.07864 4.87236H5.17161V18.7534H5.24429Z" fill="white"/>
<path d="M33.445 19.8419L36.4247 22.9669H32.7909L31.7007 21.7314C31.1193 22.3128 30.5379 22.6762 29.9565 22.9669C29.3024 23.1849 28.5757 23.3303 27.8489 23.3303C27.2675 23.3303 26.6861 23.2576 26.1047 23.1123C25.5233 22.9669 25.0146 22.6762 24.5785 22.3855C24.1425 22.0221 23.7791 21.6588 23.4884 21.15C23.1977 20.6413 23.125 20.0599 23.125 19.4058C23.125 18.9697 23.1977 18.6064 23.343 18.1703C23.4884 17.8069 23.7064 17.4436 23.9244 17.1529C24.2151 16.8621 24.5058 16.5714 24.7965 16.3534C25.1599 16.1354 25.5233 15.9174 25.8867 15.772C25.6686 15.554 25.4506 15.336 25.3053 15.1179C25.0872 14.8999 24.9419 14.6819 24.8692 14.4638C24.7239 14.2458 24.6512 13.9551 24.5785 13.7371C24.5058 13.4464 24.5058 13.1557 24.5058 12.865C24.5058 12.2836 24.6512 11.7748 24.8692 11.3388C25.0872 10.9027 25.3779 10.5394 25.814 10.2487C26.1774 9.95795 26.6134 9.73992 27.1222 9.66725C27.6309 9.52189 28.1396 9.44922 28.6484 9.44922C29.1571 9.44922 29.6658 9.52189 30.1019 9.66725C30.5379 9.8126 30.974 10.0306 31.3374 10.2487C31.7007 10.5394 31.9914 10.8301 32.2095 11.2661C32.4275 11.7022 32.5002 12.1382 32.5002 12.7196C32.5002 13.1557 32.4275 13.5191 32.2821 13.8098C32.1368 14.1731 31.9914 14.4638 31.7734 14.7546C31.5554 15.0453 31.2647 15.336 30.974 15.554C30.6833 15.772 30.3926 15.99 30.0292 16.1354L31.7734 17.9523L33.0816 16.2081H36.352L33.445 19.8419ZM27.6309 17.2982C27.4129 17.4436 27.2675 17.5162 27.0495 17.6616C26.9041 17.8069 26.6861 17.8796 26.5408 18.025C26.3954 18.1703 26.2501 18.3157 26.1774 18.5337C26.1047 18.7517 26.032 18.9697 26.032 19.1878C26.032 19.4058 26.1047 19.6965 26.1774 19.8419C26.2501 20.0599 26.3954 20.2052 26.5408 20.3506C26.6861 20.4959 26.9041 20.5686 27.1222 20.714C27.3402 20.7866 27.5582 20.8593 27.7762 20.8593C28.2123 20.8593 28.5757 20.7866 28.9391 20.5686C29.2298 20.3506 29.5931 20.1326 29.8838 19.8419L27.6309 17.2982ZM28.503 11.5568C28.1396 11.5568 27.8489 11.7022 27.5582 11.9202C27.3402 12.1382 27.1948 12.4289 27.1948 12.7923C27.1948 12.9377 27.2675 13.083 27.3402 13.301C27.4129 13.4464 27.4855 13.5917 27.6309 13.7371C27.7036 13.8824 27.8489 14.0278 27.9943 14.1731C28.1396 14.3185 28.285 14.3912 28.3576 14.5365C28.503 14.4638 28.6484 14.3185 28.8664 14.2458C29.0117 14.1005 29.2298 14.0278 29.3751 13.8824C29.5205 13.7371 29.6658 13.5917 29.7385 13.4464C29.8112 13.301 29.8838 13.083 29.8838 12.9377C29.8838 12.5743 29.7385 12.2836 29.5205 12.0655C29.2298 11.7022 28.8664 11.5568 28.503 11.5568Z" fill="white"/>
<path d="M53.573 6.46815C53.0642 5.88674 52.4828 5.45068 51.8287 5.08731C51.102 4.7966 50.3026 4.57857 49.3578 4.57857C48.413 4.57857 47.6136 4.72393 46.8141 5.08731C46.0147 5.45068 45.3606 5.95941 44.7792 6.6135C44.1978 7.26758 43.7617 7.99434 43.3983 8.86645C43.1076 9.73856 42.8896 10.6833 42.8896 11.7008C42.8896 12.7183 43.035 13.7357 43.3983 14.6078C43.6891 15.4799 44.1978 16.2067 44.7065 16.8608C45.2879 17.5149 45.942 18.0236 46.6688 18.387C47.4682 18.7504 48.2676 18.8957 49.1397 18.8957C50.1572 18.8957 51.0293 18.6777 51.8287 18.2416C52.6282 17.8056 53.2096 17.2242 53.7183 16.4974L57.7882 19.5498C56.8434 20.858 55.6806 21.8754 54.227 22.4568C52.7735 23.1109 51.32 23.4016 49.7938 23.4016C48.0496 23.4016 46.4507 23.1109 44.9972 22.6022C43.5437 22.0208 42.2355 21.294 41.2181 20.2765C40.1279 19.2591 39.3285 18.0236 38.7471 16.5701C38.1657 15.1166 37.875 13.5177 37.875 11.7008C37.875 9.88391 38.1657 8.28504 38.7471 6.83152C39.3285 5.37801 40.2006 4.14252 41.2181 3.12506C42.3082 2.1076 43.5437 1.30816 44.9972 0.799434C46.4507 0.290703 48.0496 0 49.7938 0C50.4479 0 51.102 0.0726758 51.7561 0.145352C52.4101 0.290703 53.1369 0.436055 53.791 0.726758C54.4451 0.944785 55.0992 1.30816 55.6806 1.74422C56.262 2.18027 56.8434 2.689 57.3521 3.27041L53.573 6.46815Z" fill="white"/>
<path d="M62.1977 16.4961H64.3053C64.814 16.4961 65.3227 16.5688 65.7588 16.6414C66.1949 16.7868 66.6309 16.9321 66.9216 17.2229C67.285 17.4409 67.503 17.8043 67.721 18.2403C67.9391 18.6764 68.0118 19.1124 68.0118 19.6938C68.0118 20.2026 67.9391 20.6386 67.721 21.0747C67.503 21.438 67.285 21.8014 66.9216 22.0195C66.5582 22.3102 66.1949 22.4555 65.7588 22.6009C65.3227 22.7462 64.8867 22.8189 64.378 22.8189H62.125V16.4961H62.1977ZM63.5785 21.5107H64.3053C64.596 21.5107 64.9594 21.5107 65.1774 21.438C65.4681 21.3654 65.6861 21.2927 65.9041 21.1473C66.1222 21.002 66.2675 20.784 66.4129 20.5659C66.5582 20.3479 66.5582 19.9845 66.5582 19.6938C66.5582 19.4031 66.4856 19.1124 66.4129 18.8944C66.2675 18.6764 66.1222 18.4583 65.9768 18.313C65.7588 18.1676 65.5408 18.0223 65.2501 17.9496C64.9594 17.8769 64.7413 17.8043 64.4506 17.8043H63.6512V21.5107H63.5785Z" fill="white"/>
<path d="M72.8814 22.0166C72.6634 22.3073 72.3727 22.5253 72.082 22.6707C71.7186 22.816 71.4279 22.8887 71.0645 22.8887C70.7011 22.8887 70.4106 22.816 70.1199 22.7434C69.8292 22.6707 69.5383 22.4527 69.3203 22.3073C69.1023 22.0893 68.9569 21.8713 68.8116 21.5805C68.6662 21.2898 68.5938 20.9991 68.5938 20.6358C68.5938 20.2724 68.6662 19.9817 68.8116 19.691C68.9569 19.4003 69.1023 19.1822 69.3203 18.9642C69.5383 18.7462 69.8292 18.6008 70.1199 18.5282C70.4106 18.4555 70.7011 18.3828 71.0645 18.3828C71.3552 18.3828 71.6459 18.4555 71.9366 18.5282C72.1547 18.6008 72.3727 18.8189 72.5907 18.9642C72.7361 19.1822 72.8814 19.4003 73.0268 19.691C73.0994 19.9817 73.1721 20.2724 73.1721 20.6358V21.0718H70.0471C70.1197 21.3625 70.1924 21.5079 70.4104 21.6532C70.5558 21.7986 70.7738 21.8713 71.0645 21.8713C71.2825 21.8713 71.5007 21.7986 71.646 21.7259C71.7914 21.6532 71.9366 21.5079 72.0093 21.3625L72.8814 22.0166ZM71.7913 20.127C71.7913 19.909 71.7186 19.691 71.5733 19.5456C71.4279 19.4003 71.2099 19.3276 70.9918 19.3276C70.8465 19.3276 70.7011 19.3276 70.6285 19.4003C70.4831 19.4729 70.4104 19.4729 70.3378 19.6183C70.2651 19.691 70.1926 19.7637 70.1199 19.909C70.0473 19.9817 70.0471 20.127 70.0471 20.1997H71.7913V20.127Z" fill="white"/>
<path d="M76.3734 19.7706C76.1554 19.5526 75.9374 19.4073 75.574 19.4073C75.4286 19.4073 75.356 19.4073 75.2106 19.4799C75.1379 19.5526 75.0653 19.6253 75.0653 19.7706C75.0653 19.8433 75.1379 19.9887 75.2106 19.9887C75.356 20.0613 75.4286 20.0613 75.6467 20.134C75.792 20.2067 76.01 20.2067 76.2281 20.2794C76.4461 20.3521 76.5915 20.4247 76.7368 20.4974C76.8822 20.5701 77.0275 20.7154 77.1729 20.8608C77.3182 21.0061 77.3182 21.2242 77.3182 21.5149C77.3182 21.8056 77.2455 22.0236 77.1002 22.2416C76.9548 22.4596 76.8095 22.605 76.6641 22.6777C76.4461 22.823 76.2281 22.8957 76.01 22.8957C75.792 22.9684 75.5013 22.9684 75.2833 22.9684C74.9926 22.9684 74.7019 22.8957 74.3385 22.823C74.0478 22.7504 73.7571 22.605 73.5391 22.387L74.3385 21.5149C74.4839 21.6602 74.6292 21.8056 74.7746 21.8782C74.9199 21.9509 75.1379 22.0236 75.2833 22.0236C75.4286 22.0236 75.574 22.0236 75.7193 21.9509C75.8647 21.8782 75.9374 21.8056 75.9374 21.7329C75.9374 21.5875 75.8647 21.5149 75.792 21.5149C75.6467 21.4422 75.574 21.4422 75.356 21.3695C75.2106 21.2968 74.9926 21.2968 74.7746 21.2242C74.5565 21.1515 74.4112 21.0788 74.2658 21.0061C74.1205 20.9335 73.9751 20.7881 73.8298 20.6428C73.6844 20.4974 73.6844 20.2794 73.6844 19.9887C73.6844 19.698 73.7571 19.4799 73.8298 19.3346C73.9024 19.1166 74.0478 18.9712 74.2658 18.8985C74.4112 18.7532 74.6292 18.6805 74.8472 18.6078C75.0653 18.5352 75.2833 18.5352 75.5013 18.5352C75.792 18.5352 76.0827 18.6078 76.3734 18.6805C76.6641 18.7532 76.8822 18.8985 77.1002 19.1166L76.3734 19.7706Z" fill="white"/>
<path d="M77.9766 17.0768C77.9766 16.8587 78.0492 16.7134 78.1946 16.4954C78.3399 16.35 78.558 16.2773 78.776 16.2773C78.994 16.2773 79.1394 16.35 79.3574 16.4954C79.5027 16.6407 79.5754 16.8587 79.5754 17.0768C79.5754 17.2948 79.5027 17.4402 79.3574 17.6582C79.212 17.8035 78.994 17.8762 78.776 17.8762C78.558 17.8762 78.4126 17.8035 78.1946 17.6582C78.0492 17.5128 77.9766 17.2948 77.9766 17.0768ZM78.0492 18.4576H79.3574V22.8182H78.0492V18.4576Z" fill="white"/>
<path d="M84.9451 22.4527C84.9451 23.2521 84.727 23.9062 84.291 24.3422C83.8549 24.7783 83.2735 24.9963 82.4014 24.9963C82.038 24.9963 81.602 24.9236 81.2386 24.851C80.8752 24.7783 80.5118 24.5603 80.2211 24.3422L80.9479 23.2521C81.1659 23.3974 81.3839 23.5428 81.602 23.6881C81.82 23.7608 82.1107 23.8335 82.3287 23.8335C82.7648 23.8335 83.0555 23.7608 83.2008 23.5428C83.4189 23.3248 83.4915 23.1067 83.4915 22.7434V22.3073C83.3462 22.5253 83.1282 22.6707 82.9101 22.7434C82.6921 22.816 82.4741 22.8887 82.256 22.8887C81.9653 22.8887 81.6746 22.816 81.3839 22.7434C81.0932 22.598 80.8752 22.4527 80.7299 22.3073C80.5118 22.0893 80.3665 21.8713 80.2938 21.5805C80.2211 21.2898 80.1484 20.9991 80.1484 20.7084C80.1484 20.4177 80.2211 20.127 80.2938 19.8363C80.3665 19.5456 80.5118 19.3276 80.6572 19.1096C80.8025 18.8915 81.0206 18.7462 81.3113 18.6008C81.5293 18.4555 81.82 18.3828 82.1107 18.3828C82.3287 18.3828 82.4741 18.3828 82.6194 18.4555C82.7648 18.5282 82.9101 18.5282 83.0555 18.6008C83.2008 18.6735 83.2735 18.7462 83.3462 18.8189C83.4189 18.8915 83.4915 18.9642 83.5642 19.0369V18.4555H84.7997V22.4527H84.9451ZM81.5293 20.5631C81.5293 20.7084 81.5293 20.8538 81.602 20.9991C81.6746 21.1445 81.7473 21.2172 81.82 21.3625C81.8927 21.4352 82.038 21.5079 82.1834 21.5805C82.3287 21.6532 82.4741 21.6532 82.6194 21.6532C82.7648 21.6532 82.9101 21.6532 83.0555 21.5805C83.2008 21.5079 83.2735 21.4352 83.4189 21.3625C83.4915 21.2898 83.5642 21.1445 83.6369 20.9991C83.7096 20.8538 83.7096 20.7084 83.7096 20.5631C83.7096 20.4177 83.7096 20.2724 83.6369 20.127C83.5642 19.9817 83.4915 19.909 83.4189 19.7637C83.3462 19.691 83.2008 19.6183 83.0555 19.5456C82.9101 19.4729 82.7648 19.4729 82.6194 19.4729C82.4741 19.4729 82.3287 19.4729 82.1834 19.5456C82.038 19.6183 81.9653 19.691 81.82 19.7637C81.7473 19.8363 81.6746 19.9817 81.602 20.127C81.602 20.3451 81.5293 20.4904 81.5293 20.5631Z" fill="white"/>
<path d="M85.9688 18.4555H87.2767V19.0369C87.3494 18.9642 87.3494 18.8915 87.4221 18.8189C87.4947 18.7462 87.5674 18.6735 87.7128 18.6008C87.7854 18.5282 87.9308 18.4555 88.0761 18.4555C88.2215 18.3828 88.3669 18.3828 88.5122 18.3828C88.8756 18.3828 89.0936 18.4555 89.3116 18.5282C89.5297 18.6008 89.675 18.7462 89.8204 18.9642C89.9657 19.1822 90.0384 19.4003 90.0384 19.6183C90.1111 19.8363 90.1111 20.127 90.1111 20.4177V22.816H88.8029V20.7084C88.8029 20.5631 88.8029 20.4904 88.8029 20.3451C88.8029 20.1997 88.8029 20.0544 88.7302 19.9817C88.6576 19.8363 88.5849 19.7637 88.5122 19.691C88.4395 19.6183 88.2942 19.6183 88.1488 19.6183C88.0035 19.6183 87.8581 19.6183 87.7128 19.691C87.6401 19.7637 87.4949 19.8363 87.4949 19.909C87.4223 19.9817 87.4221 20.127 87.3494 20.2724C87.3494 20.4177 87.3494 20.5631 87.3494 20.7084V22.8887H86.0412V18.4555H85.9688Z" fill="white"/>
<path d="M100.717 18.0973C100.571 17.952 100.426 17.8066 100.208 17.7339C99.9901 17.6613 99.7721 17.5886 99.4813 17.5886C99.1906 17.5886 98.9726 17.6613 98.7546 17.7339C98.5366 17.8066 98.3185 17.952 98.1732 18.17C98.0278 18.388 97.8825 18.5334 97.8098 18.8241C97.7371 19.0421 97.6645 19.3328 97.6645 19.6235C97.6645 19.9142 97.7371 20.2049 97.8098 20.4229C97.8825 20.641 98.0278 20.859 98.1732 21.077C98.3185 21.2951 98.5366 21.3677 98.7546 21.5131C98.9726 21.5858 99.1906 21.6584 99.4813 21.6584C99.7721 21.6584 99.9901 21.5858 100.208 21.5131C100.426 21.3677 100.644 21.2224 100.717 21.0044L101.88 21.8765C101.589 22.2398 101.298 22.5305 100.862 22.6759C100.426 22.8213 100.063 22.9666 99.6267 22.9666C99.118 22.9666 98.6819 22.8939 98.2459 22.7486C97.8098 22.6032 97.4464 22.3852 97.1557 22.0945C96.865 21.8038 96.647 21.4404 96.429 21.077C96.2836 20.641 96.2109 20.2049 96.2109 19.6962C96.2109 19.1875 96.2836 18.7514 96.429 18.3154C96.5743 17.8793 96.865 17.5886 97.1557 17.2979C97.4464 17.0072 97.8098 16.7892 98.2459 16.6438C98.6819 16.4985 99.118 16.4258 99.6267 16.4258C99.772 16.4258 99.9901 16.4258 100.208 16.4985C100.426 16.4985 100.571 16.5711 100.79 16.6438C101.008 16.7165 101.153 16.7892 101.298 16.9345C101.444 17.0799 101.589 17.2252 101.734 17.3706L100.717 18.0973Z" fill="white"/>
<path d="M102.539 18.4555H103.847V19.1822C103.993 18.8915 104.138 18.7462 104.356 18.6008C104.574 18.4555 104.792 18.3828 105.083 18.3828C105.155 18.3828 105.228 18.3828 105.301 18.3828C105.373 18.3828 105.446 18.3828 105.519 18.3828V19.6183C105.446 19.6183 105.301 19.5456 105.228 19.5456C105.155 19.5456 105.01 19.5456 104.937 19.5456C104.647 19.5456 104.501 19.5456 104.356 19.6183C104.211 19.691 104.065 19.7637 103.993 19.909C103.92 20.0544 103.847 20.1997 103.847 20.3451C103.847 20.4904 103.847 20.7084 103.847 20.9265V22.7434H102.539V18.4555Z" fill="white"/>
<path d="M110.093 22.0166C109.875 22.3073 109.584 22.5253 109.293 22.6707C108.93 22.816 108.639 22.8887 108.276 22.8887C107.912 22.8887 107.622 22.816 107.331 22.7434C107.04 22.6707 106.749 22.4527 106.531 22.3073C106.313 22.0893 106.168 21.8713 106.023 21.5805C105.877 21.2898 105.805 20.9991 105.805 20.6358C105.805 20.2724 105.877 19.9817 106.023 19.691C106.168 19.4003 106.313 19.1822 106.531 18.9642C106.749 18.7462 107.04 18.6008 107.331 18.5282C107.622 18.4555 107.912 18.3828 108.276 18.3828C108.566 18.3828 108.857 18.4555 109.148 18.5282C109.366 18.6008 109.584 18.8189 109.802 18.9642C109.947 19.1822 110.093 19.4003 110.238 19.691C110.311 19.9817 110.383 20.2724 110.383 20.6358V21.0718H107.258C107.331 21.3625 107.404 21.5079 107.622 21.6532C107.767 21.7986 107.985 21.8713 108.276 21.8713C108.494 21.8713 108.712 21.7986 108.857 21.7259C109.002 21.6532 109.148 21.5079 109.22 21.3625L110.093 22.0166ZM108.93 20.127C108.93 19.909 108.857 19.691 108.712 19.5456C108.566 19.4003 108.348 19.3276 108.13 19.3276C107.985 19.3276 107.84 19.3276 107.767 19.4003C107.622 19.4729 107.549 19.4729 107.476 19.6183C107.404 19.691 107.331 19.7637 107.258 19.909C107.186 19.9817 107.186 20.127 107.186 20.1997H108.93V20.127Z" fill="white"/>
<path d="M113.8 22.237C113.655 22.455 113.437 22.6004 113.219 22.7457C113.001 22.8184 112.71 22.8911 112.419 22.8911C112.201 22.8911 112.056 22.8911 111.838 22.8184C111.62 22.7457 111.474 22.673 111.329 22.6004C111.184 22.455 111.038 22.3823 110.966 22.1643C110.893 22.019 110.82 21.8009 110.82 21.5829C110.82 21.3649 110.893 21.1469 110.966 20.9288C111.038 20.7835 111.184 20.6381 111.329 20.4928C111.474 20.3474 111.692 20.2747 111.838 20.2021C112.056 20.1294 112.274 20.1294 112.492 20.0567C112.71 20.0567 112.928 19.984 113.146 19.984C113.364 19.984 113.582 19.984 113.727 19.984C113.727 19.766 113.655 19.548 113.509 19.4026C113.364 19.2573 113.146 19.1846 112.928 19.1846C112.71 19.1846 112.492 19.2573 112.347 19.33C112.128 19.4026 111.983 19.548 111.838 19.6933L111.111 18.9666C111.329 18.7486 111.62 18.5305 111.983 18.4579C112.347 18.3125 112.637 18.3125 113.001 18.3125C113.364 18.3125 113.727 18.3852 113.945 18.4579C114.163 18.5305 114.381 18.6759 114.527 18.8939C114.672 19.1119 114.817 19.33 114.817 19.6207C114.89 19.9114 114.89 20.2021 114.89 20.5654V22.7457H113.655V22.237H113.8ZM113.509 20.9288C113.437 20.9288 113.291 20.9288 113.146 20.9288C113.001 20.9288 112.855 20.9288 112.71 21.0015C112.565 21.0742 112.419 21.0742 112.347 21.2195C112.274 21.2922 112.201 21.4376 112.201 21.5829C112.201 21.7283 112.274 21.8736 112.419 21.9463C112.565 22.019 112.71 22.0916 112.855 22.0916C113.001 22.0916 113.146 22.0916 113.219 22.019C113.364 22.019 113.437 21.9463 113.509 21.8736C113.582 21.8009 113.655 21.7283 113.727 21.6556C113.8 21.5829 113.8 21.4376 113.8 21.2922V21.0015H113.509V20.9288Z" fill="white"/>
<path d="M118.814 19.5491H117.651V21.0026C117.651 21.148 117.651 21.2206 117.651 21.2933C117.651 21.366 117.724 21.5113 117.724 21.5113C117.797 21.584 117.797 21.6567 117.942 21.6567C118.015 21.7294 118.16 21.7294 118.305 21.7294C118.378 21.7294 118.451 21.7294 118.596 21.7294C118.741 21.7294 118.814 21.6567 118.887 21.6567V22.7468C118.741 22.8195 118.596 22.8195 118.451 22.8195C118.305 22.8195 118.16 22.8195 117.942 22.8195C117.724 22.8195 117.506 22.8195 117.288 22.7468C117.07 22.6742 116.925 22.6015 116.779 22.5288C116.634 22.4561 116.488 22.3108 116.416 22.0928C116.343 21.9474 116.27 21.7294 116.27 21.5113V19.4764H115.398V18.3863H116.27V17.0781H117.579V18.3863H118.741V19.5491H118.814Z" fill="white"/>
<path d="M119.398 17.0768C119.398 16.8587 119.47 16.7134 119.616 16.4954C119.761 16.35 119.979 16.2773 120.197 16.2773C120.415 16.2773 120.56 16.35 120.778 16.4954C120.924 16.6407 120.996 16.8587 120.996 17.0768C120.996 17.2948 120.924 17.4402 120.778 17.6582C120.633 17.8035 120.415 17.8762 120.197 17.8762C119.979 17.8762 119.834 17.8035 119.616 17.6582C119.543 17.5128 119.398 17.2948 119.398 17.0768ZM119.543 18.4576H120.851V22.8182H119.543V18.4576Z" fill="white"/>
<path d="M121.359 18.4609H122.813L123.903 21.4406L124.92 18.4609H126.301L124.557 22.8215H123.104L121.359 18.4609Z" fill="white"/>
<path d="M130.882 22.0166C130.664 22.3073 130.373 22.5253 130.082 22.6707C129.719 22.816 129.428 22.8887 129.065 22.8887C128.701 22.8887 128.411 22.816 128.12 22.7434C127.829 22.6707 127.539 22.4527 127.321 22.3073C127.102 22.0893 126.957 21.8713 126.812 21.5805C126.666 21.2898 126.594 20.9991 126.594 20.6358C126.594 20.2724 126.666 19.9817 126.812 19.691C126.957 19.4003 127.102 19.1822 127.321 18.9642C127.539 18.7462 127.829 18.6008 128.12 18.5282C128.411 18.4555 128.701 18.3828 129.065 18.3828C129.355 18.3828 129.646 18.4555 129.937 18.5282C130.155 18.6008 130.373 18.8189 130.591 18.9642C130.736 19.1822 130.882 19.4003 131.027 19.691C131.1 19.9817 131.172 20.2724 131.172 20.6358V21.0718H128.047C128.12 21.3625 128.193 21.5079 128.411 21.6532C128.556 21.7986 128.774 21.8713 129.065 21.8713C129.283 21.8713 129.501 21.7986 129.646 21.7259C129.791 21.6532 129.937 21.5079 130.01 21.3625L130.882 22.0166ZM129.791 20.127C129.791 19.909 129.719 19.691 129.573 19.5456C129.428 19.4003 129.21 19.3276 128.992 19.3276C128.847 19.3276 128.701 19.3276 128.629 19.4003C128.483 19.4729 128.411 19.4729 128.338 19.6183C128.265 19.691 128.193 19.7637 128.12 19.909C128.047 19.9817 128.047 20.127 128.047 20.1997H129.791V20.127Z" fill="white"/>
<path d="M95.63 22.0195H91.6328V22.7463H95.63V22.0195Z" fill="white"/>
</g>
</g>
<defs>
<clipPath id="clip0_4197_102">
<rect width="132" height="50" fill="white"/>
</clipPath>
</defs>
</svg>
