<svg width="1271" height="569" viewBox="0 0 1271 569" fill="none" xmlns="http://www.w3.org/2000/svg">
<rect x="1133" y="454.258" width="138" height="48" rx="24" fill="white" fill-opacity="0.15"/>
<path d="M1160.3 486.426C1159.18 486.426 1158.17 486.234 1157.27 485.85C1156.38 485.45 1155.67 484.89 1155.16 484.17C1154.65 483.45 1154.39 482.61 1154.39 481.65H1157.32C1157.38 482.37 1157.66 482.962 1158.16 483.426C1158.67 483.89 1159.38 484.122 1160.3 484.122C1161.24 484.122 1161.98 483.898 1162.5 483.45C1163.03 482.986 1163.3 482.394 1163.3 481.674C1163.3 481.114 1163.13 480.658 1162.79 480.306C1162.47 479.954 1162.06 479.682 1161.57 479.49C1161.09 479.298 1160.42 479.09 1159.55 478.866C1158.46 478.578 1157.58 478.29 1156.89 478.002C1156.22 477.698 1155.64 477.234 1155.16 476.61C1154.68 475.986 1154.44 475.154 1154.44 474.114C1154.44 473.154 1154.68 472.314 1155.16 471.594C1155.64 470.874 1156.31 470.322 1157.18 469.938C1158.04 469.554 1159.04 469.362 1160.18 469.362C1161.79 469.362 1163.11 469.77 1164.14 470.586C1165.18 471.386 1165.75 472.49 1165.86 473.898H1162.84C1162.79 473.29 1162.5 472.77 1161.98 472.338C1161.45 471.906 1160.75 471.69 1159.89 471.69C1159.1 471.69 1158.46 471.89 1157.97 472.29C1157.47 472.69 1157.22 473.266 1157.22 474.018C1157.22 474.53 1157.38 474.954 1157.68 475.29C1158 475.61 1158.4 475.866 1158.88 476.058C1159.36 476.25 1160.02 476.458 1160.85 476.682C1161.95 476.986 1162.85 477.29 1163.54 477.594C1164.24 477.898 1164.83 478.37 1165.31 479.01C1165.81 479.634 1166.06 480.474 1166.06 481.53C1166.06 482.378 1165.82 483.178 1165.36 483.93C1164.91 484.682 1164.25 485.29 1163.37 485.754C1162.5 486.202 1161.48 486.426 1160.3 486.426ZM1175.02 486.474C1173.77 486.474 1172.64 486.194 1171.64 485.634C1170.63 485.058 1169.84 484.258 1169.26 483.234C1168.68 482.194 1168.4 480.994 1168.4 479.634C1168.4 478.29 1168.69 477.098 1169.28 476.058C1169.88 475.018 1170.68 474.218 1171.71 473.658C1172.73 473.098 1173.88 472.818 1175.14 472.818C1176.4 472.818 1177.55 473.098 1178.57 473.658C1179.6 474.218 1180.4 475.018 1181 476.058C1181.59 477.098 1181.88 478.29 1181.88 479.634C1181.88 480.978 1181.58 482.17 1180.97 483.21C1180.36 484.25 1179.53 485.058 1178.48 485.634C1177.44 486.194 1176.28 486.474 1175.02 486.474ZM1175.02 484.098C1175.72 484.098 1176.38 483.93 1176.99 483.594C1177.61 483.258 1178.12 482.754 1178.5 482.082C1178.88 481.41 1179.08 480.594 1179.08 479.634C1179.08 478.674 1178.89 477.866 1178.52 477.21C1178.16 476.538 1177.67 476.034 1177.06 475.698C1176.45 475.362 1175.8 475.194 1175.09 475.194C1174.39 475.194 1173.73 475.362 1173.12 475.698C1172.53 476.034 1172.06 476.538 1171.71 477.21C1171.36 477.866 1171.18 478.674 1171.18 479.634C1171.18 481.058 1171.54 482.162 1172.26 482.946C1173 483.714 1173.92 484.098 1175.02 484.098ZM1187.33 468.498V486.258H1184.59V468.498H1187.33ZM1202.89 473.034V486.258H1200.16V484.698C1199.73 485.242 1199.16 485.674 1198.45 485.994C1197.77 486.298 1197.03 486.45 1196.25 486.45C1195.21 486.45 1194.27 486.234 1193.44 485.802C1192.62 485.37 1191.97 484.73 1191.49 483.882C1191.03 483.034 1190.8 482.01 1190.8 480.81V473.034H1193.51V480.402C1193.51 481.586 1193.81 482.498 1194.4 483.138C1194.99 483.762 1195.8 484.074 1196.82 484.074C1197.85 484.074 1198.65 483.762 1199.25 483.138C1199.85 482.498 1200.16 481.586 1200.16 480.402V473.034H1202.89ZM1209.7 475.266V482.586C1209.7 483.082 1209.81 483.442 1210.03 483.666C1210.27 483.874 1210.67 483.978 1211.23 483.978H1212.91V486.258H1210.75C1209.52 486.258 1208.58 485.97 1207.92 485.394C1207.26 484.818 1206.94 483.882 1206.94 482.586V475.266H1205.38V473.034H1206.94V469.746H1209.7V473.034H1212.91V475.266H1209.7ZM1216.82 471.282C1216.33 471.282 1215.91 471.114 1215.58 470.778C1215.24 470.442 1215.07 470.026 1215.07 469.53C1215.07 469.034 1215.24 468.618 1215.58 468.282C1215.91 467.946 1216.33 467.778 1216.82 467.778C1217.3 467.778 1217.71 467.946 1218.05 468.282C1218.38 468.618 1218.55 469.034 1218.55 469.53C1218.55 470.026 1218.38 470.442 1218.05 470.778C1217.71 471.114 1217.3 471.282 1216.82 471.282ZM1218.17 473.034V486.258H1215.43V473.034H1218.17ZM1227.5 486.474C1226.25 486.474 1225.12 486.194 1224.11 485.634C1223.1 485.058 1222.31 484.258 1221.74 483.234C1221.16 482.194 1220.87 480.994 1220.87 479.634C1220.87 478.29 1221.17 477.098 1221.76 476.058C1222.35 475.018 1223.16 474.218 1224.18 473.658C1225.21 473.098 1226.35 472.818 1227.62 472.818C1228.88 472.818 1230.02 473.098 1231.05 473.658C1232.07 474.218 1232.88 475.018 1233.47 476.058C1234.06 477.098 1234.36 478.29 1234.36 479.634C1234.36 480.978 1234.06 482.17 1233.45 483.21C1232.84 484.25 1232.01 485.058 1230.95 485.634C1229.91 486.194 1228.76 486.474 1227.5 486.474ZM1227.5 484.098C1228.2 484.098 1228.86 483.93 1229.46 483.594C1230.09 483.258 1230.59 482.754 1230.98 482.082C1231.36 481.41 1231.55 480.594 1231.55 479.634C1231.55 478.674 1231.37 477.866 1231 477.21C1230.63 476.538 1230.14 476.034 1229.54 475.698C1228.93 475.362 1228.27 475.194 1227.57 475.194C1226.86 475.194 1226.21 475.362 1225.6 475.698C1225.01 476.034 1224.54 476.538 1224.18 477.21C1223.83 477.866 1223.66 478.674 1223.66 479.634C1223.66 481.058 1224.02 482.162 1224.74 482.946C1225.47 483.714 1226.39 484.098 1227.5 484.098ZM1243.74 472.818C1244.78 472.818 1245.71 473.034 1246.52 473.466C1247.35 473.898 1248 474.538 1248.47 475.386C1248.93 476.234 1249.16 477.258 1249.16 478.458V486.258H1246.45V478.866C1246.45 477.682 1246.15 476.778 1245.56 476.154C1244.97 475.514 1244.16 475.194 1243.14 475.194C1242.11 475.194 1241.3 475.514 1240.69 476.154C1240.1 476.778 1239.8 477.682 1239.8 478.866V486.258H1237.07V473.034H1239.8V474.546C1240.25 474.002 1240.82 473.578 1241.51 473.274C1242.21 472.97 1242.95 472.818 1243.74 472.818Z" fill="white"/>
<rect x="572" y="61.2578" width="122" height="48" rx="24" fill="white" fill-opacity="0.15"/>
<path d="M596.614 76.5778V93.2578H593.878V76.5778H596.614ZM606.878 79.8178C607.918 79.8178 608.846 80.0338 609.662 80.4658C610.494 80.8978 611.142 81.5378 611.606 82.3858C612.07 83.2338 612.302 84.2578 612.302 85.4578V93.2578H609.59V85.8658C609.59 84.6818 609.294 83.7778 608.702 83.1538C608.11 82.5138 607.302 82.1938 606.278 82.1938C605.254 82.1938 604.438 82.5138 603.83 83.1538C603.238 83.7778 602.942 84.6818 602.942 85.8658V93.2578H600.206V80.0338H602.942V81.5458C603.39 81.0018 603.958 80.5778 604.646 80.2738C605.35 79.9698 606.094 79.8178 606.878 79.8178ZM620.592 93.4738C619.552 93.4738 618.616 93.2898 617.784 92.9218C616.968 92.5378 616.32 92.0258 615.84 91.3858C615.36 90.7298 615.104 90.0018 615.072 89.2018H617.904C617.952 89.7618 618.216 90.2338 618.696 90.6178C619.192 90.9858 619.808 91.1698 620.544 91.1698C621.312 91.1698 621.904 91.0258 622.32 90.7378C622.752 90.4338 622.968 90.0498 622.968 89.5858C622.968 89.0898 622.728 88.7218 622.248 88.4818C621.784 88.2418 621.04 87.9778 620.016 87.6898C619.024 87.4178 618.216 87.1538 617.592 86.8978C616.968 86.6418 616.424 86.2498 615.96 85.7218C615.512 85.1938 615.288 84.4978 615.288 83.6338C615.288 82.9298 615.496 82.2898 615.912 81.7138C616.328 81.1218 616.92 80.6578 617.688 80.3218C618.472 79.9858 619.368 79.8178 620.376 79.8178C621.88 79.8178 623.088 80.2018 624 80.9698C624.928 81.7218 625.424 82.7538 625.488 84.0658H622.752C622.704 83.4738 622.464 83.0018 622.032 82.6498C621.6 82.2978 621.016 82.1218 620.28 82.1218C619.56 82.1218 619.008 82.2578 618.624 82.5298C618.24 82.8018 618.048 83.1618 618.048 83.6098C618.048 83.9618 618.176 84.2578 618.432 84.4978C618.688 84.7378 619 84.9298 619.368 85.0738C619.736 85.2018 620.28 85.3698 621 85.5778C621.96 85.8338 622.744 86.0978 623.352 86.3698C623.976 86.6258 624.512 87.0098 624.96 87.5218C625.408 88.0338 625.64 88.7138 625.656 89.5618C625.656 90.3138 625.448 90.9858 625.032 91.5778C624.616 92.1698 624.024 92.6338 623.256 92.9698C622.504 93.3058 621.616 93.4738 620.592 93.4738ZM630.005 78.2818C629.509 78.2818 629.093 78.1138 628.757 77.7778C628.421 77.4418 628.253 77.0258 628.253 76.5298C628.253 76.0338 628.421 75.6178 628.757 75.2818C629.093 74.9458 629.509 74.7778 630.005 74.7778C630.485 74.7778 630.893 74.9458 631.229 75.2818C631.565 75.6178 631.733 76.0338 631.733 76.5298C631.733 77.0258 631.565 77.4418 631.229 77.7778C630.893 78.1138 630.485 78.2818 630.005 78.2818ZM631.349 80.0338V93.2578H628.613V80.0338H631.349ZM640.269 79.8178C641.293 79.8178 642.197 80.0258 642.981 80.4418C643.781 80.8418 644.405 81.3458 644.853 81.9538V80.0338H647.613V93.4738C647.613 94.6898 647.357 95.7698 646.845 96.7138C646.333 97.6738 645.589 98.4258 644.613 98.9698C643.653 99.5138 642.501 99.7858 641.157 99.7858C639.365 99.7858 637.877 99.3618 636.693 98.5138C635.509 97.6818 634.837 96.5458 634.677 95.1058H637.389C637.597 95.7938 638.037 96.3458 638.709 96.7618C639.397 97.1938 640.213 97.4098 641.157 97.4098C642.261 97.4098 643.149 97.0738 643.821 96.4018C644.509 95.7298 644.853 94.7538 644.853 93.4738V91.2658C644.389 91.8898 643.757 92.4178 642.957 92.8498C642.173 93.2658 641.277 93.4738 640.269 93.4738C639.117 93.4738 638.061 93.1858 637.101 92.6098C636.157 92.0178 635.405 91.2018 634.845 90.1618C634.301 89.1058 634.029 87.9138 634.029 86.5858C634.029 85.2578 634.301 84.0818 634.845 83.0578C635.405 82.0338 636.157 81.2418 637.101 80.6818C638.061 80.1058 639.117 79.8178 640.269 79.8178ZM644.853 86.6338C644.853 85.7218 644.661 84.9298 644.277 84.2578C643.909 83.5858 643.421 83.0738 642.813 82.7218C642.205 82.3698 641.549 82.1938 640.845 82.1938C640.141 82.1938 639.485 82.3698 638.877 82.7218C638.269 83.0578 637.773 83.5618 637.389 84.2338C637.021 84.8898 636.837 85.6738 636.837 86.5858C636.837 87.4978 637.021 88.2978 637.389 88.9858C637.773 89.6738 638.269 90.2018 638.877 90.5698C639.501 90.9218 640.157 91.0978 640.845 91.0978C641.549 91.0978 642.205 90.9218 642.813 90.5698C643.421 90.2178 643.909 89.7058 644.277 89.0338C644.661 88.3458 644.853 87.5458 644.853 86.6338ZM658.046 79.8178C659.054 79.8178 659.95 80.0338 660.734 80.4658C661.534 80.8978 662.158 81.5378 662.606 82.3858C663.07 83.2338 663.302 84.2578 663.302 85.4578V93.2578H660.59V85.8658C660.59 84.6818 660.294 83.7778 659.702 83.1538C659.11 82.5138 658.302 82.1938 657.278 82.1938C656.254 82.1938 655.438 82.5138 654.83 83.1538C654.238 83.7778 653.942 84.6818 653.942 85.8658V93.2578H651.206V75.4978H653.942V81.5698C654.406 81.0098 654.99 80.5778 655.694 80.2738C656.414 79.9698 657.198 79.8178 658.046 79.8178ZM669.984 82.2658V89.5858C669.984 90.0818 670.096 90.4418 670.32 90.6658C670.56 90.8738 670.96 90.9778 671.52 90.9778H673.2V93.2578H671.04C669.808 93.2578 668.864 92.9698 668.208 92.3938C667.552 91.8178 667.224 90.8818 667.224 89.5858V82.2658H665.664V80.0338H667.224V76.7458H669.984V80.0338H673.2V82.2658H669.984Z" fill="white"/>
<rect y="454.258" width="142" height="48" rx="24" fill="white" fill-opacity="0.15"/>
<path d="M33.464 474.546C33.464 475.394 33.264 476.194 32.864 476.946C32.464 477.698 31.824 478.314 30.944 478.794C30.064 479.258 28.936 479.49 27.56 479.49H24.536V486.258H21.8V469.578H27.56C28.84 469.578 29.92 469.802 30.8 470.25C31.696 470.682 32.36 471.274 32.792 472.026C33.24 472.778 33.464 473.618 33.464 474.546ZM27.56 477.258C28.6 477.258 29.376 477.026 29.888 476.562C30.4 476.082 30.656 475.41 30.656 474.546C30.656 472.722 29.624 471.81 27.56 471.81H24.536V477.258H27.56ZM38.8094 474.954C39.2094 474.282 39.7374 473.762 40.3934 473.394C41.0654 473.01 41.8574 472.818 42.7694 472.818V475.65H42.0734C41.0014 475.65 40.1854 475.922 39.6254 476.466C39.0814 477.01 38.8094 477.954 38.8094 479.298V486.258H36.0734V473.034H38.8094V474.954ZM51.0204 486.474C49.7724 486.474 48.6444 486.194 47.6364 485.634C46.6284 485.058 45.8364 484.258 45.2604 483.234C44.6844 482.194 44.3964 480.994 44.3964 479.634C44.3964 478.29 44.6924 477.098 45.2844 476.058C45.8764 475.018 46.6844 474.218 47.7084 473.658C48.7324 473.098 49.8764 472.818 51.1404 472.818C52.4044 472.818 53.5484 473.098 54.5724 473.658C55.5964 474.218 56.4044 475.018 56.9964 476.058C57.5884 477.098 57.8844 478.29 57.8844 479.634C57.8844 480.978 57.5804 482.17 56.9724 483.21C56.3644 484.25 55.5324 485.058 54.4764 485.634C53.4364 486.194 52.2844 486.474 51.0204 486.474ZM51.0204 484.098C51.7244 484.098 52.3804 483.93 52.9884 483.594C53.6124 483.258 54.1164 482.754 54.5004 482.082C54.8844 481.41 55.0764 480.594 55.0764 479.634C55.0764 478.674 54.8924 477.866 54.5244 477.21C54.1564 476.538 53.6684 476.034 53.0604 475.698C52.4524 475.362 51.7964 475.194 51.0924 475.194C50.3884 475.194 49.7324 475.362 49.1244 475.698C48.5324 476.034 48.0604 476.538 47.7084 477.21C47.3564 477.866 47.1804 478.674 47.1804 479.634C47.1804 481.058 47.5404 482.162 48.2604 482.946C48.9964 483.714 49.9164 484.098 51.0204 484.098ZM63.3251 475.002C63.7891 474.362 64.4211 473.842 65.2211 473.442C66.0371 473.026 66.9411 472.818 67.9331 472.818C69.1011 472.818 70.1571 473.098 71.1011 473.658C72.0451 474.218 72.7891 475.018 73.3331 476.058C73.8771 477.082 74.1491 478.258 74.1491 479.586C74.1491 480.914 73.8771 482.106 73.3331 483.162C72.7891 484.202 72.0371 485.018 71.0771 485.61C70.1331 486.186 69.0851 486.474 67.9331 486.474C66.9091 486.474 65.9971 486.274 65.1971 485.874C64.4131 485.474 63.7891 484.962 63.3251 484.338V486.258H60.5891V468.498H63.3251V475.002ZM71.3651 479.586C71.3651 478.674 71.1731 477.89 70.7891 477.234C70.4211 476.562 69.9251 476.058 69.3011 475.722C68.6931 475.37 68.0371 475.194 67.3331 475.194C66.6451 475.194 65.9891 475.37 65.3651 475.722C64.7571 476.074 64.2611 476.586 63.8771 477.258C63.5091 477.93 63.3251 478.722 63.3251 479.634C63.3251 480.546 63.5091 481.346 63.8771 482.034C64.2611 482.706 64.7571 483.218 65.3651 483.57C65.9891 483.922 66.6451 484.098 67.3331 484.098C68.0371 484.098 68.6931 483.922 69.3011 483.57C69.9251 483.202 70.4211 482.674 70.7891 481.986C71.1731 481.298 71.3651 480.498 71.3651 479.586ZM79.5907 468.498V486.258H76.8547V468.498H79.5907ZM95.3028 479.322C95.3028 479.818 95.2708 480.266 95.2068 480.666H85.1028C85.1828 481.722 85.5748 482.57 86.2788 483.21C86.9828 483.85 87.8468 484.17 88.8708 484.17C90.3428 484.17 91.3828 483.554 91.9908 482.322H94.9428C94.5428 483.538 93.8148 484.538 92.7588 485.322C91.7188 486.09 90.4228 486.474 88.8708 486.474C87.6068 486.474 86.4708 486.194 85.4628 485.634C84.4708 485.058 83.6868 484.258 83.1108 483.234C82.5508 482.194 82.2708 480.994 82.2708 479.634C82.2708 478.274 82.5428 477.082 83.0868 476.058C83.6468 475.018 84.4228 474.218 85.4148 473.658C86.4228 473.098 87.5748 472.818 88.8708 472.818C90.1188 472.818 91.2308 473.09 92.2068 473.634C93.1828 474.178 93.9428 474.946 94.4868 475.938C95.0308 476.914 95.3028 478.042 95.3028 479.322ZM92.4468 478.458C92.4308 477.45 92.0708 476.642 91.3668 476.034C90.6628 475.426 89.7908 475.122 88.7508 475.122C87.8068 475.122 86.9988 475.426 86.3268 476.034C85.6548 476.626 85.2548 477.434 85.1268 478.458H92.4468ZM114.003 472.818C115.043 472.818 115.971 473.034 116.787 473.466C117.619 473.898 118.267 474.538 118.731 475.386C119.211 476.234 119.451 477.258 119.451 478.458V486.258H116.739V478.866C116.739 477.682 116.443 476.778 115.851 476.154C115.259 475.514 114.451 475.194 113.427 475.194C112.403 475.194 111.587 475.514 110.979 476.154C110.387 476.778 110.091 477.682 110.091 478.866V486.258H107.379V478.866C107.379 477.682 107.083 476.778 106.491 476.154C105.899 475.514 105.091 475.194 104.067 475.194C103.043 475.194 102.227 475.514 101.619 476.154C101.027 476.778 100.731 477.682 100.731 478.866V486.258H97.9953V473.034H100.731V474.546C101.179 474.002 101.747 473.578 102.435 473.274C103.123 472.97 103.859 472.818 104.643 472.818C105.699 472.818 106.643 473.042 107.475 473.49C108.307 473.938 108.947 474.586 109.395 475.434C109.795 474.634 110.419 474.002 111.267 473.538C112.115 473.058 113.027 472.818 114.003 472.818Z" fill="white"/>
<path d="M756.023 293.258C761.635 293.258 765.024 289.792 765.012 284.041C765.024 278.315 761.635 274.875 756.1 274.875H749.549V293.258H756.023ZM753.357 289.982V278.15H755.896C759.375 278.15 761.203 279.953 761.203 284.041C761.203 288.167 759.375 289.982 755.871 289.982H753.357ZM773.949 293.537C777.352 293.524 779.637 291.874 780.17 289.322H776.59C776.222 290.147 775.308 290.706 774.025 290.719C772.083 290.706 770.852 289.424 770.852 287.342H780.271V286.275C780.271 281.578 777.415 279.293 773.797 279.293C769.76 279.293 767.132 282.175 767.145 286.428C767.132 290.795 769.722 293.524 773.949 293.537ZM770.852 284.98C770.928 283.394 772.146 282.099 773.873 282.111C775.549 282.099 776.704 283.305 776.717 284.98H770.852ZM795.049 279.471H791.062L788.168 289.373H788.016L785.121 279.471H781.16L785.984 293.258H790.199L795.049 279.471ZM802.666 293.537C806.068 293.524 808.354 291.874 808.887 289.322H805.307C804.938 290.147 804.024 290.706 802.742 290.719C800.8 290.706 799.568 289.424 799.568 287.342H808.988V286.275C808.988 281.578 806.132 279.293 802.514 279.293C798.477 279.293 795.849 282.175 795.861 286.428C795.849 290.795 798.438 293.524 802.666 293.537ZM799.568 284.98C799.645 283.394 800.863 282.099 802.59 282.111C804.266 282.099 805.421 283.305 805.434 284.98H799.568ZM815.107 274.875H811.35V293.258H815.107V274.875ZM824.223 293.537C828.399 293.524 830.989 290.668 831.002 286.402C830.989 282.149 828.399 279.293 824.223 279.293C820.059 279.293 817.456 282.149 817.469 286.402C817.456 290.668 820.059 293.524 824.223 293.537ZM821.277 286.402C821.277 283.978 822.28 282.162 824.248 282.162C826.165 282.162 827.181 283.978 827.168 286.402C827.181 288.814 826.165 290.604 824.248 290.617C822.28 290.604 821.277 288.814 821.277 286.402ZM833.363 298.438H837.121V291.049H837.223C837.756 292.191 838.911 293.486 841.158 293.486C844.307 293.486 846.757 290.985 846.744 286.377C846.757 281.654 844.205 279.293 841.158 279.293C838.835 279.293 837.743 280.664 837.223 281.781H837.07V279.471H833.363V298.438ZM837.045 286.352C837.032 283.876 838.086 282.289 839.965 282.289C841.907 282.289 842.923 283.952 842.91 286.352C842.923 288.789 841.882 290.478 839.965 290.49C838.099 290.478 837.032 288.84 837.045 286.352ZM855.428 293.537C858.83 293.524 861.115 291.874 861.648 289.322H858.068C857.7 290.147 856.786 290.706 855.504 290.719C853.562 290.706 852.33 289.424 852.33 287.342H861.75V286.275C861.75 281.578 858.894 279.293 855.275 279.293C851.238 279.293 848.61 282.175 848.623 286.428C848.61 290.795 851.2 293.524 855.428 293.537ZM852.33 284.98C852.406 283.394 853.625 282.099 855.352 282.111C857.027 282.099 858.183 283.305 858.195 284.98H852.33Z" fill="white"/>
<path d="M779.453 325.945H778.344V337.258H779.453V325.945ZM785.016 337.43C786.57 337.438 787.266 336.461 787.609 335.727H787.719V337.258H788.766V325.945H787.688V330.352H787.609C787.273 329.625 786.602 328.656 785.031 328.648C782.945 328.656 781.508 330.406 781.516 333.039C781.508 335.68 782.938 337.438 785.016 337.43ZM782.594 333.023C782.586 331.094 783.484 329.617 785.156 329.617C786.797 329.617 787.719 331.016 787.719 333.023C787.719 335.031 786.781 336.469 785.156 336.477C783.5 336.469 782.586 334.961 782.594 333.023ZM794.719 337.43C796.43 337.438 797.633 336.508 798.016 335.336H796.875C796.57 335.875 795.883 336.477 794.719 336.477C793.031 336.477 791.938 335.258 791.891 333.336H798.188V332.836C798.18 329.953 796.406 328.656 794.562 328.648C792.352 328.656 790.82 330.492 790.828 333.07C790.82 335.648 792.32 337.438 794.719 337.43ZM791.898 332.414C791.992 330.891 793.047 329.609 794.578 329.617C796.062 329.609 797.094 330.828 797.094 332.414H791.898ZM799.625 334.883C799.617 336.516 800.875 337.453 802.422 337.445C803.844 337.453 804.688 336.672 805.031 335.945H805.094V337.258H806.156V331.523C806.156 329.195 804.359 328.656 803.094 328.648C801.328 328.656 800.039 329.539 799.859 330.883H800.969C801.172 330.109 801.922 329.594 803.031 329.602C804.367 329.594 805.102 330.289 805.094 331.43V332.227C804.688 332.242 803.32 332.336 802.75 332.367C801.016 332.508 799.617 333.156 799.625 334.883ZM800.688 334.93C800.688 333.953 801.406 333.375 802.906 333.273C803.328 333.25 804.672 333.148 805.094 333.109V334.023C805.102 335.375 804.133 336.492 802.578 336.492C801.492 336.492 800.688 335.93 800.688 334.93ZM811.875 328.773H810.094V326.742H809.016V328.773H807.75V329.68H809.016V335.258C809.016 336.664 810.133 337.383 811.234 337.383C811.594 337.383 811.859 337.352 812.031 337.336V336.336L811.328 336.367C810.688 336.359 810.086 336.062 810.094 334.992V329.68H811.875V328.773ZM813.797 337.258H814.859V328.773H813.797V337.258ZM813.562 326.586C813.562 327 813.914 327.328 814.344 327.32C814.766 327.328 815.117 327 815.125 326.586C815.117 326.172 814.766 325.844 814.344 325.836C813.914 325.844 813.562 326.172 813.562 326.586ZM820.5 337.43C822.719 337.438 824.258 335.648 824.25 333.055C824.258 330.445 822.719 328.656 820.5 328.648C818.273 328.656 816.727 330.445 816.734 333.055C816.727 335.648 818.273 337.438 820.5 337.43ZM817.797 333.055C817.797 331.195 818.758 329.609 820.5 329.617C822.234 329.609 823.188 331.188 823.188 333.055C823.188 334.914 822.234 336.477 820.5 336.477C818.75 336.477 817.797 334.914 817.797 333.055ZM827.188 331.992C827.18 330.523 828.133 329.625 829.453 329.633C830.734 329.625 831.547 330.484 831.547 331.852V337.258H832.609V331.773C832.609 329.75 831.453 328.664 829.734 328.664C828.484 328.664 827.641 329.234 827.234 330.117H827.141V328.773H826.109V337.258H827.188V331.992Z" fill="white"/>
<path d="M439.023 293.258C444.635 293.258 448.024 289.792 448.012 284.041C448.024 278.315 444.635 274.875 439.1 274.875H432.549V293.258H439.023ZM436.357 289.982V278.15H438.896C442.375 278.15 444.203 279.953 444.203 284.041C444.203 288.167 442.375 289.982 438.871 289.982H436.357ZM456.949 293.537C460.352 293.524 462.637 291.874 463.17 289.322H459.59C459.222 290.147 458.308 290.706 457.025 290.719C455.083 290.706 453.852 289.424 453.852 287.342H463.271V286.275C463.271 281.578 460.415 279.293 456.797 279.293C452.76 279.293 450.132 282.175 450.145 286.428C450.132 290.795 452.722 293.524 456.949 293.537ZM453.852 284.98C453.928 283.394 455.146 282.099 456.873 282.111C458.549 282.099 459.704 283.305 459.717 284.98H453.852ZM472.971 279.471H470.229V278.633C470.229 277.478 470.876 277.021 472.082 277.008C472.285 277.021 472.679 277.033 473.225 277.084V274.24C472.564 274.088 471.841 274.012 470.99 274.012C468.223 274.012 466.471 275.522 466.471 278.43V279.471H464.516V282.289H466.471V293.258H470.229V282.289H472.971V279.471ZM475.18 293.258H478.938V279.471H475.18V293.258ZM475.002 275.764C475.002 276.805 475.929 277.668 477.059 277.668C478.176 277.668 479.103 276.805 479.09 275.764C479.103 274.697 478.176 273.847 477.059 273.834C475.929 273.847 475.002 274.697 475.002 275.764ZM485.615 285.285C485.615 283.47 486.694 282.416 488.256 282.416C489.817 282.416 490.731 283.432 490.744 285.133V293.258H494.477V284.473C494.489 281.261 492.61 279.293 489.729 279.293C487.685 279.293 486.212 280.296 485.59 281.883H485.438V279.471H481.857V293.258H485.615V285.285ZM503.643 293.537C507.045 293.524 509.33 291.874 509.863 289.322H506.283C505.915 290.147 505.001 290.706 503.719 290.719C501.776 290.706 500.545 289.424 500.545 287.342H509.965V286.275C509.965 281.578 507.108 279.293 503.49 279.293C499.453 279.293 496.825 282.175 496.838 286.428C496.825 290.795 499.415 293.524 503.643 293.537ZM500.545 284.98C500.621 283.394 501.84 282.099 503.566 282.111C505.242 282.099 506.397 283.305 506.41 284.98H500.545Z" fill="white"/>
<path d="M443.469 337.258L444.656 333.898H449.359L450.547 337.258H451.719L447.609 325.945H446.406L442.297 337.258H443.469ZM445.008 332.914L446.969 327.383H447.047L449.008 332.914H445.008ZM454.234 331.992C454.227 330.523 455.18 329.625 456.5 329.633C457.781 329.625 458.594 330.484 458.594 331.852V337.258H459.656V331.773C459.656 329.75 458.5 328.664 456.781 328.664C455.531 328.664 454.688 329.234 454.281 330.117H454.188V328.773H453.156V337.258H454.234V331.992ZM461.531 334.883C461.523 336.516 462.781 337.453 464.328 337.445C465.75 337.453 466.594 336.672 466.938 335.945H467V337.258H468.062V331.523C468.062 329.195 466.266 328.656 465 328.648C463.234 328.656 461.945 329.539 461.766 330.883H462.875C463.078 330.109 463.828 329.594 464.938 329.602C466.273 329.594 467.008 330.289 467 331.43V332.227C466.594 332.242 465.227 332.336 464.656 332.367C462.922 332.508 461.523 333.156 461.531 334.883ZM462.594 334.93C462.594 333.953 463.312 333.375 464.812 333.273C465.234 333.25 466.578 333.148 467 333.109V334.023C467.008 335.375 466.039 336.492 464.484 336.492C463.398 336.492 462.594 335.93 462.594 334.93ZM471.438 325.945H470.359V337.258H471.438V325.945ZM474.391 340.445C475.547 340.438 476.328 339.828 476.797 338.57L480.375 328.773H479.234L476.75 335.883H476.672L474.203 328.773H473.047L476.172 337.336L475.875 338.164C475.422 339.406 474.875 339.477 474.328 339.477C474.156 339.477 473.914 339.469 473.812 339.461L473.797 340.414C473.938 340.43 474.164 340.438 474.391 340.445ZM486.703 330.883H487.766C487.57 329.562 486.508 328.656 484.844 328.648C483.062 328.648 481.852 329.664 481.844 331.07C481.852 332.195 482.602 332.984 484.031 333.32L485.328 333.633C486.328 333.867 486.789 334.336 486.797 335.008C486.789 335.914 485.961 336.492 484.688 336.492C483.531 336.492 482.844 336.023 482.672 335.102H481.562C481.781 336.602 482.891 337.438 484.703 337.43C486.703 337.438 487.883 336.391 487.875 334.945C487.883 333.805 487.164 333.047 485.734 332.695L484.438 332.383C483.406 332.125 482.914 331.672 482.922 331.023C482.914 330.203 483.711 329.578 484.844 329.586C485.891 329.586 486.516 330.086 486.703 330.883ZM489.766 337.258H490.828V328.773H489.766V337.258ZM489.531 326.586C489.531 327 489.883 327.328 490.312 327.32C490.734 327.328 491.086 327 491.094 326.586C491.086 326.172 490.734 325.844 490.312 325.836C489.883 325.844 489.531 326.172 489.531 326.586ZM497.844 330.883H498.906C498.711 329.562 497.648 328.656 495.984 328.648C494.203 328.648 492.992 329.664 492.984 331.07C492.992 332.195 493.742 332.984 495.172 333.32L496.469 333.633C497.469 333.867 497.93 334.336 497.938 335.008C497.93 335.914 497.102 336.492 495.828 336.492C494.672 336.492 493.984 336.023 493.812 335.102H492.703C492.922 336.602 494.031 337.438 495.844 337.43C497.844 337.438 499.023 336.391 499.016 334.945C499.023 333.805 498.305 333.047 496.875 332.695L495.578 332.383C494.547 332.125 494.055 331.672 494.062 331.023C494.055 330.203 494.852 329.578 495.984 329.586C497.031 329.586 497.656 330.086 497.844 330.883Z" fill="white"/>
<path d="M191.023 293.258C196.635 293.258 200.024 289.792 200.012 284.041C200.024 278.315 196.635 274.875 191.1 274.875H184.549V293.258H191.023ZM188.357 289.982V278.15H190.896C194.375 278.15 196.203 279.953 196.203 284.041C196.203 288.167 194.375 289.982 190.871 289.982H188.357ZM202.703 293.258H206.461V279.471H202.703V293.258ZM202.525 275.764C202.525 276.805 203.452 277.668 204.582 277.668C205.699 277.668 206.626 276.805 206.613 275.764C206.626 274.697 205.699 273.847 204.582 273.834C203.452 273.847 202.525 274.697 202.525 275.764ZM217.252 283.559H220.781C220.578 280.943 218.42 279.293 214.941 279.293C211.387 279.293 209.114 280.943 209.127 283.584C209.114 285.628 210.46 286.974 213.088 287.494L215.373 287.951C216.668 288.218 217.252 288.662 217.252 289.373C217.252 290.262 216.338 290.808 214.967 290.82C213.583 290.808 212.707 290.249 212.529 289.17H208.746C209.063 291.861 211.247 293.524 214.967 293.537C218.636 293.524 221.073 291.709 221.086 288.992C221.073 287.012 219.778 285.818 217.1 285.26L214.637 284.752C213.329 284.485 212.847 284.003 212.859 283.381C212.847 282.543 213.773 281.972 214.992 281.959C216.249 281.972 217.087 282.594 217.252 283.559ZM229.592 293.537C233.248 293.524 235.546 291.379 235.711 288.256H232.182C231.94 289.716 230.963 290.541 229.643 290.541C227.814 290.541 226.646 289.018 226.646 286.352C226.646 283.736 227.84 282.226 229.643 282.213C231.064 282.226 231.953 283.165 232.182 284.523H235.711C235.559 281.362 233.146 279.293 229.592 279.293C225.415 279.293 222.825 282.188 222.838 286.402C222.825 290.604 225.364 293.524 229.592 293.537ZM244.242 293.537C248.419 293.524 251.009 290.668 251.021 286.402C251.009 282.149 248.419 279.293 244.242 279.293C240.078 279.293 237.476 282.149 237.488 286.402C237.476 290.668 240.078 293.524 244.242 293.537ZM241.297 286.402C241.297 283.978 242.3 282.162 244.268 282.162C246.185 282.162 247.2 283.978 247.188 286.402C247.2 288.814 246.185 290.604 244.268 290.617C242.3 290.604 241.297 288.814 241.297 286.402ZM265.723 279.471H261.736L258.842 289.373H258.689L255.795 279.471H251.834L256.658 293.258H260.873L265.723 279.471ZM273.34 293.537C276.742 293.524 279.027 291.874 279.561 289.322H275.98C275.612 290.147 274.698 290.706 273.416 290.719C271.474 290.706 270.242 289.424 270.242 287.342H279.662V286.275C279.662 281.578 276.806 279.293 273.188 279.293C269.15 279.293 266.522 282.175 266.535 286.428C266.522 290.795 269.112 293.524 273.34 293.537ZM270.242 284.98C270.318 283.394 271.537 282.099 273.264 282.111C274.939 282.099 276.095 283.305 276.107 284.98H270.242ZM282.023 293.258H285.781V285.412C285.769 283.724 287.025 282.543 288.727 282.543C289.247 282.543 289.971 282.632 290.326 282.746V279.395C289.996 279.318 289.514 279.268 289.133 279.268C287.584 279.268 286.302 280.169 285.807 281.857H285.654V279.471H282.023V293.258Z" fill="white"/>
<path d="M205.344 337.258H206.453V332.727H209.062C209.195 332.727 209.328 332.719 209.453 332.711L211.906 337.258H213.188L210.594 332.5C212.008 332.031 212.727 330.867 212.719 329.352C212.727 327.359 211.484 325.945 209.047 325.945H205.344V337.258ZM206.453 331.711V326.945H209C210.781 326.938 211.625 327.898 211.625 329.352C211.625 330.805 210.781 331.711 209.016 331.711H206.453ZM218.109 337.43C219.82 337.438 221.023 336.508 221.406 335.336H220.266C219.961 335.875 219.273 336.477 218.109 336.477C216.422 336.477 215.328 335.258 215.281 333.336H221.578V332.836C221.57 329.953 219.797 328.656 217.953 328.648C215.742 328.656 214.211 330.492 214.219 333.07C214.211 335.648 215.711 337.438 218.109 337.43ZM215.289 332.414C215.383 330.891 216.438 329.609 217.969 329.617C219.453 329.609 220.484 330.828 220.484 332.414H215.289ZM228.141 330.883H229.203C229.008 329.562 227.945 328.656 226.281 328.648C224.5 328.648 223.289 329.664 223.281 331.07C223.289 332.195 224.039 332.984 225.469 333.32L226.766 333.633C227.766 333.867 228.227 334.336 228.234 335.008C228.227 335.914 227.398 336.492 226.125 336.492C224.969 336.492 224.281 336.023 224.109 335.102H223C223.219 336.602 224.328 337.438 226.141 337.43C228.141 337.438 229.32 336.391 229.312 334.945C229.32 333.805 228.602 333.047 227.172 332.695L225.875 332.383C224.844 332.125 224.352 331.672 224.359 331.023C224.352 330.203 225.148 329.578 226.281 329.586C227.328 329.586 227.953 330.086 228.141 330.883ZM234.656 337.43C236.367 337.438 237.57 336.508 237.953 335.336H236.812C236.508 335.875 235.82 336.477 234.656 336.477C232.969 336.477 231.875 335.258 231.828 333.336H238.125V332.836C238.117 329.953 236.344 328.656 234.5 328.648C232.289 328.656 230.758 330.492 230.766 333.07C230.758 335.648 232.258 337.438 234.656 337.43ZM231.836 332.414C231.93 330.891 232.984 329.609 234.516 329.617C236 329.609 237.031 330.828 237.031 332.414H231.836ZM239.562 334.883C239.555 336.516 240.812 337.453 242.359 337.445C243.781 337.453 244.625 336.672 244.969 335.945H245.031V337.258H246.094V331.523C246.094 329.195 244.297 328.656 243.031 328.648C241.266 328.656 239.977 329.539 239.797 330.883H240.906C241.109 330.109 241.859 329.594 242.969 329.602C244.305 329.594 245.039 330.289 245.031 331.43V332.227C244.625 332.242 243.258 332.336 242.688 332.367C240.953 332.508 239.555 333.156 239.562 334.883ZM240.625 334.93C240.625 333.953 241.344 333.375 242.844 333.273C243.266 333.25 244.609 333.148 245.031 333.109V334.023C245.039 335.375 244.07 336.492 242.516 336.492C241.43 336.492 240.625 335.93 240.625 334.93ZM248.391 337.258H249.469V331.805C249.461 330.578 250.414 329.672 251.719 329.68C251.992 329.672 252.258 329.719 252.344 329.742V328.664C252.211 328.656 251.969 328.648 251.797 328.648C250.75 328.648 249.836 329.219 249.5 330.086H249.422V328.773H248.391V337.258ZM256.812 337.43C258.602 337.438 259.852 336.305 260.078 334.773H259C258.773 335.82 257.914 336.469 256.812 336.477C255.172 336.469 254.094 335.062 254.094 333.023C254.094 330.992 255.203 329.609 256.812 329.617C258 329.609 258.789 330.383 259 331.305H260.062C259.844 329.727 258.516 328.656 256.797 328.648C254.547 328.656 253.023 330.492 253.031 333.055C253.023 335.586 254.508 337.438 256.812 337.43ZM262.938 331.992C262.93 330.523 263.906 329.625 265.25 329.633C266.539 329.625 267.359 330.469 267.359 331.852V337.258H268.422V331.773C268.43 329.734 267.258 328.664 265.531 328.664C264.242 328.664 263.422 329.227 263.016 330.117H262.938V325.945H261.859V337.258H262.938V331.992Z" fill="white"/>
<path d="M1004.02 293.258C1009.63 293.258 1013.02 289.792 1013.01 284.041C1013.02 278.315 1009.63 274.875 1004.1 274.875H997.549V293.258H1004.02ZM1001.36 289.982V278.15H1003.9C1007.38 278.15 1009.2 279.953 1009.2 284.041C1009.2 288.167 1007.38 289.982 1003.87 289.982H1001.36ZM1021.95 293.537C1025.35 293.524 1027.64 291.874 1028.17 289.322H1024.59C1024.22 290.147 1023.31 290.706 1022.03 290.719C1020.08 290.706 1018.85 289.424 1018.85 287.342H1028.27V286.275C1028.27 281.578 1025.42 279.293 1021.8 279.293C1017.76 279.293 1015.13 282.175 1015.14 286.428C1015.13 290.795 1017.72 293.524 1021.95 293.537ZM1018.85 284.98C1018.93 283.394 1020.15 282.099 1021.87 282.111C1023.55 282.099 1024.7 283.305 1024.72 284.98H1018.85ZM1034.39 274.875H1030.63V293.258H1034.39V274.875ZM1037.31 293.258H1041.07V279.471H1037.31V293.258ZM1037.13 275.764C1037.13 276.805 1038.06 277.668 1039.19 277.668C1040.31 277.668 1041.23 276.805 1041.22 275.764C1041.23 274.697 1040.31 273.847 1039.19 273.834C1038.06 273.847 1037.13 274.697 1037.13 275.764ZM1056.79 279.471H1052.8L1049.9 289.373H1049.75L1046.86 279.471H1042.9L1047.72 293.258H1051.94L1056.79 279.471ZM1064.4 293.537C1067.8 293.524 1070.09 291.874 1070.62 289.322H1067.04C1066.67 290.147 1065.76 290.706 1064.48 290.719C1062.54 290.706 1061.3 289.424 1061.3 287.342H1070.72V286.275C1070.72 281.578 1067.87 279.293 1064.25 279.293C1060.21 279.293 1057.58 282.175 1057.6 286.428C1057.58 290.795 1060.17 293.524 1064.4 293.537ZM1061.3 284.98C1061.38 283.394 1062.6 282.099 1064.33 282.111C1066 282.099 1067.16 283.305 1067.17 284.98H1061.3ZM1073.09 293.258H1076.84V285.412C1076.83 283.724 1078.09 282.543 1079.79 282.543C1080.31 282.543 1081.03 282.632 1081.39 282.746V279.395C1081.06 279.318 1080.58 279.268 1080.2 279.268C1078.65 279.268 1077.36 280.169 1076.87 281.857H1076.72V279.471H1073.09V293.258Z" fill="white"/>
<path d="M1006.47 327.945H1005.3L1009.41 339.258H1010.61L1014.72 327.945H1013.55L1010.06 337.82H1009.95L1006.47 327.945ZM1014.94 336.883C1014.93 338.516 1016.19 339.453 1017.73 339.445C1019.16 339.453 1020 338.672 1020.34 337.945H1020.41V339.258H1021.47V333.523C1021.47 331.195 1019.67 330.656 1018.41 330.648C1016.64 330.656 1015.35 331.539 1015.17 332.883H1016.28C1016.48 332.109 1017.23 331.594 1018.34 331.602C1019.68 331.594 1020.41 332.289 1020.41 333.43V334.227C1020 334.242 1018.63 334.336 1018.06 334.367C1016.33 334.508 1014.93 335.156 1014.94 336.883ZM1016 336.93C1016 335.953 1016.72 335.375 1018.22 335.273C1018.64 335.25 1019.98 335.148 1020.41 335.109V336.023C1020.41 337.375 1019.45 338.492 1017.89 338.492C1016.8 338.492 1016 337.93 1016 336.93ZM1024.84 327.945H1023.77V339.258H1024.84V327.945ZM1027.14 339.258H1028.2V330.773H1027.14V339.258ZM1026.91 328.586C1026.91 329 1027.26 329.328 1027.69 329.32C1028.11 329.328 1028.46 329 1028.47 328.586C1028.46 328.172 1028.11 327.844 1027.69 327.836C1027.26 327.844 1026.91 328.172 1026.91 328.586ZM1033.58 339.43C1035.13 339.438 1035.83 338.461 1036.17 337.727H1036.28V339.258H1037.33V327.945H1036.25V332.352H1036.17C1035.84 331.625 1035.16 330.656 1033.59 330.648C1031.51 330.656 1030.07 332.406 1030.08 335.039C1030.07 337.68 1031.5 339.438 1033.58 339.43ZM1031.16 335.023C1031.15 333.094 1032.05 331.617 1033.72 331.617C1035.36 331.617 1036.28 333.016 1036.28 335.023C1036.28 337.031 1035.34 338.469 1033.72 338.477C1032.06 338.469 1031.15 336.961 1031.16 335.023ZM1039.59 336.883C1039.59 338.516 1040.84 339.453 1042.39 339.445C1043.81 339.453 1044.66 338.672 1045 337.945H1045.06V339.258H1046.12V333.523C1046.12 331.195 1044.33 330.656 1043.06 330.648C1041.3 330.656 1040.01 331.539 1039.83 332.883H1040.94C1041.14 332.109 1041.89 331.594 1043 331.602C1044.34 331.594 1045.07 332.289 1045.06 333.43V334.227C1044.66 334.242 1043.29 334.336 1042.72 334.367C1040.98 334.508 1039.59 335.156 1039.59 336.883ZM1040.66 336.93C1040.66 335.953 1041.38 335.375 1042.88 335.273C1043.3 335.25 1044.64 335.148 1045.06 335.109V336.023C1045.07 337.375 1044.1 338.492 1042.55 338.492C1041.46 338.492 1040.66 337.93 1040.66 336.93ZM1051.84 330.773H1050.06V328.742H1048.98V330.773H1047.72V331.68H1048.98V337.258C1048.98 338.664 1050.1 339.383 1051.2 339.383C1051.56 339.383 1051.83 339.352 1052 339.336V338.336L1051.3 338.367C1050.66 338.359 1050.05 338.062 1050.06 336.992V331.68H1051.84V330.773ZM1053.77 339.258H1054.83V330.773H1053.77V339.258ZM1053.53 328.586C1053.53 329 1053.88 329.328 1054.31 329.32C1054.73 329.328 1055.09 329 1055.09 328.586C1055.09 328.172 1054.73 327.844 1054.31 327.836C1053.88 327.844 1053.53 328.172 1053.53 328.586ZM1060.47 339.43C1062.69 339.438 1064.23 337.648 1064.22 335.055C1064.23 332.445 1062.69 330.656 1060.47 330.648C1058.24 330.656 1056.7 332.445 1056.7 335.055C1056.7 337.648 1058.24 339.438 1060.47 339.43ZM1057.77 335.055C1057.77 333.195 1058.73 331.609 1060.47 331.617C1062.2 331.609 1063.16 333.188 1063.16 335.055C1063.16 336.914 1062.2 338.477 1060.47 338.477C1058.72 338.477 1057.77 336.914 1057.77 335.055ZM1067.16 333.992C1067.15 332.523 1068.1 331.625 1069.42 331.633C1070.7 331.625 1071.52 332.484 1071.52 333.852V339.258H1072.58V333.773C1072.58 331.75 1071.42 330.664 1069.7 330.664C1068.45 330.664 1067.61 331.234 1067.2 332.117H1067.11V330.773H1066.08V339.258H1067.16V333.992Z" fill="white"/>
<path d="M70.7071 284.258L319.255 35.7098C338.586 16.3788 369.928 16.3788 389.259 35.7098L637.807 284.258L389.259 532.806C369.928 552.137 338.586 552.137 319.255 532.806L70.7071 284.258Z" stroke="white" stroke-opacity="0.5"/>
<path d="M637.707 284.258L886.255 35.7098C905.586 16.3788 936.928 16.3788 956.259 35.7098L1204.81 284.258L956.259 532.806C936.928 552.137 905.586 552.137 886.255 532.806L637.707 284.258Z" stroke="white" stroke-opacity="0.5"/>
<line x1="21" y1="285.758" x2="121" y2="285.758" stroke="white" stroke-dasharray="2 2"/>
<line x1="588" y1="285.758" x2="688" y2="285.758" stroke="white" stroke-dasharray="2 2"/>
<line x1="1156" y1="285.758" x2="1256" y2="285.758" stroke="white" stroke-dasharray="2 2"/>
<circle cx="805" cy="284" r="115.5" stroke="white" stroke-width="3"/>
<circle cx="637.5" cy="285.758" r="12.5" fill="white"/>
<circle cx="70.5" cy="285.758" r="12.5" fill="white"/>
<circle cx="1201.5" cy="285.758" r="12.5" fill="white"/>
<circle cx="471" cy="284.258" r="115.5" stroke="white" stroke-width="3"/>
<path d="M801.504 254.375C803.309 254.375 804.363 252.77 804.363 250.016C804.363 247.279 803.297 245.656 801.504 245.656C799.705 245.656 798.633 247.279 798.633 250.016C798.633 252.77 799.693 254.375 801.504 254.375ZM799.453 250.016C799.447 247.719 800.215 246.389 801.504 246.395C802.781 246.389 803.549 247.719 803.555 250.016C803.549 252.312 802.787 253.625 801.504 253.625C800.209 253.625 799.447 252.312 799.453 250.016ZM808.676 254.375C810.322 254.375 811.529 253.35 811.523 251.984C811.529 250.9 810.844 250.104 809.73 249.91V249.852C810.645 249.594 811.23 248.873 811.219 247.906C811.23 246.682 810.246 245.656 808.699 245.656C807.229 245.656 806.045 246.564 806.016 247.895H806.824C806.848 246.975 807.691 246.389 808.688 246.395C809.73 246.389 810.416 247.027 810.422 247.941C810.416 248.902 809.613 249.529 808.5 249.523H807.973V250.273H808.5C809.871 250.273 810.709 250.971 810.715 251.973C810.709 252.934 809.859 253.625 808.664 253.625C807.568 253.625 806.707 253.027 806.66 252.125H805.816C805.863 253.461 807.047 254.375 808.676 254.375Z" fill="white"/>
<path d="M467.504 254.375C469.309 254.375 470.363 252.77 470.363 250.016C470.363 247.279 469.297 245.656 467.504 245.656C465.705 245.656 464.633 247.279 464.633 250.016C464.633 252.77 465.693 254.375 467.504 254.375ZM465.453 250.016C465.447 247.719 466.215 246.389 467.504 246.395C468.781 246.389 469.549 247.719 469.555 250.016C469.549 252.312 468.787 253.625 467.504 253.625C466.209 253.625 465.447 252.312 465.453 250.016ZM471.828 254.258H477.277V253.508H473.012V253.449L475.121 251.176C476.586 249.629 477.02 248.914 477.02 247.965C477.02 246.664 475.959 245.656 474.488 245.656C473 245.656 471.898 246.664 471.898 248.094H472.695C472.695 247.098 473.393 246.389 474.465 246.395C475.473 246.389 476.234 247.027 476.246 247.965C476.234 248.768 475.783 249.354 474.699 250.543L471.828 253.648V254.258Z" fill="white"/>
<circle cx="238" cy="284.258" r="115.5" stroke="white" stroke-width="3"/>
<circle cx="1038" cy="284" r="115.5" stroke="white" stroke-width="3"/>
<path d="M1035.5 254.375C1037.31 254.375 1038.36 252.77 1038.36 250.016C1038.36 247.279 1037.3 245.656 1035.5 245.656C1033.71 245.656 1032.63 247.279 1032.63 250.016C1032.63 252.77 1033.69 254.375 1035.5 254.375ZM1033.45 250.016C1033.45 247.719 1034.21 246.389 1035.5 246.395C1036.78 246.389 1037.55 247.719 1037.55 250.016C1037.55 252.312 1036.79 253.625 1035.5 253.625C1034.21 253.625 1033.45 252.312 1033.45 250.016ZM1039.63 252.453H1043.71V254.258H1044.5V252.453H1045.66V251.715H1044.5V245.773H1043.5L1039.63 251.773V252.453ZM1040.55 251.715V251.656L1043.62 246.887H1043.71V251.715H1040.55Z" fill="white"/>
<path d="M234.504 254.375C236.309 254.375 237.363 252.77 237.363 250.016C237.363 247.279 236.297 245.656 234.504 245.656C232.705 245.656 231.633 247.279 231.633 250.016C231.633 252.77 232.693 254.375 234.504 254.375ZM232.453 250.016C232.447 247.719 233.215 246.389 234.504 246.395C235.781 246.389 236.549 247.719 236.555 250.016C236.549 252.312 235.787 253.625 234.504 253.625C233.209 253.625 232.447 252.312 232.453 250.016ZM241.535 245.773H240.668L238.641 247.109V247.965L240.645 246.641H240.691V254.258H241.535V245.773Z" fill="white"/>
<line x1="354.5" y1="22" x2="354.5" y2="545" stroke="white" stroke-opacity="0.5" stroke-dasharray="2 2"/>
<line x1="922.5" y1="22" x2="922.5" y2="545" stroke="white" stroke-opacity="0.5" stroke-dasharray="2 2"/>
<path d="M637.5 133.258L634.613 138.258L640.387 138.258L637.5 133.258ZM637 137.758L637 247.258L638 247.258L638 137.758L637 137.758Z" fill="white"/>
<path d="M1202 431.258L1204.89 426.258L1199.11 426.258L1202 431.258ZM1202.5 426.758L1202.5 317.258L1201.5 317.258L1201.5 426.758L1202.5 426.758Z" fill="white"/>
<path d="M70 431.258L72.8868 426.258L67.1132 426.258L70 431.258ZM70.5 426.758L70.5 317.258L69.5 317.258L69.5 426.758L70.5 426.758Z" fill="white"/>
</svg>
