<?xml version="1.0" encoding="utf-8"?>
<!-- Generator: Adobe Illustrator 27.5.0, SVG Export Plug-In . SVG Version: 6.00 Build 0)  -->
<svg version="1.1" xmlns="http://www.w3.org/2000/svg" xmlns:xlink="http://www.w3.org/1999/xlink" x="0px" y="0px"
	 viewBox="0 0 1271 569" style="enable-background:new 0 0 1271 569;" xml:space="preserve">
<style type="text/css">
	.st0{display:none;}
	.st1{display:inline;stroke:#FFFFFF;stroke-miterlimit:10;}
	.st2{fill:none;stroke:#FFFFFF;stroke-dasharray:2,2;}
	.st3{fill:#FFFFFF;}
	.st4{fill:none;stroke:#FFFFFF;stroke-width:3;}
	.st5{fill:none;stroke:#FFFFFF;stroke-miterlimit:10;}
</style>
<g id="레이어_2" class="st0">
	<rect x="1" class="st1" width="1275" height="570"/>
</g>
<g id="레이어_1">
	<line class="st2" x1="215.9" y1="146.4" x2="266.3" y2="146.4"/>
	<line class="st2" x1="480.4" y1="146.4" x2="530.7" y2="146.4"/>
	<line class="st2" x1="742.5" y1="146.4" x2="792.8" y2="146.4"/>
	<line class="st2" x1="1005.7" y1="146.4" x2="1056.1" y2="146.4"/>
	<g>
		<path class="st3" d="M88.4,157.6h-8.3v-31.9h14.1c1.7,0,3.3,0.2,4.7,0.7c1.4,0.5,2.6,1.1,3.6,2c1,0.9,1.8,2,2.4,3.3
			c0.6,1.3,0.8,2.8,0.8,4.5c0,1.7-0.3,3.2-0.9,4.4c-0.6,1.3-1.4,2.3-2.4,3.1c-1,0.8-2.3,1.5-3.7,1.9c-1.4,0.4-2.9,0.6-4.6,0.6h-5.9
			V157.6z M94,139.8c1.2,0,2.2-0.3,2.8-0.9c0.6-0.6,0.9-1.5,0.9-2.7c0-1.2-0.3-2.1-0.9-2.7c-0.6-0.6-1.6-0.9-2.8-0.9h-5.6v7.3H94z"
			/>
		<path class="st3" d="M127.1,157.6c-0.7-0.8-1.2-1.8-1.7-3c-0.4-1.1-0.9-2.3-1.2-3.4c-0.4-1.1-0.7-2.2-1-3.1
			c-0.3-1-0.7-1.7-1.1-2.2c-0.2-0.3-0.4-0.5-0.7-0.7c-0.2-0.2-0.5-0.2-0.7-0.2h-3.4v12.6h-8.3v-31.9h14.8c1.7,0,3.3,0.2,4.7,0.6
			c1.4,0.4,2.6,1,3.7,1.7c1,0.8,1.8,1.8,2.4,3c0.6,1.2,0.8,2.7,0.8,4.3c0,2.1-0.5,3.9-1.5,5.3c-1,1.4-2.6,2.5-4.7,3.2
			c0.5,0.3,1,1,1.4,2c0.4,1,0.9,2.2,1.4,3.6c0.5,1.3,1.1,2.8,1.7,4.2c0.7,1.5,1.5,2.8,2.4,4H127.1z M123.5,139
			c1.2,0,2.2-0.3,2.8-0.9c0.6-0.6,0.9-1.5,0.9-2.7c0-1.2-0.3-2.1-0.9-2.7c-0.6-0.6-1.6-0.9-2.8-0.9h-6.2v7.3H123.5z"/>
	</g>
	<g>
		<path class="st3" d="M346.2,157.6h-8v-19.1l-4.7,19.1h-6.8l-5.7-18.9v18.9h-6.8v-31.9h10.4l5.8,20.9l4.6-20.9h11.2V157.6z"/>
		<path class="st3" d="M373.1,150.4c-0.2,1.3-0.7,2.4-1.4,3.4c-0.7,1-1.5,1.8-2.5,2.5c-1,0.7-2.1,1.2-3.4,1.6
			c-1.2,0.4-2.5,0.6-3.9,0.6c-2,0-3.8-0.3-5.4-0.9c-1.6-0.6-2.9-1.4-3.9-2.5c-1-1.1-1.8-2.3-2.4-3.8c-0.5-1.5-0.8-3.2-0.8-5
			c0-1.7,0.3-3.3,0.8-4.8c0.5-1.5,1.3-2.8,2.4-3.9c1-1.1,2.3-2,3.7-2.6s3.1-1,5-1c1.9,0,3.5,0.3,5,0.9c1.5,0.6,2.7,1.5,3.8,2.6
			c1,1.2,1.8,2.6,2.3,4.4c0.5,1.7,0.7,3.8,0.7,6.1h-15.9c0,1.7,0.4,2.9,1.3,3.6c0.9,0.7,2,1,3.4,1c0.9,0,1.7-0.3,2.4-0.8
			c0.7-0.5,1.1-1.2,1.2-2L373.1,150.4z M365.2,143.5c0-1.3-0.4-2.2-1.2-2.8c-0.8-0.6-1.7-1-2.7-1c-0.5,0-1,0.1-1.5,0.2
			s-0.9,0.4-1.2,0.7c-0.4,0.3-0.6,0.7-0.9,1.2c-0.2,0.5-0.3,1-0.3,1.6H365.2z"/>
		<path class="st3" d="M398.6,157.6h-7.8v-2.9c-0.4,1.1-1.1,2-2.1,2.7c-1,0.6-2.2,1-3.4,1.1c-1.5,0.1-2.8-0.1-4-0.7
			c-1.2-0.6-2.3-1.4-3.1-2.5c-0.9-1.1-1.6-2.4-2-4c-0.5-1.6-0.7-3.3-0.7-5.2c0-1.9,0.2-3.6,0.7-5.1c0.5-1.5,1.2-2.8,2-3.8
			c0.9-1,2-1.8,3.2-2.4c1.3-0.5,2.7-0.8,4.2-0.8c1.1,0.1,2.2,0.3,3.1,0.7c0.9,0.4,1.7,1,2.2,1.7v-11.1h7.8V157.6z M390.8,144
			c0-1.4-0.3-2.3-1-2.8c-0.7-0.5-1.5-0.8-2.5-0.8c-1.2,0-2.2,0.4-2.9,1.4c-0.7,1-1.1,2.4-1.1,4.3c0,0.8,0.1,1.6,0.3,2.3
			c0.2,0.7,0.5,1.3,0.8,1.8c0.4,0.5,0.8,0.9,1.3,1.2c0.5,0.3,1,0.4,1.6,0.3c1-0.1,1.8-0.4,2.5-1c0.7-0.6,1-1.5,1-2.8V144z"/>
		<path class="st3" d="M411.1,128.8c0,1.3-0.4,2.3-1.2,3.1c-0.8,0.8-1.9,1.2-3.2,1.2s-2.4-0.4-3.2-1.2s-1.2-1.9-1.2-3.1
			c0-1.3,0.4-2.4,1.2-3.2s1.9-1.2,3.2-1.2s2.4,0.4,3.2,1.2C410.6,126.4,411.1,127.5,411.1,128.8z M410.6,157.6h-7.9v-22.9h7.9V157.6
			z"/>
		<path class="st3" d="M437.1,153.7c0,0.7,0.1,1.3,0.2,2c0.1,0.6,0.2,1.3,0.4,1.9h-7.8c-0.1-0.4-0.3-0.8-0.4-1.3
			c-0.2-0.5-0.2-1.1-0.2-1.7c-0.6,1.1-1.5,2-2.6,2.6c-1.1,0.6-2.4,0.9-3.8,1.1c-2.6,0.3-4.7-0.1-6.2-1.1c-1.5-1-2.4-2.5-2.6-4.5
			c-0.2-2,0.3-3.7,1.6-5.1c1.3-1.4,3.1-2.5,5.4-3.1c1.3-0.4,2.7-0.7,4.2-1c1.5-0.3,2.9-0.4,4.1-0.4v0c0-1.2-0.3-1.9-0.8-2.3
			c-0.5-0.4-1.4-0.6-2.5-0.6c-1.1,0-2,0.2-2.6,0.7c-0.6,0.4-0.9,1-1.1,1.7l-7.5-1c0.2-1,0.6-2,1.1-2.9c0.6-0.9,1.3-1.7,2.3-2.4
			s2.2-1.2,3.6-1.6c1.4-0.4,3-0.6,4.8-0.6c1.4,0,2.8,0.2,4,0.5c1.3,0.4,2.4,0.9,3.4,1.6c1,0.7,1.7,1.6,2.3,2.7
			c0.6,1.1,0.8,2.4,0.8,3.8V153.7z M429.2,147.4c-0.7,0-1.5,0.1-2.5,0.4c-1,0.2-1.9,0.6-2.7,0.9c-0.8,0.3-1.3,0.8-1.6,1.3
			c-0.3,0.5-0.4,1-0.3,1.6c0.1,0.7,0.5,1.2,1.1,1.5c0.6,0.3,1.4,0.3,2.5,0.1c0.4-0.1,0.9-0.3,1.3-0.5c0.4-0.3,0.8-0.6,1.1-1
			c0.3-0.4,0.6-0.9,0.8-1.4c0.2-0.5,0.3-1.2,0.3-1.8V147.4z"/>
	</g>
	<g>
		<path class="st3" d="M567.9,157.6v-31.9H578c2.2,0,4.3,0.3,6.3,1c2,0.7,3.7,1.7,5.3,3c1.5,1.3,2.7,3,3.6,4.9
			c0.9,2,1.3,4.3,1.3,6.9c0,2.9-0.4,5.3-1.3,7.3c-0.8,2-2,3.7-3.5,5s-3.2,2.2-5.2,2.8c-2,0.6-4.2,0.9-6.5,0.9H567.9z M578.1,150.5
			c1.1,0,2.2-0.2,3.1-0.6c0.9-0.4,1.7-0.9,2.4-1.7c0.7-0.7,1.2-1.7,1.6-2.8c0.4-1.1,0.6-2.4,0.6-4c0-1.4-0.2-2.6-0.6-3.7
			c-0.4-1.1-0.9-2-1.6-2.7c-0.7-0.7-1.5-1.3-2.4-1.7c-0.9-0.4-2-0.6-3.1-0.6h-1.9v17.7H578.1z"/>
		<path class="st3" d="M620.7,150.4c-0.2,1.3-0.7,2.4-1.4,3.4c-0.7,1-1.5,1.8-2.5,2.5c-1,0.7-2.1,1.2-3.4,1.6
			c-1.2,0.4-2.5,0.6-3.9,0.6c-2,0-3.8-0.3-5.4-0.9c-1.6-0.6-2.9-1.4-3.9-2.5c-1-1.1-1.8-2.3-2.4-3.8c-0.5-1.5-0.8-3.2-0.8-5
			c0-1.7,0.3-3.3,0.8-4.8c0.5-1.5,1.3-2.8,2.4-3.9c1-1.1,2.3-2,3.7-2.6s3.1-1,5-1c1.9,0,3.5,0.3,5,0.9c1.5,0.6,2.7,1.5,3.8,2.6
			c1,1.2,1.8,2.6,2.3,4.4c0.5,1.7,0.7,3.8,0.7,6.1h-15.9c0,1.7,0.4,2.9,1.3,3.6c0.9,0.7,2,1,3.4,1c0.9,0,1.7-0.3,2.4-0.8
			c0.7-0.5,1.1-1.2,1.2-2L620.7,150.4z M612.8,143.5c0-1.3-0.4-2.2-1.2-2.8c-0.8-0.6-1.7-1-2.7-1c-0.5,0-1,0.1-1.5,0.2
			s-0.9,0.4-1.2,0.7c-0.4,0.3-0.6,0.7-0.9,1.2c-0.2,0.5-0.3,1-0.3,1.6H612.8z"/>
		<path class="st3" d="M638.1,142.4c-0.2-1-0.8-1.8-1.6-2.4c-0.8-0.6-1.9-0.8-3-0.8c-1.3,0-2.2,0.1-2.7,0.4
			c-0.5,0.3-0.7,0.6-0.7,1.1c0,0.5,0.3,0.8,0.9,1c0.6,0.2,1.6,0.5,2.9,0.8c1.6,0.4,3.1,0.8,4.4,1.2c1.3,0.4,2.4,1,3.4,1.6
			c0.9,0.6,1.6,1.4,2.1,2.2c0.5,0.9,0.8,1.9,0.8,3.1c0,1.3-0.3,2.5-0.8,3.5c-0.5,1-1.2,1.8-2.2,2.4c-0.9,0.6-2,1.1-3.3,1.4
			c-1.3,0.3-2.7,0.5-4.3,0.5c-1.8,0-3.4-0.2-4.7-0.5s-2.4-0.8-3.4-1.4c-0.9-0.6-1.7-1.4-2.3-2.2c-0.6-0.9-1-1.9-1.4-3l6.6-1.8
			c0.1,0.5,0.4,0.9,0.7,1.4c0.3,0.4,0.8,0.8,1.2,1.1c0.5,0.3,1,0.6,1.6,0.7c0.6,0.2,1.1,0.3,1.7,0.3c2.1,0,3.1-0.5,3.1-1.5
			c0-0.6-0.3-1-0.9-1.3c-0.6-0.3-1.5-0.6-2.5-0.8c-1.9-0.4-3.5-0.8-4.9-1.3c-1.4-0.4-2.5-1-3.4-1.6c-0.9-0.6-1.5-1.3-2-2.1
			c-0.4-0.8-0.6-1.8-0.6-3c0-1,0.2-2,0.7-2.9c0.4-0.9,1.1-1.7,2-2.4c0.9-0.7,2-1.2,3.4-1.6c1.3-0.4,2.9-0.6,4.7-0.6
			c1.4,0,2.8,0.2,4,0.6c1.2,0.4,2.2,0.9,3.1,1.5c0.9,0.6,1.6,1.4,2.1,2.2c0.5,0.8,0.9,1.7,1,2.6L638.1,142.4z"/>
		<path class="st3" d="M656.2,128.8c0,1.3-0.4,2.3-1.2,3.1c-0.8,0.8-1.9,1.2-3.2,1.2s-2.4-0.4-3.2-1.2c-0.8-0.8-1.2-1.9-1.2-3.1
			c0-1.3,0.4-2.4,1.2-3.2c0.8-0.8,1.9-1.2,3.2-1.2s2.4,0.4,3.2,1.2C655.8,126.4,656.2,127.5,656.2,128.8z M655.7,157.6h-7.9v-22.9
			h7.9V157.6z"/>
		<path class="st3" d="M669.9,149.5c-0.5,0-1,0-1.4,0c-0.4,0-0.8,0-1.1,0c-0.3,0-0.5,0.1-0.6,0.2c-0.1,0.1-0.2,0.3-0.3,0.5
			s0,0.4,0.1,0.6c0.1,0.2,0.3,0.3,0.6,0.3c0.3,0.1,0.7,0.1,1.3,0.2c0.6,0.1,1.3,0.1,1.9,0.1c0.7,0,1.3,0.1,1.9,0.1
			c0.6,0,1.1,0,1.4,0c1.9,0.1,3.5,0.3,4.8,0.7c1.3,0.4,2.3,0.8,3.1,1.4c0.8,0.6,1.3,1.3,1.6,2.1c0.3,0.8,0.4,1.8,0.4,2.8
			c-0.1,1.3-0.5,2.4-1.1,3.4c-0.7,1-1.5,1.7-2.7,2.4s-2.5,1.1-4,1.3c-1.6,0.3-3.3,0.4-5.2,0.4c-2.4,0-4.4-0.1-6-0.4
			c-1.6-0.3-2.9-0.7-3.8-1.2c-1-0.5-1.7-1.2-2.1-1.9c-0.4-0.7-0.6-1.5-0.6-2.4c0-0.5,0.1-1.1,0.4-1.6c0.2-0.5,0.6-1,1-1.4
			c0.4-0.4,0.9-0.8,1.5-1c0.5-0.3,1.1-0.5,1.8-0.6c-1.3-0.2-2.1-0.6-2.6-1.3c-0.4-0.7-0.6-1.4-0.5-2.1c0.1-1,0.5-1.9,1.2-2.6
			s1.4-1.2,2.2-1.5c-2.4-1.3-3.6-3.4-3.6-6.1c0-1.2,0.2-2.2,0.7-3.2c0.5-1,1.2-1.8,2.1-2.5s2.1-1.2,3.5-1.6c1.4-0.4,2.9-0.6,4.6-0.6
			c0.5,0,0.9,0,1.3,0c0.4,0,0.8,0.1,1.2,0.1c0.1-0.7,0.4-1.3,0.8-1.8c0.4-0.6,0.8-1,1.3-1.3c1-0.7,2.3-1.1,3.7-1.2
			c1.4-0.1,2.9,0,4.4,0.4l-0.9,5.5c-0.7-0.5-1.5-0.7-2.4-0.8c-0.8-0.1-1.6,0.1-2.2,0.5c-0.1,0-0.1,0.1-0.2,0.2
			c1.3,0.7,2.2,1.6,2.9,2.7c0.7,1.1,1,2.3,1,3.7c0,2.4-0.9,4.3-2.8,5.6c-1.8,1.3-4.5,2-7.9,2H669.9z M675.1,160.1
			c0.3-0.2,0.5-0.5,0.5-0.9c0-0.2,0-0.5-0.1-0.6c-0.1-0.2-0.2-0.3-0.5-0.4s-0.6-0.2-1.1-0.3c-0.5-0.1-1.1-0.1-1.8-0.2
			c-0.2,0-0.6,0-1,0c-0.5,0-1-0.1-1.6-0.1c-0.6,0-1.1-0.1-1.6-0.1c-0.5,0-0.9-0.1-1.1-0.1c-0.6,0-1.1,0-1.5,0.1
			c-0.4,0.1-0.6,0.3-0.8,0.8c-0.1,0.3-0.1,0.6,0,0.9c0.1,0.3,0.3,0.5,0.7,0.8c0.4,0.2,0.9,0.4,1.6,0.6c0.7,0.1,1.6,0.3,2.7,0.3
			c1.2,0.1,2.3,0,3.3,0C673.9,160.6,674.6,160.4,675.1,160.1z M670.4,144.7c0.9,0,1.6-0.3,2-0.8c0.4-0.5,0.7-1.2,0.7-2
			c0-1-0.2-1.7-0.7-2.3c-0.5-0.6-1.1-0.8-2-0.8c-0.9,0-1.6,0.3-2.1,0.8c-0.5,0.6-0.7,1.3-0.7,2.3c0,0.8,0.2,1.5,0.7,2
			C668.8,144.4,669.5,144.7,670.4,144.7z"/>
		<path class="st3" d="M707.9,157.6H700v-13.1c0-1.2-0.3-2.2-0.9-2.8c-0.6-0.6-1.4-1-2.4-1c-1.1,0-2,0.3-2.7,0.9
			c-0.6,0.6-0.9,1.5-0.9,2.9v13.2h-7.9v-22.9h7.4v3.2c0.4-1,1-1.8,1.9-2.6c0.9-0.8,2.1-1.2,3.5-1.4c1.6-0.2,2.9-0.1,4.2,0.2
			s2.3,0.9,3.1,1.6c0.8,0.7,1.5,1.6,1.9,2.7c0.4,1.1,0.7,2.3,0.7,3.6V157.6z"/>
	</g>
	<g>
		<path class="st3" d="M1101.2,136.4c-0.2-0.6-0.4-1.1-0.8-1.7c-0.3-0.6-0.7-1.1-1.2-1.5c-0.5-0.4-1-0.8-1.7-1.1
			c-0.6-0.3-1.3-0.4-2.2-0.4c-1.4,0-2.4,0.3-3.1,0.8c-0.7,0.5-1.1,1.1-1.1,1.7c0,0.7,0.4,1.2,1.1,1.7c0.8,0.4,2,0.9,3.6,1.2
			c2,0.5,3.8,1,5.4,1.6c1.6,0.6,3,1.4,4.2,2.2c1.1,0.9,2,1.8,2.7,3c0.6,1.1,0.9,2.4,0.9,3.9c0,1.8-0.3,3.4-1,4.7
			c-0.7,1.3-1.6,2.4-2.8,3.3c-1.2,0.9-2.6,1.5-4.2,1.9c-1.6,0.4-3.3,0.6-5.1,0.6c-4.2,0-7.4-0.9-9.8-2.6s-3.9-4.1-4.7-7.1l8.1-2.5
			c0.4,1.3,1.2,2.5,2.3,3.4c1.2,0.9,2.6,1.4,4.3,1.4c1.3,0,2.3-0.2,2.9-0.6c0.6-0.4,1-0.9,1-1.5c0-1.1-0.4-1.8-1.2-2.3
			c-0.8-0.4-1.8-0.8-3.1-1.1c-2.3-0.5-4.3-1.1-6-1.8c-1.7-0.6-3.1-1.3-4.2-2.2s-1.9-1.8-2.5-2.8c-0.5-1.1-0.8-2.3-0.8-3.7
			c0-1.4,0.3-2.8,0.8-4c0.5-1.2,1.4-2.3,2.5-3.2c1.1-0.9,2.5-1.6,4.2-2.1c1.7-0.5,3.6-0.8,5.9-0.8c1.6,0,3.1,0.3,4.6,0.8
			c1.5,0.5,2.8,1.2,3.9,2.1c1.1,0.9,2.1,1.9,2.8,3c0.7,1.1,1.2,2.3,1.3,3.6L1101.2,136.4z"/>
		<path class="st3" d="M1129.2,157.5c-0.8,0.3-1.8,0.5-3,0.7c-1.2,0.2-2.4,0.2-3.6,0.2c-2.2-0.1-3.9-0.7-5.2-1.8
			c-1.3-1.1-1.9-2.9-1.9-5.3v-10.1h-4.5v-6.5h4.5v-7l7.9-1.6v8.5h5.7v6.5h-5.7v8.7c0,1.2,0.5,1.8,1.4,1.8c0.5,0,1.1,0,1.7-0.1
			c0.6-0.1,1.1-0.2,1.5-0.3L1129.2,157.5z"/>
		<path class="st3" d="M1154.2,153.7c0,0.7,0.1,1.3,0.2,2c0.1,0.6,0.2,1.3,0.4,1.9h-7.8c-0.1-0.4-0.3-0.8-0.4-1.3
			c-0.2-0.5-0.2-1.1-0.2-1.7c-0.6,1.1-1.5,2-2.6,2.6c-1.1,0.6-2.4,0.9-3.8,1.1c-2.6,0.3-4.7-0.1-6.2-1.1s-2.4-2.5-2.6-4.5
			s0.3-3.7,1.6-5.1c1.3-1.4,3.1-2.5,5.4-3.1c1.3-0.4,2.7-0.7,4.2-1c1.5-0.3,2.9-0.4,4.1-0.4v0c0-1.2-0.3-1.9-0.8-2.3
			c-0.5-0.4-1.4-0.6-2.5-0.6c-1.1,0-2,0.2-2.6,0.7s-0.9,1-1.1,1.7l-7.5-1c0.2-1,0.6-2,1.1-2.9c0.6-0.9,1.3-1.7,2.3-2.4
			s2.2-1.2,3.6-1.6c1.4-0.4,3-0.6,4.8-0.6c1.4,0,2.8,0.2,4,0.5c1.3,0.4,2.4,0.9,3.4,1.6c1,0.7,1.7,1.6,2.3,2.7
			c0.6,1.1,0.8,2.4,0.8,3.8V153.7z M1146.3,147.4c-0.7,0-1.5,0.1-2.5,0.4c-1,0.2-1.9,0.6-2.7,0.9c-0.8,0.3-1.3,0.8-1.6,1.3
			c-0.3,0.5-0.4,1-0.3,1.6c0.1,0.7,0.5,1.2,1.1,1.5c0.6,0.3,1.4,0.3,2.5,0.1c0.4-0.1,0.9-0.3,1.3-0.5c0.4-0.3,0.8-0.6,1.1-1
			c0.3-0.4,0.6-0.9,0.8-1.4c0.2-0.5,0.3-1.2,0.3-1.8V147.4z"/>
		<path class="st3" d="M1165.7,157.6h-7.9v-22.9h7.2v3.6c0.2-0.5,0.5-1,0.9-1.6c0.4-0.5,0.9-1,1.5-1.4c0.6-0.4,1.2-0.7,1.9-1
			c0.7-0.3,1.4-0.4,2.2-0.5c0.9-0.1,1.8,0,2.7,0.2l-1.9,7.8c-0.5-0.2-1-0.4-1.7-0.5c-0.7-0.1-1.3-0.1-2,0.1
			c-1.9,0.4-2.8,1.6-2.8,3.6V157.6z"/>
		<path class="st3" d="M1193.2,157.5c-0.8,0.3-1.8,0.5-3,0.7c-1.2,0.2-2.4,0.2-3.6,0.2c-2.2-0.1-3.9-0.7-5.2-1.8s-1.9-2.9-1.9-5.3
			v-10.1h-4.5v-6.5h4.5v-7l7.9-1.6v8.5h5.7v6.5h-5.7v8.7c0,1.2,0.5,1.8,1.4,1.8c0.5,0,1.1,0,1.7-0.1c0.6-0.1,1.1-0.2,1.5-0.3
			L1193.2,157.5z"/>
		<path class="st3" d="M1218,157.6h-7.4v-3.9c-0.3,1.2-0.9,2.3-1.8,3.1c-0.9,0.8-2.1,1.3-3.6,1.5c-1.6,0.2-2.9,0.1-4.2-0.2
			c-1.2-0.3-2.3-0.9-3.1-1.6c-0.8-0.7-1.5-1.6-1.9-2.7c-0.4-1.1-0.7-2.3-0.7-3.7v-15.4h7.9v13.1c0,1.2,0.3,2.2,0.9,2.8
			c0.6,0.7,1.4,1,2.4,0.9c1.1-0.1,2-0.4,2.7-1c0.6-0.6,0.9-1.6,0.9-2.9v-12.9h7.9V157.6z"/>
		<path class="st3" d="M1229.4,165.5h-7.8v-30.7h7.8v2c0.5-0.8,1.3-1.5,2.2-2c0.9-0.5,2-0.8,3.1-0.9c1.6,0,3,0.2,4.2,0.8
			c1.3,0.5,2.3,1.3,3.2,2.4c0.9,1,1.6,2.3,2,3.8c0.5,1.5,0.7,3.2,0.7,5.1c0,1.9-0.2,3.6-0.7,5.2c-0.5,1.6-1.2,2.9-2,4
			c-0.9,1.1-1.9,1.9-3.1,2.5c-1.2,0.6-2.6,0.8-4,0.7c-1.1-0.1-2.1-0.4-3.1-1c-1-0.6-1.8-1.5-2.4-2.6V165.5z M1229.4,147.8
			c0,1.3,0.3,2.3,1,2.8c0.7,0.6,1.5,0.9,2.5,1c0.6,0.1,1.1-0.1,1.6-0.3c0.5-0.3,0.9-0.7,1.3-1.2s0.6-1.1,0.8-1.8
			c0.2-0.7,0.3-1.5,0.3-2.3c0-1.9-0.4-3.3-1.1-4.3s-1.7-1.5-2.9-1.4c-1,0-1.8,0.3-2.5,0.9c-0.7,0.5-1,1.5-1,3V147.8z"/>
	</g>
	<g>
		<path class="st3" d="M833.8,146.2c-0.1,1.2-0.4,2.4-0.9,3.4c-0.5,1-1.2,1.9-2,2.7c-0.8,0.7-1.8,1.3-2.9,1.7
			c-1.1,0.4-2.3,0.6-3.7,0.6c-1.6,0-3-0.3-4.2-0.9c-1.2-0.6-2.3-1.4-3.1-2.5s-1.5-2.4-1.9-3.9c-0.4-1.5-0.6-3.2-0.6-5
			c0-1.8,0.2-3.4,0.6-4.9s1-2.8,1.9-3.9c0.8-1.1,1.9-1.9,3.1-2.5c1.2-0.6,2.7-0.9,4.3-0.9c1.4,0,2.7,0.2,3.8,0.6
			c1.2,0.4,2.2,1,3.1,1.8c0.9,0.8,1.6,1.8,2.1,2.9c0.5,1.1,0.8,2.4,0.9,3.9l-5.7,0.7c-0.2-1.4-0.7-2.6-1.4-3.4
			c-0.7-0.9-1.6-1.3-2.8-1.3c-0.7,0-1.2,0.2-1.7,0.5c-0.5,0.3-0.9,0.8-1.2,1.5s-0.5,1.4-0.7,2.2c-0.1,0.8-0.2,1.8-0.2,2.8
			s0.1,2,0.2,2.8c0.1,0.9,0.4,1.6,0.7,2.2s0.7,1.1,1.2,1.5s1.1,0.5,1.7,0.5c1.2,0,2.1-0.4,2.8-1.1c0.7-0.8,1.1-1.9,1.3-3.4
			L833.8,146.2z"/>
		<path class="st3" d="M851,152.1c-0.8,0.8-1.7,1.4-2.8,1.9c-1.1,0.4-2.3,0.7-3.7,0.7s-2.6-0.2-3.7-0.7c-1.1-0.4-2-1.1-2.8-1.9
			c-0.8-0.8-1.4-1.7-1.8-2.8s-0.6-2.2-0.6-3.5c0-1.2,0.2-2.4,0.6-3.5s1-2.1,1.8-2.9c0.8-0.8,1.7-1.5,2.8-2c1.1-0.5,2.3-0.7,3.7-0.7
			s2.6,0.2,3.7,0.7c1.1,0.5,2,1.1,2.8,2c0.8,0.8,1.4,1.8,1.8,2.9c0.4,1.1,0.6,2.3,0.6,3.5c0,1.3-0.2,2.4-0.6,3.5
			C852.4,150.4,851.8,151.3,851,152.1z M844.6,150c1,0,1.7-0.3,2.1-1c0.5-0.6,0.7-1.7,0.7-3.2c0-1.3-0.3-2.3-0.8-3.1
			c-0.5-0.8-1.2-1.3-2.1-1.3s-1.6,0.4-2.1,1.3c-0.5,0.8-0.8,1.9-0.8,3.1c0,1.5,0.2,2.6,0.7,3.2C842.9,149.7,843.6,150,844.6,150z"/>
		<path class="st3" d="M872,154.1h-5.7v-9.6c0-0.9-0.2-1.6-0.6-2c-0.4-0.5-1-0.7-1.7-0.7c-0.8,0-1.5,0.2-1.9,0.6s-0.7,1.1-0.7,2.1
			v9.6h-5.7v-16.6h5.4v2.4c0.3-0.7,0.7-1.3,1.4-1.9c0.7-0.6,1.5-0.9,2.5-1c1.1-0.1,2.1-0.1,3,0.2s1.6,0.6,2.3,1.1
			c0.6,0.5,1.1,1.2,1.4,2c0.3,0.8,0.5,1.7,0.5,2.7V154.1z"/>
		<path class="st3" d="M885,154.1h-7l-5.3-16.6h6.1l2.7,11.3l2.8-11.3h6L885,154.1z"/>
		<path class="st3" d="M907.5,148.8c-0.2,0.9-0.5,1.7-1,2.5c-0.5,0.7-1.1,1.3-1.8,1.8c-0.7,0.5-1.6,0.9-2.5,1.1
			c-0.9,0.3-1.9,0.4-2.8,0.4c-1.5,0-2.8-0.2-3.9-0.6s-2.1-1-2.8-1.8s-1.3-1.7-1.7-2.8c-0.4-1.1-0.6-2.3-0.6-3.7
			c0-1.2,0.2-2.4,0.6-3.5c0.4-1.1,1-2,1.7-2.8c0.7-0.8,1.7-1.4,2.7-1.9c1.1-0.5,2.3-0.7,3.7-0.7c1.3,0,2.6,0.2,3.6,0.6
			c1.1,0.4,2,1.1,2.7,1.9c0.7,0.8,1.3,1.9,1.7,3.2c0.4,1.3,0.5,2.8,0.5,4.4h-11.6c0,1.3,0.3,2.1,0.9,2.6c0.6,0.5,1.4,0.7,2.5,0.7
			c0.7,0,1.2-0.2,1.7-0.6c0.5-0.4,0.8-0.9,0.9-1.5L907.5,148.8z M901.7,143.8c0-0.9-0.3-1.6-0.8-2.1c-0.6-0.5-1.2-0.7-2-0.7
			c-0.4,0-0.7,0.1-1.1,0.2c-0.3,0.1-0.7,0.3-0.9,0.5s-0.5,0.5-0.6,0.9c-0.2,0.3-0.2,0.7-0.2,1.2H901.7z"/>
		<path class="st3" d="M926.1,154.1h-5.7v-9.6c0-0.9-0.2-1.6-0.6-2c-0.4-0.5-1-0.7-1.7-0.7c-0.8,0-1.5,0.2-1.9,0.6s-0.7,1.1-0.7,2.1
			v9.6h-5.7v-16.6h5.4v2.4c0.3-0.7,0.7-1.3,1.4-1.9c0.7-0.6,1.5-0.9,2.5-1c1.1-0.1,2.1-0.1,3,0.2s1.6,0.6,2.3,1.1
			c0.6,0.5,1.1,1.2,1.4,2c0.3,0.8,0.5,1.7,0.5,2.7V154.1z"/>
		<path class="st3" d="M941,154c-0.6,0.2-1.3,0.4-2.2,0.5c-0.9,0.1-1.7,0.2-2.6,0.1c-1.6,0-2.8-0.5-3.8-1.3
			c-0.9-0.8-1.4-2.1-1.4-3.8v-7.3h-3.3v-4.7h3.3v-5.1l5.8-1.1v6.2h4.1v4.7h-4.1v6.3c0,0.9,0.3,1.3,1,1.3c0.4,0,0.8,0,1.2-0.1
			c0.4-0.1,0.8-0.1,1.1-0.2L941,154z"/>
		<path class="st3" d="M949.1,133.1c0,0.9-0.3,1.7-0.9,2.3s-1.4,0.9-2.3,0.9s-1.7-0.3-2.3-0.9s-0.9-1.4-0.9-2.3c0-1,0.3-1.7,0.9-2.3
			s1.4-0.9,2.3-0.9s1.7,0.3,2.3,0.9S949.1,132.1,949.1,133.1z M948.7,154.1H943v-16.6h5.8V154.1z"/>
		<path class="st3" d="M966.3,152.1c-0.8,0.8-1.7,1.4-2.8,1.9c-1.1,0.4-2.3,0.7-3.7,0.7s-2.6-0.2-3.7-0.7c-1.1-0.4-2-1.1-2.8-1.9
			c-0.8-0.8-1.4-1.7-1.8-2.8s-0.6-2.2-0.6-3.5c0-1.2,0.2-2.4,0.6-3.5s1-2.1,1.8-2.9c0.8-0.8,1.7-1.5,2.8-2c1.1-0.5,2.3-0.7,3.7-0.7
			s2.6,0.2,3.7,0.7c1.1,0.5,2,1.1,2.8,2c0.8,0.8,1.4,1.8,1.8,2.9c0.4,1.1,0.6,2.3,0.6,3.5c0,1.3-0.2,2.4-0.6,3.5
			C967.7,150.4,967.1,151.3,966.3,152.1z M959.9,150c1,0,1.7-0.3,2.1-1c0.5-0.6,0.7-1.7,0.7-3.2c0-1.3-0.3-2.3-0.8-3.1
			c-0.5-0.8-1.2-1.3-2.1-1.3s-1.6,0.4-2.1,1.3c-0.5,0.8-0.8,1.9-0.8,3.1c0,1.5,0.2,2.6,0.7,3.2C958.2,149.7,959,150,959.9,150z"/>
		<path class="st3" d="M987.3,154.1h-5.7v-9.6c0-0.9-0.2-1.6-0.6-2c-0.4-0.5-1-0.7-1.7-0.7c-0.8,0-1.5,0.2-1.9,0.6s-0.7,1.1-0.7,2.1
			v9.6h-5.7v-16.6h5.4v2.4c0.3-0.7,0.7-1.3,1.4-1.9c0.7-0.6,1.5-0.9,2.5-1c1.1-0.1,2.1-0.1,3,0.2s1.6,0.6,2.3,1.1
			c0.6,0.5,1.1,1.2,1.4,2c0.3,0.8,0.5,1.7,0.5,2.7V154.1z"/>
	</g>
	<circle class="st3" cx="242" cy="145.6" r="10.7"/>
	<circle class="st3" cx="505" cy="145.6" r="10.7"/>
	<circle class="st3" cx="768.1" cy="145.6" r="10.7"/>
	<circle class="st3" cx="1031.1" cy="145.6" r="10.7"/>
	<g>
		<circle class="st4" cx="109.2" cy="144.5" r="105.5"/>
		<circle class="st5" cx="109.2" cy="144.5" r="95.1"/>
	</g>
	<g>
		<circle class="st4" cx="372.5" cy="144.5" r="105.5"/>
		<circle class="st5" cx="372.5" cy="144.5" r="95.1"/>
	</g>
	<g>
		<circle class="st4" cx="635.8" cy="144.5" r="105.5"/>
		<circle class="st5" cx="635.8" cy="144.5" r="95.1"/>
	</g>
	<g>
		<circle class="st4" cx="899.1" cy="144.5" r="105.5"/>
		<circle class="st5" cx="899.1" cy="144.5" r="95.1"/>
	</g>
	<g>
		<circle class="st4" cx="1162.5" cy="144.5" r="105.5"/>
		<circle class="st5" cx="1162.5" cy="144.5" r="95.1"/>
	</g>
	<g>
		<path class="st3" d="M85.9,282.8v-1H91v-0.9c0-0.6,0-1.4-0.1-2.2h1.1v3.1h6.4v1H85.9z M87.4,287.1c0-0.9,0.4-1.6,1.3-2.1
			c0.8-0.5,2-0.8,3.6-0.8c1.5,0,2.7,0.3,3.6,0.8c0.8,0.5,1.3,1.2,1.3,2.1s-0.4,1.6-1.3,2.1c-0.8,0.5-2,0.8-3.6,0.8
			c-1.5,0-2.7-0.3-3.6-0.8C87.8,288.7,87.4,288,87.4,287.1z M96.4,280.6h-1c0.3-1.1,0.4-2.4,0.5-3.9h-8.4v-1H97
			C96.9,277.4,96.8,279,96.4,280.6z M89.4,285.7c-0.7,0.3-1,0.8-1,1.4c0,0.6,0.3,1.1,1,1.4c0.7,0.4,1.6,0.5,2.7,0.5
			c1.1,0,2-0.2,2.7-0.5c0.7-0.3,1-0.8,1-1.4c0-0.6-0.3-1.1-1-1.4c-0.7-0.4-1.6-0.5-2.7-0.5C91,285.2,90.1,285.4,89.4,285.7z"/>
		<path class="st3" d="M99.5,282.8v-1h5.1v-0.9c0-0.6,0-1.4-0.1-2.2h1.1v3.1h6.4v1H99.5z M101,287.1c0-0.9,0.4-1.6,1.3-2.1
			c0.8-0.5,2-0.8,3.6-0.8c1.5,0,2.7,0.3,3.6,0.8c0.8,0.5,1.3,1.2,1.3,2.1s-0.4,1.6-1.3,2.1c-0.8,0.5-2,0.8-3.6,0.8
			c-1.5,0-2.7-0.3-3.6-0.8C101.4,288.7,101,288,101,287.1z M110,280.6h-1c0.3-1.1,0.4-2.4,0.5-3.9H101v-1h9.5
			C110.6,277.4,110.4,279,110,280.6z M103.1,285.7c-0.7,0.3-1,0.8-1,1.4c0,0.6,0.3,1.1,1,1.4c0.7,0.4,1.6,0.5,2.7,0.5
			c1.1,0,2-0.2,2.7-0.5c0.7-0.3,1-0.8,1-1.4c0-0.6-0.3-1.1-1-1.4c-0.7-0.4-1.6-0.5-2.7-0.5C104.7,285.2,103.7,285.4,103.1,285.7z"/>
		<path class="st3" d="M118.3,288.2V279c0-1.2,0-2.2-0.1-3.1h3.6c1.1,0,2.1,0.3,2.8,0.9s1.1,1.5,1.1,2.6c0,1.2-0.4,2.1-1.1,2.7
			c-0.7,0.7-1.6,1-2.7,1h-2.4v5H118.3z M119.4,282.2h2.4c0.9,0,1.5-0.2,2-0.7c0.5-0.5,0.7-1.2,0.7-2c0-0.8-0.2-1.5-0.7-1.9
			s-1.2-0.7-2-0.7h-2.4V282.2z"/>
		<path class="st3" d="M127.6,288.2V279c0-1.2,0-2.2-0.1-3.1h3.5c1.2,0,2.1,0.2,2.8,0.7c0.7,0.5,1,1.3,1,2.4c0,1.4-0.5,2.3-1.6,2.9
			c0.9,0.4,1.4,1.2,1.5,2.5c0.1,0.7,0.1,1.2,0.1,1.7c0,0.5,0.1,0.8,0.1,1.2c0.1,0.3,0.2,0.6,0.3,0.9h-1.2c-0.1-0.3-0.2-0.9-0.2-1.6
			c-0.1-0.7-0.1-1.3-0.1-1.6c-0.1-0.8-0.2-1.5-0.5-1.9c-0.3-0.4-0.7-0.7-1.3-0.8c-0.3,0-0.6,0-0.9,0h-2.3v5.8H127.6z M128.7,281.4
			h2.2c1.8,0,2.8-0.8,2.8-2.3c0-0.8-0.2-1.3-0.7-1.6c-0.5-0.3-1.2-0.5-2.1-0.5h-2.2V281.4z"/>
		<path class="st3" d="M82.7,296.6v-1h6.7v1h-2.8v0.7c0,1.1,0.4,2,1.1,2.8c0.7,0.8,1.6,1.4,2.6,1.8l-0.7,0.8c-0.7-0.3-1.3-0.7-2-1.3
			c-0.6-0.6-1.1-1.2-1.5-2c-0.3,0.8-0.7,1.5-1.4,2.1c-0.6,0.6-1.4,1.1-2.1,1.5l-0.8-0.8c1.1-0.5,2-1.1,2.7-2.1
			c0.7-0.9,1.1-2,1.1-3.1v-0.7H82.7z M85.4,309c-0.8-0.5-1.2-1.2-1.2-2.1s0.4-1.6,1.3-2.1s2-0.8,3.4-0.8c1.4,0,2.6,0.3,3.4,0.8
			c0.8,0.5,1.3,1.3,1.3,2.2s-0.4,1.6-1.2,2.1c-0.8,0.5-2,0.8-3.4,0.8S86.3,309.5,85.4,309z M86.3,305.4c-0.6,0.3-1,0.8-1,1.4
			s0.3,1.1,1,1.4c0.7,0.4,1.5,0.5,2.6,0.5c1.1,0,1.9-0.2,2.6-0.5c0.7-0.3,1-0.8,1-1.4c0-0.6-0.3-1.1-1-1.4s-1.5-0.5-2.6-0.5
			C87.8,304.9,86.9,305.1,86.3,305.4z M89.3,299.2v-1h2.9v-0.1c0-1.1,0-2.2-0.1-3.2h1.2v8.7h-1.1v-4.4H89.3z"/>
		<path class="st3" d="M96.3,298.3v-1h5.6v1h-2.2v0.2c0,0.9,0.3,1.7,0.8,2.3c0.6,0.7,1.2,1.2,1.9,1.5l-0.7,0.8
			c-0.4-0.1-0.9-0.5-1.4-1c-0.5-0.5-0.9-1-1.3-1.6c-0.3,0.6-0.7,1.3-1.2,1.8c-0.5,0.6-1,1-1.5,1.2l-0.8-0.7c0.8-0.5,1.5-1,2.1-1.8
			s0.9-1.6,0.9-2.5v-0.2H96.3z M100.7,295.1v1h-3.2v-1H100.7z M107.1,309.6h-1.1v-3.9H98v-1h9.1V309.6z M103.2,303.8v-5.5
			c0-1.2,0-2.2-0.1-3.1h1.2v3.6h1.8V298c0-1.2,0-2.2-0.1-3.1h1.2v8.9h-1.1v-4h-1.8v4H103.2z"/>
		<path class="st3" d="M113.6,304.2v-0.9h5.7V302c-1.2,0-2.2-0.2-2.8-0.5s-1-0.7-1-1.3c0-0.6,0.4-1,1.1-1.4s1.8-0.5,3.2-0.5
			c1.4,0,2.5,0.2,3.2,0.5s1.1,0.8,1.1,1.4c0,0.5-0.3,1-1,1.3s-1.6,0.5-2.8,0.5v1.2h5.7v0.9H113.6z M114.7,297.7v-0.9h10.4v0.9H114.7
			z M116.3,309.2c-0.8-0.4-1.2-1-1.2-1.7c0-0.7,0.4-1.3,1.3-1.7s2-0.6,3.6-0.6c1.5,0,2.7,0.2,3.6,0.6c0.8,0.4,1.3,1,1.3,1.7
			c0,0.7-0.4,1.3-1.2,1.7c-0.8,0.4-2,0.6-3.6,0.6C118.3,309.8,117.1,309.6,116.3,309.2z M117.1,306.5c-0.7,0.2-1,0.6-1,1
			s0.3,0.8,1,1c0.7,0.2,1.6,0.4,2.7,0.4c1.2,0,2.1-0.1,2.7-0.3s1-0.6,1-1c0-0.5-0.3-0.8-1-1c-0.7-0.2-1.6-0.4-2.7-0.4
			C118.7,306.1,117.8,306.2,117.1,306.5z M117.5,299.5c-0.6,0.2-0.9,0.4-0.9,0.7c0,0.3,0.3,0.6,0.9,0.7s1.4,0.3,2.4,0.3
			c1,0,1.8-0.1,2.4-0.2c0.6-0.2,0.9-0.4,0.9-0.7c0-0.3-0.3-0.6-0.9-0.8c-0.6-0.2-1.4-0.3-2.4-0.3
			C118.9,299.2,118.1,299.3,117.5,299.5z M117.3,295.7v-0.9h5.1v0.9H117.3z"/>
		<path class="st3" d="M127.2,307.6v-1h5.7v-3.4H129v-4.5c0-1.2,0-2.3-0.1-3.2h1.2v2.6h6.9v-2.6h1.1v7.7h-4v3.4h5.7v1H127.2z
			 M130,299.1v3.2h6.9v-3.2H130z"/>
		<path class="st3" d="M71.2,321.6v-1c0-0.6,0-1.4-0.1-2.2h1.1v3.1c2.4-0.1,4-0.2,5.1-0.4v1c-1.8,0.3-4,0.4-6.7,0.4h-2.4v-1H71.2z
			 M75.3,320.1h-1c0.3-1.2,0.4-2.4,0.5-3.8h-5.6v-1h6.7C75.9,316.9,75.7,318.5,75.3,320.1z M70.1,326.7c0-0.9,0.4-1.6,1.2-2.1
			c0.8-0.5,2-0.7,3.4-0.7c1.5,0,2.6,0.2,3.4,0.7c0.8,0.5,1.2,1.2,1.2,2.1s-0.4,1.6-1.2,2.1c-0.8,0.5-2,0.7-3.4,0.7
			c-1.5,0-2.6-0.2-3.4-0.7C70.5,328.3,70.1,327.6,70.1,326.7z M72.2,325.4c-0.6,0.3-1,0.8-1,1.3c0,0.6,0.3,1,1,1.4
			c0.6,0.3,1.5,0.5,2.6,0.5c1.1,0,1.9-0.2,2.6-0.5c0.7-0.3,1-0.8,1-1.3c0-0.6-0.3-1.1-1-1.4s-1.5-0.5-2.6-0.5
			C73.7,324.9,72.8,325,72.2,325.4z M78,323.6v-5.7c0-1.1,0-2.2-0.1-3.2h1.2v3.8H81v1h-1.9v4.1H78z"/>
		<path class="st3" d="M81.8,327.3v-1h4.8v-3.4c0-0.6,0-1.4-0.1-2.2h1.2v5.6h6.7v1H81.8z M83.3,316.5v-1h9.4c0,1.3-0.1,2.8-0.3,4.5
			c-0.2,1.6-0.4,3-0.6,4.1h-1c0.2-1.1,0.4-2.4,0.6-3.8c0.2-1.5,0.3-2.7,0.3-3.7H83.3z"/>
		<path class="st3" d="M96.2,325.4v-6.5c0-1.2,0-2.3-0.1-3.2h5.1v9.8H96.2z M100.2,316.6h-2.9v7.8h2.9V316.6z M102.9,328.6V318
			c0-1.2,0-2.2-0.1-3.1h1.2v4.9h1.9v-2c0-1.2,0-2.2-0.1-3.1h1.2v14.6h-1.1v-8.5h-1.9v7.8H102.9z"/>
		<path class="st3" d="M109.9,326.3l-0.9-0.6c2.1-1.5,3.2-3.7,3.2-6.6v-0.3h-2.4v-1h5.9v1h-2.4v0.2c0,0.8,0.1,1.5,0.2,2.2
			c0.1,0.6,0.4,1.2,0.7,1.7s0.6,0.9,0.9,1.2c0.3,0.3,0.6,0.6,1.1,1l-0.7,0.7c-0.5-0.4-1-0.9-1.5-1.5c-0.5-0.7-0.9-1.4-1.2-2.2
			c-0.2,0.8-0.6,1.6-1.1,2.4S110.5,325.9,109.9,326.3z M114.5,315.1v1H111v-1H114.5z M115.1,321.6v-1h2.1V318c0-1.2,0-2.2-0.1-3.1
			h1.2v13.7h-1.1v-7H115.1z M119.8,329.3v-11.5c0-1.2,0-2.2-0.1-3.1h1.2v14.6H119.8z"/>
		<path class="st3" d="M127.2,322.9v-1h5.7v-0.6c0-0.3,0-0.9-0.1-1.7h1.1v2.3h5.7v1H127.2z M134,314.7v0.6c0,0.7,0.3,1.3,0.8,1.9
			c0.5,0.6,1.2,1.1,1.9,1.4c0.7,0.4,1.5,0.6,2.3,0.7l-0.7,0.8c-1-0.2-1.9-0.5-2.9-1.1c-0.9-0.6-1.6-1.2-2-2.1c-0.4,0.8-1.1,1.5-2,2
			c-0.9,0.5-1.9,0.9-2.9,1.1l-0.7-0.9c0.8-0.1,1.6-0.4,2.3-0.7c0.7-0.3,1.4-0.8,1.9-1.4c0.5-0.6,0.8-1.2,0.8-1.9v-0.6H134z
			 M129.9,328.8c-0.8-0.5-1.3-1.1-1.3-2c0-0.9,0.4-1.5,1.3-2c0.8-0.5,2-0.7,3.6-0.7c1.5,0,2.7,0.2,3.6,0.7s1.3,1.2,1.3,2
			c0,0.9-0.4,1.5-1.3,2c-0.8,0.5-2,0.7-3.6,0.7C131.9,329.5,130.7,329.3,129.9,328.8z M130.7,325.5c-0.7,0.3-1,0.7-1,1.3
			c0,0.5,0.3,1,1,1.3c0.7,0.3,1.6,0.5,2.7,0.5c1.1,0,2-0.2,2.7-0.5c0.7-0.3,1-0.7,1-1.3c0-0.6-0.3-1-1-1.3c-0.7-0.3-1.6-0.5-2.7-0.5
			C132.3,325.1,131.4,325.2,130.7,325.5z"/>
		<path class="st3" d="M140.8,322.2v-1h12.6v1h-5.7v1.5h4v3.2h-8v1.3h8.2v0.9h-9.4v-1c0-0.6,0-1.3-0.1-2.1h8v-1.3h-8v-0.9h4v-1.5
			H140.8z M142.4,317.4v-0.9h9.5v0.9h-4c0.3,0.6,0.9,1,1.8,1.4c0.9,0.3,1.8,0.5,2.9,0.6l-0.6,0.8c-0.7,0-1.6-0.2-2.7-0.6
			s-1.8-0.9-2.2-1.6c-0.4,0.7-1.1,1.2-2.1,1.6c-1,0.4-1.9,0.6-2.7,0.6l-0.6-0.8c1.1-0.1,2.1-0.3,2.9-0.7c0.9-0.3,1.5-0.8,1.8-1.4
			H142.4z M144.5,315.5v-1h5.1v1H144.5z"/>
		<path class="st3" d="M68.2,342.8v-1h12.6v1h-5.5v3.3h-1.1v-3.3H68.2z M69.9,340v-2.3c0-1,0-1.9-0.1-2.7H79v5.1H69.9z M69.9,348.7
			v-1.1c0-1.1,0-2.2-0.1-3.2H71v3.2h8.5v1H69.9z M78,335.9h-7v3.1h7V335.9z"/>
		<path class="st3" d="M82,346.2v-1h2.4c0.6,0,1,0,1.3,0v-1.4c-0.8-0.1-1.5-0.4-1.9-0.8c-0.5-0.5-0.7-1-0.7-1.7
			c0-0.8,0.3-1.4,0.9-1.9c0.6-0.5,1.3-0.7,2.3-0.7c0.9,0,1.7,0.2,2.3,0.7s0.9,1.1,0.9,1.9c0,0.7-0.2,1.2-0.7,1.7
			c-0.5,0.5-1.1,0.7-1.9,0.8v1.4c1.9-0.1,3.3-0.2,4.1-0.4v1c-1.9,0.3-4.2,0.4-6.6,0.4H82z M82.6,337.7v-1H90v1H82.6z M86.3,342.8
			c0.6,0,1.1-0.2,1.5-0.5c0.4-0.3,0.6-0.7,0.6-1.2c0-0.5-0.2-0.9-0.6-1.2c-0.4-0.3-0.9-0.5-1.5-0.5c-0.6,0-1.2,0.2-1.5,0.5
			c-0.4,0.3-0.6,0.7-0.6,1.2c0,0.5,0.2,0.9,0.6,1.2C85.2,342.6,85.7,342.8,86.3,342.8z M88.2,334.7v1h-3.9v-1H88.2z M91.6,349v-11.5
			c0-1.2,0-2.2-0.1-3.1h1.2v6.2h2v1.1h-2v7.4H91.6z"/>
		<path class="st3" d="M95.8,337.5v-1h6.3v1H95.8z M101.1,342.4c-0.5,0.5-1.2,0.7-2.1,0.7s-1.6-0.2-2.1-0.7
			c-0.5-0.5-0.8-1.1-0.8-1.8c0-0.7,0.3-1.3,0.8-1.8c0.5-0.5,1.2-0.7,2.1-0.7s1.6,0.2,2.1,0.7c0.5,0.5,0.8,1.1,0.8,1.8
			C101.9,341.4,101.7,341.9,101.1,342.4z M99,342.2c0.5,0,1-0.1,1.3-0.4s0.5-0.7,0.5-1.1c0-0.4-0.2-0.8-0.5-1.1
			c-0.3-0.3-0.8-0.4-1.3-0.4c-0.6,0-1,0.1-1.3,0.4c-0.3,0.3-0.5,0.7-0.5,1.1c0,0.5,0.2,0.8,0.5,1.1C98,342,98.5,342.2,99,342.2z
			 M100.5,334.6v1h-3.2v-1H100.5z M99,348.5c-0.8-0.5-1.2-1.2-1.2-2s0.4-1.5,1.3-2c0.8-0.5,2-0.7,3.5-0.7c1.5,0,2.7,0.2,3.5,0.7
			c0.8,0.5,1.2,1.2,1.2,2s-0.4,1.5-1.2,2c-0.8,0.5-2,0.7-3.5,0.7C101,349.2,99.8,349,99,348.5z M98.8,346.5c0,0.5,0.3,1,1,1.3
			c0.7,0.3,1.6,0.5,2.7,0.5s2-0.2,2.7-0.5c0.7-0.3,1-0.7,1-1.3c0-0.6-0.3-1-1-1.3c-0.7-0.3-1.6-0.5-2.7-0.5c-1.1,0-2,0.2-2.7,0.5
			C99.1,345.5,98.8,346,98.8,346.5z M103.2,343.3v-5.5c0-1.2,0-2.2-0.1-3.1h1.2v3.8h1.8v-1c0-1.2,0-2.2-0.1-3.1h1.2v9.3h-1.1v-4.3
			h-1.8v3.8H103.2z"/>
		<path class="st3" d="M113.6,335v2.9c0,3,1.3,5.3,3.8,6.9l-0.9,0.8c-1.7-1.2-2.9-2.8-3.5-4.6c-0.2,0.9-0.7,1.8-1.4,2.7
			c-0.7,1-1.4,1.7-2.1,2.2l-0.9-0.8c1.3-0.8,2.2-1.9,2.9-3.2c0.7-1.3,1-2.7,1-4.3c0-1.1,0-2-0.1-2.8H113.6z M118.7,349v-11.5
			c0-1.2,0-2.2-0.1-3.1h1.2v5.6h2.1v1.1h-2.1v7.9H118.7z"/>
		<path class="st3" d="M128.3,335.3h6.1c0,2.2-0.6,4.2-1.6,6.1s-2.6,3.4-4.4,4.5l-0.9-0.7c1.8-0.9,3.1-2.2,4.1-3.8
			c1-1.6,1.6-3.3,1.6-5.1h-4.9V335.3z M137.5,349v-11.5c0-1.2,0-2.2-0.1-3.1h1.2V349H137.5z"/>
		<path class="st3" d="M142.6,339.7c0-0.6,0.3-1.1,0.9-1.4c0.6-0.3,1.4-0.5,2.4-0.5c1,0,1.8,0.2,2.4,0.5c0.6,0.3,0.9,0.8,0.9,1.4
			c0,0.6-0.2,1-0.7,1.3c-0.5,0.3-1.1,0.5-2,0.6v1.3c1.9-0.1,3.3-0.2,4.3-0.3v1c-1.8,0.3-4,0.4-6.7,0.4h-2.6v-1h4v-1.3
			c-0.9-0.1-1.5-0.2-2-0.6C142.8,340.7,142.6,340.2,142.6,339.7z M142,337v-0.9h7.5v0.9H142z M152.3,349.1h-1.1v-2.8h-8v-1h9.1
			V349.1z M143.6,339.7c0,0.7,0.7,1.1,2.2,1.1c1.5,0,2.2-0.4,2.2-1.1c0-0.7-0.7-1.1-2.2-1.1C144.4,338.5,143.6,338.9,143.6,339.7z
			 M147.7,334.4v0.9h-3.8v-0.9H147.7z M151.2,344.4v-6.8c0-1.1,0-2.2-0.1-3.2h1.2v10H151.2z"/>
		<path class="st3" d="M35.1,355.9v-1h6.7v1H39v1c0,1.1,0.4,2.1,1.1,2.9c0.7,0.9,1.6,1.5,2.6,1.9l-0.7,0.8c-0.6-0.3-1.3-0.7-1.9-1.3
			c-0.7-0.6-1.2-1.3-1.5-2c-0.3,0.8-0.7,1.5-1.4,2.2c-0.7,0.7-1.4,1.2-2.1,1.6l-0.8-0.8c1.1-0.5,2-1.2,2.7-2.1c0.7-1,1.1-2,1.1-3.2
			v-1H35.1z M36.9,368.4v-1.6c0-1.1,0-2.1-0.1-3H38v3.6h8v1H36.9z M41.7,358.7v-1h2.9v-0.3c0-1.1,0-2.2-0.1-3.2h1.2v10.8h-1.1v-6.3
			H41.7z"/>
		<path class="st3" d="M52.5,354.7v2.8c0,3.1,1.3,5.4,3.8,7l-0.9,0.8c-1.8-1.3-2.9-2.8-3.5-4.6c-0.2,0.9-0.7,1.8-1.4,2.8
			c-0.7,1-1.4,1.7-2.2,2.2l-0.9-0.8c1.3-0.8,2.2-1.9,2.9-3.2c0.7-1.3,1-2.7,1-4.3c0-1.1,0-2-0.1-2.8H52.5z M58,368.8v-11.5
			c0-1.2,0-2.2-0.1-3.1h1.2v14.6H58z"/>
		<path class="st3" d="M67,360.6v-2.5c0-1.2,0-2.3-0.1-3.2h6.2v5.7H67z M68.3,368.7l-0.7-0.9c1.1-0.1,2-0.5,2.9-1
			c0.9-0.5,1.4-1.1,1.5-1.7h-3.9v-1h9.2v1h-4c0.2,0.6,0.7,1.1,1.6,1.7c0.9,0.5,1.8,0.9,2.9,1l-0.7,0.9c-0.9-0.2-1.8-0.5-2.6-1
			c-0.8-0.5-1.4-1-1.8-1.6C71.8,367.4,70.4,368.3,68.3,368.7z M72,355.8h-4v3.8h4V355.8z M70.3,363v-1h4.6v1H70.3z M76.1,362.3v-4.9
			c0-1.1,0-2.2-0.1-3.2h1.2v8.1H76.1z"/>
		<path class="st3" d="M84.1,363.8v-1h12.6v1h-5.7v5h-1.1v-5H84.1z M93.8,356.4v-1.9h1.1v6.3h-9.1v-3.1c0-1.2,0-2.3-0.1-3.2h1.2v1.9
			H93.8z M86.9,357.4v2.5h6.9v-2.5H86.9z"/>
		<path class="st3" d="M97.7,366.8v-1h12.6v1H97.7z M104.6,354.7v1.3c0,1.2,0.5,2.4,1.6,3.5c1,1.1,2.2,1.9,3.6,2.3l-0.7,0.8
			c-1-0.4-2-1-3-1.8s-1.7-1.7-2-2.7c-0.4,1-1,1.9-2,2.7c-1,0.8-2,1.4-3,1.8l-0.8-0.9c1.4-0.4,2.6-1.2,3.6-2.3c1-1.1,1.6-2.3,1.6-3.5
			c0-0.6,0-1-0.1-1.3H104.6z"/>
		<path class="st3" d="M116.6,361.7v-3.8c0-1.2,0-2.3-0.1-3.2h1.2v2.5h4v-2.5h1.1v7.1H116.6z M117.7,360.8h4v-2.6h-4V360.8z
			 M126.7,368.8h-1.1v-4.1h-7.7v-1h8.8V368.8z M125.6,362.8v-5.4c0-1.1,0-2.2-0.1-3.2h1.2v3.3h2v1h-2v4.4H125.6z"/>
		<path class="st3" d="M136.4,358.7h-5v2.1h1.9c1.8,0,3.5-0.2,5.2-0.5v1c-0.7,0.1-1.6,0.3-2.7,0.4c-1,0.1-1.9,0.2-2.6,0.2h-2.8v-1.5
			c0-0.7,0-1.5-0.1-2.6h5.1v-2h-5v-1h6.1V358.7z M131.7,368.5v-1.9c0-1.2,0-2.3-0.1-3.2h8.7v5.1H131.7z M132.8,364.4v3.1h6.4v-3.1
			H132.8z M139.2,362.6v-5.2c0-1.1,0-2.2-0.1-3.2h1.2v3.2h1.9v1h-1.9v4.1H139.2z"/>
		<path class="st3" d="M143.7,366v-1h2.8c0.5,0,0.9,0,1.2,0v-1.5c-0.8-0.1-1.5-0.3-2-0.8c-0.5-0.4-0.7-1-0.7-1.7
			c0-0.8,0.3-1.4,0.9-1.8c0.6-0.5,1.4-0.7,2.3-0.7c1,0,1.7,0.2,2.3,0.7c0.6,0.5,0.9,1.1,0.9,1.8c0,0.7-0.2,1.2-0.7,1.7
			c-0.5,0.4-1.1,0.7-1.9,0.8v1.5c1.9-0.1,3.3-0.2,4.3-0.4v1c-2,0.3-4.2,0.4-6.6,0.4H143.7z M144.3,357.6v-1h7.5v1H144.3z
			 M148.1,362.5c0.6,0,1.2-0.1,1.6-0.4c0.4-0.3,0.6-0.7,0.6-1.2c0-0.5-0.2-0.9-0.6-1.1c-0.4-0.3-0.9-0.4-1.6-0.4
			c-0.7,0-1.2,0.1-1.6,0.4s-0.6,0.7-0.6,1.1c0,0.5,0.2,0.9,0.6,1.2C146.9,362.4,147.4,362.5,148.1,362.5z M150,354.4v1H146v-1H150z
			 M153.6,368.8v-11.5c0-1.2,0-2.2-0.1-3.1h1.2v14.6H153.6z"/>
		<path class="st3" d="M162.2,355.9v-1h6.9v1h-2.9v0.8c0,1.1,0.4,2.1,1.1,2.9c0.7,0.9,1.6,1.5,2.6,1.9l-0.7,0.8
			c-0.6-0.3-1.3-0.7-1.9-1.3c-0.7-0.6-1.2-1.3-1.5-2c-0.3,0.8-0.7,1.5-1.4,2.2c-0.7,0.7-1.4,1.2-2.1,1.6l-0.8-0.8
			c1.1-0.4,2-1.2,2.7-2.1c0.7-1,1.1-2,1.1-3.2v-0.7H162.2z M164,368.4v-1.6c0-1.1,0-2.1-0.1-3h1.2v3.6h8v1H164z M171.6,364.9v-7.5
			c0-1.1,0-2.2-0.1-3.2h1.2v10.8H171.6z"/>
		<path class="st3" d="M175.3,357.2v-1h6.3v1H175.3z M180.6,362.2c-0.5,0.5-1.2,0.7-2.1,0.7s-1.6-0.2-2.1-0.7
			c-0.5-0.5-0.8-1.1-0.8-1.8c0-0.7,0.3-1.3,0.8-1.8c0.5-0.5,1.2-0.7,2.1-0.7s1.6,0.2,2.1,0.7c0.5,0.5,0.8,1.1,0.8,1.8
			C181.3,361.1,181.1,361.7,180.6,362.2z M178.5,361.9c0.5,0,1-0.1,1.3-0.4s0.5-0.7,0.5-1.1c0-0.4-0.2-0.8-0.5-1.1
			c-0.3-0.3-0.8-0.4-1.3-0.4c-0.6,0-1,0.1-1.3,0.4c-0.3,0.3-0.5,0.7-0.5,1.1c0,0.5,0.2,0.8,0.5,1.1
			C177.5,361.8,177.9,361.9,178.5,361.9z M180,354.4v1h-3.2v-1H180z M178.4,368.3c-0.8-0.5-1.2-1.2-1.2-2s0.4-1.5,1.3-2
			c0.8-0.5,2-0.7,3.5-0.7c1.5,0,2.7,0.2,3.5,0.7c0.8,0.5,1.2,1.2,1.2,2s-0.4,1.5-1.2,2c-0.8,0.5-2,0.7-3.5,0.7
			C180.4,369,179.2,368.8,178.4,368.3z M178.2,366.2c0,0.5,0.3,1,1,1.3c0.7,0.3,1.6,0.5,2.7,0.5s2-0.2,2.7-0.5c0.7-0.3,1-0.7,1-1.3
			c0-0.6-0.3-1-1-1.3c-0.7-0.3-1.6-0.5-2.7-0.5c-1.1,0-2,0.2-2.7,0.5C178.5,365.3,178.2,365.7,178.2,366.2z M182.6,363v-5.5
			c0-1.2,0-2.2-0.1-3.1h1.2v3.8h1.8v-1c0-1.2,0-2.2-0.1-3.1h1.2v9.3h-1.1v-4.3h-1.8v3.8H182.6z"/>
	</g>
	<g>
		<path class="st3" d="M318,279c0-1,0.3-1.9,1-2.6c0.7-0.7,1.5-1,2.5-1c1.2,0,2.1,0.5,2.8,1.4h3.4c0-0.3,0-0.9-0.1-1.7h1.2v8.8h-1.1
			v-2.9h-3.3c-0.7,1-1.6,1.5-2.9,1.5c-1,0-1.8-0.4-2.5-1.1C318.3,280.9,318,280,318,279z M319.7,277.1c-0.4,0.5-0.7,1.1-0.7,1.9
			s0.2,1.4,0.7,1.9c0.4,0.5,1,0.8,1.8,0.8c0.7,0,1.3-0.3,1.7-0.8c0.4-0.5,0.6-1.1,0.6-1.9s-0.2-1.4-0.6-1.9c-0.4-0.5-1-0.7-1.7-0.7
			S320.2,276.6,319.7,277.1z M320.8,289.2c-0.8-0.5-1.2-1.2-1.2-2.1s0.4-1.6,1.3-2.1s2-0.8,3.4-0.8c1.4,0,2.6,0.3,3.4,0.8
			c0.8,0.5,1.3,1.3,1.3,2.2s-0.4,1.6-1.2,2.1c-0.8,0.5-2,0.8-3.4,0.8C322.8,290,321.7,289.7,320.8,289.2z M321.7,285.6
			c-0.7,0.3-1,0.8-1,1.4s0.3,1.1,1,1.4c0.7,0.4,1.5,0.5,2.6,0.5s1.9-0.2,2.6-0.5c0.7-0.3,1-0.8,1-1.4c0-0.6-0.3-1.1-1-1.4
			s-1.5-0.5-2.6-0.5C323.2,285.1,322.3,285.3,321.7,285.6z M327.7,280.1v-2.3h-2.9c0.1,0.4,0.2,0.8,0.2,1.2c0,0.4-0.1,0.7-0.2,1.1
			H327.7z"/>
		<path class="st3" d="M335.5,275.5v1.3c0,1.2,0.3,2.2,1,3.1c0.7,0.9,1.6,1.5,2.6,1.9l-0.7,0.9c-0.7-0.3-1.3-0.7-2-1.3
			s-1.2-1.3-1.5-2c-0.2,0.8-0.7,1.6-1.4,2.2c-0.7,0.7-1.4,1.2-2.2,1.6l-0.8-0.8c1.1-0.5,2-1.3,2.7-2.2c0.7-0.9,1-2,1-3.2
			c0-0.6,0-1.1-0.1-1.4H335.5z M332.9,287.1c0-0.9,0.4-1.6,1.2-2.1c0.8-0.5,1.9-0.8,3.4-0.8c1.4,0,2.6,0.3,3.4,0.8
			c0.8,0.5,1.2,1.3,1.2,2.2s-0.4,1.6-1.2,2.1c-0.8,0.5-1.9,0.8-3.4,0.8c-1.4,0-2.6-0.3-3.4-0.8C333.3,288.7,332.9,288,332.9,287.1z
			 M335,285.6c-0.6,0.3-0.9,0.8-0.9,1.4s0.3,1.1,0.9,1.4c0.6,0.4,1.5,0.5,2.5,0.5c1.1,0,1.9-0.2,2.5-0.5c0.6-0.3,1-0.8,1-1.4
			c0-0.6-0.3-1.1-1-1.4c-0.6-0.4-1.5-0.5-2.5-0.5C336.4,285.1,335.6,285.3,335,285.6z M340.7,283.9v-5.5c0-1.1,0-2.2-0.1-3.2h1.2
			v3.5h1.9v1h-1.9v4.3H340.7z"/>
		<path class="st3" d="M350,286.8l-1-0.7c2.2-1.6,3.4-4.1,3.4-7.6v-1.3H350v-1h5.7v1h-2.3v1.3c0,1.7,0.2,3.2,0.7,4.3
			s1.2,2.1,2.2,2.8l-0.8,0.8c-0.5-0.4-1.1-1-1.6-1.7c-0.5-0.7-0.9-1.5-1.1-2.4c-0.2,0.8-0.6,1.7-1.1,2.5
			C351.2,285.7,350.6,286.4,350,286.8z M355,280.9v-1h2.3v-1.4c0-1.2,0-2.2-0.1-3.1h1.2v13.7h-1.1v-8.2H355z M360,289.8v-11.5
			c0-1.2,0-2.2-0.1-3.1h1.2v14.6H360z"/>
		<path class="st3" d="M363.8,276.9v-1h6.7v1h-2.8v0.6c0,1.1,0.4,2,1.1,2.8c0.7,0.8,1.6,1.4,2.6,1.8l-0.7,0.8
			c-0.7-0.3-1.3-0.7-2-1.3c-0.6-0.6-1.1-1.2-1.5-2c-0.3,0.8-0.7,1.5-1.4,2.1c-0.6,0.6-1.4,1.1-2.1,1.5l-0.8-0.8c1.1-0.5,2-1.1,2.7-2
			c0.7-0.9,1.1-1.9,1.1-3.1v-0.6H363.8z M373.8,289.8h-1.1v-4.1h-7.7v-1h8.8V289.8z M372.8,283.9v-5.5c0-1.1,0-2.2-0.1-3.2h1.2v3.6
			h1.9v1h-1.9v4.1H372.8z"/>
		<path class="st3" d="M382,281.6v-2.5c0-1.2,0-2.3-0.1-3.2h6.2v5.7H382z M383.4,289.7l-0.7-0.9c1.1-0.1,2-0.5,2.9-1
			c0.9-0.5,1.4-1.1,1.5-1.7h-3.9v-1h9.2v1h-4c0.2,0.6,0.7,1.1,1.6,1.7c0.9,0.5,1.8,0.9,2.9,1l-0.7,0.9c-0.9-0.2-1.8-0.5-2.6-1
			c-0.8-0.5-1.4-1-1.8-1.6C386.9,288.4,385.4,289.3,383.4,289.7z M387.1,276.9h-4v3.8h4V276.9z M385.4,284v-1h4.6v1H385.4z
			 M391.2,283.3v-4.9c0-1.1,0-2.2-0.1-3.2h1.2v8.1H391.2z"/>
		<path class="st3" d="M399.2,283v-1h2.4c0.7,0,1.2,0,1.6,0v-1.7h1.1v1.7c1.8-0.1,3.1-0.2,3.9-0.3v1c-1.8,0.3-4,0.4-6.7,0.4H399.2z
			 M400.4,277.8v-0.9h6.8v0.9h-2.7c0.3,0.9,1.4,1.5,3.2,1.9l-0.6,0.8c-0.5-0.1-1-0.2-1.7-0.6c-0.6-0.3-1.2-0.7-1.6-1.3
			c-0.4,0.6-0.9,1.1-1.5,1.4c-0.6,0.4-1.3,0.6-1.8,0.7l-0.7-0.7c0.5-0.1,1-0.3,1.4-0.4c0.4-0.2,0.8-0.4,1.2-0.7s0.6-0.7,0.7-1.1
			H400.4z M402.5,287.3v1.3h7.7v1h-8.9v-0.7c0-0.9,0-1.8-0.1-2.5h7.6v-1.2h-7.5v-1h8.6v3.2H402.5z M402,276v-0.9h3.6v0.9H402z
			 M408.9,283.4v-5c0-1.1,0-2.2-0.1-3.2h1.2v3.4h1.9v1H410v3.8H408.9z"/>
		<path class="st3" d="M413.3,279c0-1,0.3-1.9,1-2.6c0.7-0.7,1.5-1,2.5-1c1.2,0,2.1,0.5,2.8,1.4h3.4c0-0.3,0-0.9-0.1-1.7h1.2v8.8
			H423v-2.9h-3.3c-0.7,1-1.6,1.5-2.9,1.5c-1,0-1.8-0.4-2.5-1.1C413.6,280.9,413.3,280,413.3,279z M415,277.1
			c-0.4,0.5-0.7,1.1-0.7,1.9s0.2,1.4,0.7,1.9c0.4,0.5,1,0.8,1.8,0.8c0.7,0,1.3-0.3,1.7-0.8c0.4-0.5,0.6-1.1,0.6-1.9
			s-0.2-1.4-0.6-1.9c-0.4-0.5-1-0.7-1.7-0.7S415.5,276.6,415,277.1z M416.1,289.2c-0.8-0.5-1.2-1.2-1.2-2.1s0.4-1.6,1.3-2.1
			s2-0.8,3.4-0.8c1.4,0,2.6,0.3,3.4,0.8c0.8,0.5,1.3,1.3,1.3,2.2s-0.4,1.6-1.2,2.1c-0.8,0.5-2,0.8-3.4,0.8
			C418.1,290,417,289.7,416.1,289.2z M417,285.6c-0.7,0.3-1,0.8-1,1.4s0.3,1.1,1,1.4c0.7,0.4,1.5,0.5,2.6,0.5s1.9-0.2,2.6-0.5
			c0.7-0.3,1-0.8,1-1.4c0-0.6-0.3-1.1-1-1.4s-1.5-0.5-2.6-0.5C418.5,285.1,417.6,285.3,417,285.6z M423,280.1v-2.3h-2.9
			c0.1,0.4,0.2,0.8,0.2,1.2c0,0.4-0.1,0.7-0.2,1.1H423z"/>
		<path class="st3" d="M311.2,298.8c0-1,0.3-1.9,1-2.6c0.7-0.7,1.5-1,2.5-1c1.2,0,2.1,0.5,2.8,1.4h3.4c0-0.3,0-0.9-0.1-1.7h1.2v8.8
			h-1.1v-2.9h-3.3c-0.7,1-1.6,1.5-2.9,1.5c-1,0-1.8-0.4-2.5-1.1C311.5,300.6,311.2,299.8,311.2,298.8z M312.9,296.9
			c-0.4,0.5-0.7,1.1-0.7,1.9s0.2,1.4,0.7,1.9c0.4,0.5,1,0.8,1.8,0.8c0.7,0,1.3-0.3,1.7-0.8c0.4-0.5,0.6-1.1,0.6-1.9
			s-0.2-1.4-0.6-1.9c-0.4-0.5-1-0.7-1.7-0.7S313.3,296.4,312.9,296.9z M314,309c-0.8-0.5-1.2-1.2-1.2-2.1s0.4-1.6,1.3-2.1
			s2-0.8,3.4-0.8c1.4,0,2.6,0.3,3.4,0.8c0.8,0.5,1.3,1.3,1.3,2.2s-0.4,1.6-1.2,2.1c-0.8,0.5-2,0.8-3.4,0.8
			C316,309.8,314.9,309.5,314,309z M314.9,305.4c-0.7,0.3-1,0.8-1,1.4s0.3,1.1,1,1.4c0.7,0.4,1.5,0.5,2.6,0.5s1.9-0.2,2.6-0.5
			c0.7-0.3,1-0.8,1-1.4c0-0.6-0.3-1.1-1-1.4s-1.5-0.5-2.6-0.5C316.4,304.9,315.5,305.1,314.9,305.4z M320.9,299.8v-2.3h-2.9
			c0.1,0.4,0.2,0.8,0.2,1.2c0,0.4-0.1,0.7-0.2,1.1H320.9z"/>
		<path class="st3" d="M328.7,295.3v1.3c0,1.2,0.3,2.2,1,3.1c0.7,0.9,1.6,1.5,2.6,1.9l-0.7,0.9c-0.7-0.3-1.3-0.7-2-1.3
			s-1.2-1.3-1.5-2c-0.2,0.8-0.7,1.6-1.4,2.2c-0.7,0.7-1.4,1.2-2.2,1.6l-0.8-0.8c1.1-0.5,2-1.3,2.7-2.2c0.7-0.9,1-2,1-3.2
			c0-0.6,0-1.1-0.1-1.4H328.7z M326.1,306.8c0-0.9,0.4-1.6,1.2-2.1c0.8-0.5,1.9-0.8,3.4-0.8c1.4,0,2.6,0.3,3.4,0.8
			c0.8,0.5,1.2,1.3,1.2,2.2s-0.4,1.6-1.2,2.1c-0.8,0.5-1.9,0.8-3.4,0.8c-1.4,0-2.6-0.3-3.4-0.8C326.5,308.4,326.1,307.7,326.1,306.8
			z M328.1,305.4c-0.6,0.3-0.9,0.8-0.9,1.4s0.3,1.1,0.9,1.4c0.6,0.4,1.5,0.5,2.5,0.5c1.1,0,1.9-0.2,2.5-0.5c0.6-0.3,1-0.8,1-1.4
			c0-0.6-0.3-1.1-1-1.4c-0.6-0.4-1.5-0.5-2.5-0.5C329.6,304.9,328.8,305.1,328.1,305.4z M333.9,303.7v-5.5c0-1.1,0-2.2-0.1-3.2h1.2
			v3.5h1.9v1H335v4.3H333.9z"/>
		<path class="st3" d="M342.7,303v-1h1.7l0-4.7h1.1l0,4.7h1.3c0.5,0,1,0,1.3,0l0.1-4.7h1.1l-0.1,4.7c0.9-0.1,1.7-0.1,2.4-0.3v1
			c-1.3,0.2-2.9,0.4-4.8,0.4H342.7z M343.1,296.6v-1h7.4v1H343.1z M345.1,309.2v-1.5c0-1.1,0-2.1-0.1-3h1.2v3.5h8v1H345.1z
			 M350.6,300.7v-1h2.2v-1.5h-2.2v-1h2.2c0-0.9,0-1.6-0.1-2.2h1.2v10.8h-1.1v-5H350.6z"/>
		<path class="st3" d="M357,296.6v-1h6.9v1h-2.8v0.5c0,1.1,0.3,1.9,1,2.6c0.7,0.7,1.5,1.2,2.6,1.6l-0.6,0.8c-0.7-0.3-1.3-0.6-2-1.1
			c-0.6-0.5-1.1-1.1-1.5-1.8c-0.5,1.3-1.7,2.5-3.5,3.3l-0.8-0.8c2.5-1,3.7-2.6,3.7-4.7v-0.4H357z M358.7,309.3v-2.7
			c0-1.2,0-2.3-0.1-3.2h1.2v1.8h6.7v-1.8h1.1v6H358.7z M359.8,308.3h6.7v-2.2h-6.7V308.3z M366.4,302.6v-4.4c0-1.1,0-2.2-0.1-3.2
			h1.2v7.7H366.4z"/>
		<path class="st3" d="M375.2,301.4v-2.5c0-1.2,0-2.3-0.1-3.2h6.2v5.7H375.2z M376.6,309.5l-0.7-0.9c1.1-0.1,2-0.5,2.9-1
			c0.9-0.5,1.4-1.1,1.5-1.7h-3.9v-1h9.2v1h-4c0.2,0.6,0.7,1.1,1.6,1.7c0.9,0.5,1.8,0.9,2.9,1l-0.7,0.9c-0.9-0.2-1.8-0.5-2.6-1
			c-0.8-0.5-1.4-1-1.8-1.6C380.1,308.2,378.6,309,376.6,309.5z M380.2,296.6h-4v3.8h4V296.6z M378.6,303.8v-1h4.6v1H378.6z
			 M384.4,303.1v-4.9c0-1.1,0-2.2-0.1-3.2h1.2v8.1H384.4z"/>
		<path class="st3" d="M393.4,305.7v-6.6c0-1.2,0-2.2-0.1-3.2h6.3v1h-5.1v7.8h1.7c1.9,0,3.7-0.2,5.2-0.6v1c-0.7,0.2-1.6,0.3-2.7,0.4
			c-1.1,0.1-2,0.2-2.7,0.2H393.4z M402.5,309.5V298c0-1.2,0-2.2-0.1-3.1h1.2v14.6H402.5z"/>
		<path class="st3" d="M406.6,296.8v-1h7.1v1h-3v1.6c0,1.5,0.3,2.8,1,4c0.7,1.2,1.6,2.2,2.8,2.9l-0.8,0.8c-0.8-0.5-1.5-1.2-2.1-2
			s-1.1-1.7-1.4-2.6c-0.2,0.9-0.7,1.9-1.4,2.8c-0.7,0.9-1.4,1.7-2.1,2.1l-0.9-0.8c1.3-0.8,2.2-1.8,2.9-3.2c0.7-1.3,1-2.8,1-4.4v-1.3
			H406.6z M415.6,309.5V298c0-1.2,0-2.2-0.1-3.1h1.2v5.7h2.1v1.1h-2.1v7.9H415.6z"/>
		<path class="st3" d="M420.1,299c0-1.1,0.3-1.9,1-2.7c0.7-0.7,1.5-1.1,2.5-1.1c1,0,1.8,0.4,2.5,1.1c0.7,0.7,1,1.6,1,2.7
			c0,1-0.3,1.9-1,2.7c-0.7,0.7-1.5,1.1-2.5,1.1c-1,0-1.9-0.4-2.5-1.1S420.1,300,420.1,299z M421.8,297c-0.5,0.5-0.7,1.2-0.7,2
			c0,0.8,0.2,1.4,0.7,2s1,0.8,1.8,0.8s1.3-0.3,1.8-0.8c0.4-0.5,0.7-1.2,0.7-2c0-0.8-0.2-1.4-0.7-2c-0.4-0.5-1-0.8-1.8-0.8
			S422.3,296.4,421.8,297z M422.2,309.2v-1.6c0-1.1,0-2.1-0.1-3.1h1.2v3.6h8.1v1H422.2z M429.8,305.7v-7.5c0-1.1,0-2.2-0.1-3.2h1.2
			v10.8H429.8z"/>
		<path class="st3" d="M302.1,324.6c-0.1,0.8-0.4,1.5-0.8,2c-0.5,0.5-1.1,0.9-1.7,1.1s-1.4,0.3-2.1,0.2c-0.5-0.1-1.1-0.2-1.7-0.5
			c-0.6-0.3-1.1-0.5-1.5-0.9l0.5-1c1,0.7,1.9,1.2,2.9,1.3c0.8,0.1,1.5-0.1,2.2-0.5c0.7-0.4,1-1,1.1-1.8c0.1-1.3-0.5-2.2-1.9-2.6
			c-0.2-0.1-0.5-0.1-0.9-0.3c-0.4-0.1-0.7-0.2-0.9-0.3c-1.8-0.6-2.7-1.6-2.7-3c0-1,0.4-1.8,1.1-2.4c0.7-0.6,1.6-0.9,2.7-0.8
			c1.2,0.1,2.2,0.4,3.2,1.1l-0.5,0.9c-0.9-0.6-1.8-1-2.6-1c-0.7,0-1.3,0.2-1.8,0.6c-0.5,0.4-0.8,0.9-0.8,1.6c0,0.6,0.2,1,0.5,1.3
			c0.4,0.3,0.8,0.6,1.4,0.8c0.2,0.1,0.5,0.2,1,0.3c0.5,0.1,0.8,0.2,0.9,0.3c0.8,0.3,1.4,0.7,1.9,1.3S302.2,323.7,302.1,324.6z"/>
		<path class="st3" d="M311.7,327.7h-1.5l-5-10.9v10.9h-1.1v-9.2c0-1.2,0-2.2-0.1-3.1h1.6l5,11v-7.9c0-1.2,0-2.2-0.1-3.1h1.2V327.7z
			"/>
		<path class="st3" d="M321.5,324.6c-0.1,0.8-0.4,1.5-0.8,2c-0.5,0.5-1.1,0.9-1.7,1.1s-1.4,0.3-2.1,0.2c-0.5-0.1-1.1-0.2-1.7-0.5
			c-0.6-0.3-1.1-0.5-1.5-0.9l0.5-1c1,0.7,1.9,1.2,2.9,1.3c0.8,0.1,1.5-0.1,2.2-0.5c0.7-0.4,1-1,1.1-1.8c0.1-1.3-0.5-2.2-1.9-2.6
			c-0.2-0.1-0.5-0.1-0.9-0.3c-0.4-0.1-0.7-0.2-0.9-0.3c-1.8-0.6-2.7-1.6-2.7-3c0-1,0.4-1.8,1.1-2.4c0.7-0.6,1.6-0.9,2.7-0.8
			c1.2,0.1,2.2,0.4,3.2,1.1l-0.5,0.9c-0.9-0.6-1.8-1-2.6-1c-0.7,0-1.3,0.2-1.8,0.6c-0.5,0.4-0.8,0.9-0.8,1.6c0,0.6,0.2,1,0.5,1.3
			c0.4,0.3,0.8,0.6,1.4,0.8c0.2,0.1,0.5,0.2,1,0.3c0.5,0.1,0.8,0.2,0.9,0.3c0.8,0.3,1.4,0.7,1.9,1.3S321.6,323.7,321.5,324.6z"/>
		<path class="st3" d="M327.4,321.9v-1H340v1H327.4z M328.6,319.6v-1h1.9l-0.1-2.6h-1.5v-1h9.6v1h-1.6l-0.1,2.6h1.9v1H328.6z
			 M330.3,326.6v1.5h8.1v1h-9.3v-0.9c0-0.9,0-1.8-0.1-2.5h8v-1.4h-7.9v-1h9v3.3H330.3z M331.5,316l0.1,2.6h4.2l0.1-2.6H331.5z"/>
		<path class="st3" d="M346.7,319.5H343v2.2h1.1c1.3,0,2.5-0.1,3.6-0.3v1c-1.2,0.2-2.5,0.3-3.8,0.3h-2v-1.5c0-0.8,0-1.7-0.1-2.7h3.7
			v-2.2H342v-1h4.7V319.5z M348.2,323.7v0.3c0,0.7,0.2,1.3,0.8,2c0.5,0.6,1.1,1.2,1.8,1.6c0.7,0.4,1.4,0.7,2,0.8l-0.7,0.8
			c-0.9-0.3-1.8-0.7-2.6-1.3c-0.8-0.6-1.4-1.3-1.8-2.2c-0.4,0.8-1,1.5-1.8,2.1c-0.8,0.6-1.7,1-2.6,1.3l-0.7-0.8
			c0.7-0.2,1.4-0.5,2.1-0.8c0.7-0.4,1.2-0.9,1.7-1.5c0.5-0.6,0.7-1.3,0.7-2v-0.3H348.2z M348.4,323v-5c0-1.2,0-2.2-0.1-3.1h1.2v3.4
			h1.9v-0.6c0-1.2,0-2.2-0.1-3.1h1.2v9.8h-1.1v-5.2h-1.9v3.7H348.4z"/>
		<path class="st3" d="M354.6,323v-1h5.7v-1.8h-4.6v-1h1.9l-0.1-3.2h-1.5v-1h9.6v1h-1.6l-0.1,3.2h1.9v1h-4.6v1.8h5.7v1H354.6z
			 M356.4,329v-1.8c0-1,0-1.9-0.1-2.7h9.1v4.5H356.4z M364.4,325.5h-6.9v2.6h6.9V325.5z M358.7,316.1l0.1,3.2h4.2l0.1-3.2H358.7z"/>
		<path class="st3" d="M372.8,323.1v-1h12.6v1h-5.5v3.2h-1.1v-3.2H372.8z M379.1,320.6c-1.5,0-2.6-0.3-3.5-0.8
			c-0.9-0.5-1.3-1.3-1.3-2.2c0-0.9,0.4-1.7,1.3-2.2c0.9-0.5,2-0.8,3.5-0.8c1.5,0,2.6,0.3,3.5,0.8c0.9,0.5,1.3,1.3,1.3,2.2
			c0,0.9-0.4,1.6-1.3,2.2S380.5,320.6,379.1,320.6z M374.5,328.9v-1c0-1.1,0-2.2-0.1-3.2h1.2v3.1h8.5v1H374.5z M379.1,319.7
			c1.1,0,2-0.2,2.7-0.6c0.7-0.4,1-0.9,1-1.5c0-0.6-0.3-1.2-1-1.5c-0.7-0.4-1.6-0.6-2.7-0.6c-1.1,0-2,0.2-2.7,0.6
			c-0.7,0.4-1,0.9-1,1.5c0,0.7,0.3,1.2,1,1.5C377,319.5,377.9,319.7,379.1,319.7z"/>
		<path class="st3" d="M386.9,318.5c0-1,0.3-1.9,1-2.6c0.7-0.7,1.5-1,2.5-1c1.2,0,2.1,0.5,2.8,1.4h3.4c0-0.3,0-0.9-0.1-1.7h1.2v8.8
			h-1.1v-2.9h-3.3c-0.7,1-1.6,1.5-2.9,1.5c-1,0-1.8-0.4-2.5-1.1S386.9,319.5,386.9,318.5z M388.7,316.6c-0.4,0.5-0.7,1.1-0.7,1.9
			s0.2,1.4,0.7,1.9c0.4,0.5,1,0.8,1.8,0.8c0.7,0,1.3-0.3,1.7-0.8c0.4-0.5,0.7-1.1,0.7-1.9s-0.2-1.4-0.6-1.9s-1-0.7-1.7-0.7
			S389.1,316.1,388.7,316.6z M389.8,328.7c-0.8-0.5-1.2-1.2-1.2-2.1s0.4-1.6,1.3-2.1c0.8-0.5,2-0.8,3.4-0.8c1.4,0,2.6,0.3,3.4,0.8
			c0.8,0.5,1.3,1.3,1.3,2.2s-0.4,1.6-1.2,2.1c-0.8,0.5-2,0.8-3.4,0.8C391.8,329.5,390.6,329.2,389.8,328.7z M390.6,325.1
			c-0.6,0.3-1,0.8-1,1.4s0.3,1.1,1,1.4c0.7,0.4,1.5,0.5,2.6,0.5s1.9-0.2,2.6-0.5c0.7-0.3,1-0.8,1-1.4c0-0.6-0.3-1.1-1-1.4
			s-1.5-0.5-2.6-0.5C392.1,324.6,391.3,324.8,390.6,325.1z M396.6,319.6v-2.3h-2.9c0.1,0.4,0.2,0.8,0.2,1.2c0,0.4-0.1,0.7-0.2,1.1
			H396.6z"/>
		<path class="st3" d="M405.6,321.1v-2.5c0-1.2,0-2.3-0.1-3.2h6.2v5.7H405.6z M406.9,329.2l-0.7-0.9c1.1-0.1,2-0.5,2.9-1
			c0.9-0.5,1.4-1.1,1.5-1.7h-3.9v-1h9.2v1h-4c0.2,0.6,0.7,1.1,1.6,1.7c0.9,0.5,1.8,0.9,2.9,1l-0.7,0.9c-0.9-0.2-1.8-0.5-2.6-1
			c-0.8-0.5-1.4-1-1.8-1.6C410.5,327.9,409,328.8,406.9,329.2z M410.6,316.4h-4v3.8h4V316.4z M409,323.5v-1h4.6v1H409z M414.8,322.8
			v-4.9c0-1.1,0-2.2-0.1-3.2h1.2v8.1H414.8z"/>
		<path class="st3" d="M425.7,322.1v-1.3c0-0.6,0-1.4-0.1-2.2h1.1v3.4c2.4-0.1,4-0.2,5.1-0.4v1c-1.8,0.3-4,0.4-6.7,0.4h-2.4v-1
			H425.7z M429.8,320.6h-1c0.1-0.6,0.3-1.3,0.4-2.3c0.1-0.9,0.2-1.6,0.2-2.1h-5.6v-1h6.7c0,0.7-0.1,1.6-0.2,2.7
			C430.1,319.1,429.9,320,429.8,320.6z M425.1,328.9v-1.6c0-0.8,0-1.7-0.1-2.7h1.2v3.2h7.9v1H425.1z M432.5,325.7v-7.8
			c0-1.1,0-2.2-0.1-3.2h1.2v4.7h1.9v1h-1.9v5.3H432.5z"/>
		<path class="st3" d="M443.4,321h-5v3.6h2c2,0,3.7-0.2,5.1-0.5v1c-0.7,0.2-1.6,0.3-2.6,0.4c-1,0.1-1.9,0.2-2.6,0.2h-2.9v-2.4
			c0-1.1,0-2.2-0.1-3.2h5.1v-3.6h-4.9v-1h6V321z M446.5,329.3v-11.5c0-1.2,0-2.2-0.1-3.1h1.2v14.6H446.5z"/>
		<path class="st3" d="M327.1,344.3c-0.1,0.8-0.4,1.5-0.8,2c-0.5,0.5-1.1,0.9-1.7,1.1s-1.4,0.3-2.1,0.2c-0.5-0.1-1.1-0.2-1.7-0.5
			c-0.6-0.3-1.1-0.5-1.5-0.9l0.5-1c1,0.7,1.9,1.2,2.9,1.3c0.8,0.1,1.5-0.1,2.2-0.5c0.7-0.4,1-1,1.1-1.8c0.1-1.3-0.5-2.2-1.9-2.6
			c-0.2-0.1-0.5-0.1-0.9-0.3c-0.4-0.1-0.7-0.2-0.9-0.3c-1.8-0.6-2.7-1.6-2.7-3c0-1,0.4-1.8,1.1-2.4c0.7-0.6,1.6-0.9,2.7-0.8
			c1.2,0.1,2.2,0.4,3.2,1.1l-0.5,0.9c-0.9-0.6-1.8-1-2.6-1c-0.7,0-1.3,0.2-1.8,0.6c-0.5,0.4-0.8,0.9-0.8,1.6c0,0.6,0.2,1,0.5,1.3
			c0.4,0.3,0.8,0.6,1.4,0.8c0.2,0.1,0.5,0.2,1,0.3c0.5,0.1,0.8,0.2,0.9,0.3c0.8,0.3,1.4,0.7,1.9,1.3S327.1,343.5,327.1,344.3z"/>
		<path class="st3" d="M336.6,347.5h-1.5l-5-10.9v10.9H329v-9.2c0-1.2,0-2.2-0.1-3.1h1.6l5,11v-7.9c0-1.2,0-2.2-0.1-3.1h1.2V347.5z"
			/>
		<path class="st3" d="M346.5,344.3c-0.1,0.8-0.4,1.5-0.8,2c-0.5,0.5-1.1,0.9-1.7,1.1s-1.4,0.3-2.1,0.2c-0.5-0.1-1.1-0.2-1.7-0.5
			c-0.6-0.3-1.1-0.5-1.5-0.9l0.5-1c1,0.7,1.9,1.2,2.9,1.3c0.8,0.1,1.5-0.1,2.2-0.5c0.7-0.4,1-1,1.1-1.8c0.1-1.3-0.5-2.2-1.9-2.6
			c-0.2-0.1-0.5-0.1-0.9-0.3c-0.4-0.1-0.7-0.2-0.9-0.3c-1.8-0.6-2.7-1.6-2.7-3c0-1,0.4-1.8,1.1-2.4c0.7-0.6,1.6-0.9,2.7-0.8
			c1.2,0.1,2.2,0.4,3.2,1.1l-0.5,0.9c-0.9-0.6-1.8-1-2.6-1c-0.7,0-1.3,0.2-1.8,0.6c-0.5,0.4-0.8,0.9-0.8,1.6c0,0.6,0.2,1,0.5,1.3
			c0.4,0.3,0.8,0.6,1.4,0.8c0.2,0.1,0.5,0.2,1,0.3c0.5,0.1,0.8,0.2,0.9,0.3c0.8,0.3,1.4,0.7,1.9,1.3S346.6,343.5,346.5,344.3z"/>
		<path class="st3" d="M352.4,343.2v-1h5.1v-2.2h1.1v2.2h6.4v1H352.4z M353.8,338.9v-1h3.6c2.2,0,3.8-0.1,4.8-0.3
			c0-0.5,0.1-1.1,0.1-1.8h-8.4v-1h9.5c0,0.7-0.1,1.8-0.2,3.1s-0.3,2.4-0.4,3h-1c0.1-0.6,0.2-1.4,0.3-2.4c-1.1,0.2-2.7,0.3-4.7,0.3
			H353.8z M354.1,348.7v-0.9c0-1.1,0-2.2-0.1-3.2h1.2v3h8.5v1H354.1z"/>
		<path class="st3" d="M366.9,342.9v-4.6c0-1.2,0-2.3-0.1-3.2h4.9v1H368v2.3h3.4v1H368v2.5h1c1.4,0,2.7-0.1,3.6-0.3v1
			c-0.9,0.2-2.2,0.3-3.8,0.3H366.9z M368.5,348.7v-1.2c0-1.1,0-2.1-0.1-3h1.2v3.2h8.2v1H368.5z M372,339.1v-1h1.8v-0.4
			c0-1.2,0-2.2-0.1-3.1h1.2v10.1h-1.1v-5.7H372z M376.4,345.2v-7.7c0-1.2,0-2.2-0.1-3.1h1.2v10.7H376.4z"/>
		<path class="st3" d="M379.6,347.2v-1h12.6v1H379.6z M381.1,338.6v-1h9.6v1h-4.2c0,0.9,0.5,1.7,1.4,2.5c0.9,0.8,2.1,1.4,3.5,1.7
			l-0.6,0.8c-0.6-0.1-1.1-0.3-1.7-0.6c-0.6-0.3-1.2-0.7-1.8-1.2c-0.6-0.5-1.1-1.1-1.4-1.8c-0.5,1-1.2,1.7-2.1,2.3s-1.9,1-2.8,1.2
			l-0.7-0.8c1.5-0.4,2.7-0.9,3.6-1.7c0.9-0.8,1.4-1.6,1.4-2.5H381.1z M383.2,335.8v-1h5.3v1H383.2z"/>
		<path class="st3" d="M398.5,346.1l-1-0.7c2.2-1.6,3.4-4.1,3.4-7.6v-1.3h-2.4v-1h5.7v1H402v1.3c0,1.7,0.2,3.2,0.7,4.3
			s1.2,2.1,2.2,2.8l-0.8,0.8c-0.5-0.4-1.1-1-1.6-1.7c-0.5-0.7-0.9-1.5-1.1-2.4c-0.2,0.8-0.6,1.7-1.1,2.5
			C399.7,344.9,399.1,345.6,398.5,346.1z M403.5,340.1v-1h2.3v-1.4c0-1.2,0-2.2-0.1-3.1h1.2v13.7h-1.1v-8.2H403.5z M408.5,349v-11.5
			c0-1.2,0-2.2-0.1-3.1h1.2V349H408.5z"/>
		<path class="st3" d="M412.3,336.1v-1h6.7v1h-2.8v0.6c0,1.1,0.4,2,1.1,2.8c0.7,0.8,1.6,1.4,2.6,1.8l-0.7,0.8
			c-0.7-0.3-1.3-0.7-2-1.3c-0.6-0.6-1.1-1.2-1.5-2c-0.3,0.8-0.7,1.5-1.4,2.1c-0.6,0.6-1.4,1.1-2.1,1.5l-0.8-0.8c1.1-0.5,2-1.1,2.7-2
			c0.7-0.9,1.1-1.9,1.1-3.1v-0.6H412.3z M422.4,349.1h-1.1V345h-7.7v-1h8.8V349.1z M421.3,343.1v-5.5c0-1.1,0-2.2-0.1-3.2h1.2v3.6
			h1.9v1h-1.9v4.1H421.3z"/>
		<path class="st3" d="M328.8,362.9v-1h5.7v-1.8c-1.3-0.1-2.3-0.4-3.1-0.9c-0.7-0.5-1.1-1.2-1.1-2.1c0-0.9,0.4-1.7,1.3-2.2
			c0.9-0.5,2-0.8,3.5-0.8c1.5,0,2.6,0.3,3.5,0.8c0.9,0.5,1.3,1.3,1.3,2.2c0,0.9-0.4,1.5-1.1,2.1c-0.8,0.5-1.8,0.8-3.1,0.9v1.8h5.7v1
			H328.8z M330.5,368.4v-1c0-1.1,0-2.2-0.1-3.2h1.2v3.2h8.5v1H330.5z M335.1,359.2c1.1,0,2-0.2,2.7-0.6c0.7-0.4,1-0.9,1-1.5
			c0-0.6-0.3-1.2-1-1.5c-0.7-0.4-1.6-0.6-2.7-0.6c-1.1,0-2,0.2-2.7,0.6c-0.7,0.4-1,0.9-1,1.5c0,0.7,0.3,1.2,1,1.5
			C333,359,333.9,359.2,335.1,359.2z"/>
		<path class="st3" d="M349.1,360.5h-4.9v3.6h1.7c2,0,3.7-0.2,5.1-0.5v1c-0.7,0.2-1.6,0.3-2.6,0.4c-1,0.1-1.9,0.2-2.6,0.2h-2.6v-2.4
			c0-1.1,0-2.2-0.1-3.2h5v-3.6h-4.8v-1h5.9V360.5z M352,368.8v-11.5c0-1.2,0-2.2-0.1-3.1h1.2v5.4h2.1v1.1h-2.1v8.1H352z"/>
		<path class="st3" d="M356.5,358.2c0-1.1,0.3-1.9,1-2.7c0.7-0.7,1.5-1.1,2.5-1.1c1,0,1.8,0.4,2.5,1.1c0.7,0.7,1,1.6,1,2.7
			c0,1-0.3,1.9-1,2.7s-1.5,1.1-2.5,1.1c-1,0-1.9-0.4-2.5-1.1C356.9,360.2,356.5,359.3,356.5,358.2z M358.3,356.2
			c-0.5,0.5-0.7,1.2-0.7,2c0,0.8,0.2,1.4,0.7,2s1,0.8,1.8,0.8c0.7,0,1.3-0.3,1.8-0.8s0.7-1.2,0.7-2c0-0.8-0.2-1.4-0.7-2
			s-1-0.8-1.8-0.8C359.3,355.4,358.7,355.7,358.3,356.2z M358.6,368.4v-1.6c0-1.1,0-2.1-0.1-3.1h1.2v3.6h8.1v1H358.6z M366.2,364.9
			v-7.5c0-1.1,0-2.2-0.1-3.2h1.2v10.8H366.2z"/>
		<path class="st3" d="M375,364.9v-6.6c0-1.2,0-2.2-0.1-3.2h6.2v9.9H375z M380,356.1h-3.9v7.9h3.9V356.1z M383.7,368.8v-11.5
			c0-1.2,0-2.2-0.1-3.1h1.2v5.2h2.1v1.1h-2.1v8.3H383.7z"/>
		<path class="st3" d="M388.7,355.2h4.9c0,4.4-1.6,7.8-4.9,10.3l-0.9-0.7c1.8-1.2,3.2-2.9,3.9-4.9c-0.6,0.1-1.3,0.2-2.2,0.2h-1.2v-1
			h1.2c1,0,1.8-0.1,2.5-0.2c0.2-0.9,0.4-1.8,0.4-2.8h-3.8V355.2z M393.3,360.4v-1h2.2v-1.9c0-1.2,0-2.2-0.1-3.1h1.2v13.7h-1.1v-7.6
			H393.3z M398.2,368.8v-11.5c0-1.2,0-2.2-0.1-3.1h1.2v14.6H398.2z"/>
		<path class="st3" d="M402.4,362.2V358c0-1.2,0-2.2-0.1-3.2h6.5v1h-5.3v2.2h5.1v1h-5.1v2.3h2.1c2,0,3.7-0.2,5.2-0.5v1
			c-0.7,0.2-1.6,0.3-2.6,0.4c-1,0.1-1.9,0.2-2.7,0.2H402.4z M403.5,366.3c0-0.9,0.4-1.5,1.2-2s2-0.7,3.4-0.7c1.5,0,2.6,0.2,3.4,0.7
			s1.2,1.2,1.2,2c0,0.9-0.4,1.5-1.2,2c-0.8,0.5-2,0.7-3.4,0.7s-2.6-0.2-3.4-0.7S403.5,367.1,403.5,366.3z M405.5,365
			c-0.6,0.3-1,0.7-1,1.3s0.3,1,1,1.3c0.6,0.3,1.5,0.5,2.6,0.5c1.1,0,1.9-0.1,2.6-0.4c0.6-0.3,1-0.7,1-1.3c0-0.6-0.3-1-1-1.3
			c-0.6-0.3-1.5-0.5-2.6-0.5C407,364.6,406.2,364.7,405.5,365z M411.5,363.2v-5.8c0-1.1,0-2.2-0.1-3.2h1.2v9.1H411.5z"/>
	</g>
	<g>
		<path class="st3" d="M603.1,285.9v-6.6c0-1.2,0-2.2-0.1-3.2h6.3v1h-5.1v7.8h1.7c1.9,0,3.7-0.2,5.2-0.6v1c-0.7,0.2-1.6,0.3-2.7,0.4
			c-1.1,0.1-2,0.2-2.7,0.2H603.1z M612.2,289.8v-11.5c0-1.2,0-2.2-0.1-3.1h1.2v14.6H612.2z"/>
		<path class="st3" d="M616.4,277v-1h7.1v1h-3v1.6c0,1.5,0.3,2.8,1,4s1.6,2.2,2.8,2.9l-0.8,0.8c-0.8-0.5-1.5-1.2-2.1-2
			s-1.1-1.7-1.4-2.6c-0.2,0.9-0.7,1.9-1.4,2.8c-0.7,0.9-1.4,1.7-2.1,2.1l-0.9-0.8c1.3-0.8,2.2-1.8,2.9-3.2c0.7-1.3,1-2.8,1-4.4V277
			H616.4z M625.4,289.8v-11.5c0-1.2,0-2.2-0.1-3.1h1.2v5.7h2.1v1.1h-2.1v7.9H625.4z"/>
		<path class="st3" d="M629.8,279.2c0-1.1,0.3-1.9,1-2.7c0.7-0.7,1.5-1.1,2.5-1.1c1,0,1.8,0.4,2.5,1.1c0.7,0.7,1,1.6,1,2.7
			c0,1-0.3,1.9-1,2.7s-1.5,1.1-2.5,1.1c-1,0-1.9-0.4-2.5-1.1S629.8,280.3,629.8,279.2z M631.6,277.2c-0.5,0.5-0.7,1.2-0.7,2
			c0,0.8,0.2,1.4,0.7,2s1,0.8,1.8,0.8s1.3-0.3,1.8-0.8c0.4-0.5,0.7-1.2,0.7-2c0-0.8-0.2-1.4-0.7-2c-0.4-0.5-1-0.8-1.8-0.8
			S632,276.7,631.6,277.2z M631.9,289.4v-1.6c0-1.1,0-2.1-0.1-3.1h1.2v3.6h8.1v1H631.9z M639.5,285.9v-7.5c0-1.1,0-2.2-0.1-3.2h1.2
			v10.8H639.5z"/>
		<path class="st3" d="M648.6,276.1h6.1c0,2.2-0.6,4.2-1.6,6.1c-1.1,1.9-2.6,3.4-4.5,4.5l-0.9-0.7c1.8-0.9,3.1-2.2,4.1-3.8
			c1-1.6,1.6-3.3,1.6-5.1h-4.9V276.1z M657.7,289.8v-11.5c0-1.2,0-2.2-0.1-3.1h1.2v14.6H657.7z"/>
		<path class="st3" d="M662.9,280.4c0-0.6,0.3-1.1,0.9-1.4s1.4-0.5,2.4-0.5c1,0,1.8,0.2,2.4,0.5c0.6,0.3,0.9,0.8,0.9,1.4
			c0,0.6-0.2,1-0.7,1.3c-0.5,0.3-1.1,0.5-2,0.6v1.3c1.9-0.1,3.3-0.2,4.3-0.3v1c-1.8,0.3-4,0.4-6.7,0.4h-2.6v-1h4v-1.3
			c-0.9-0.1-1.5-0.2-2-0.6C663.1,281.4,662.9,281,662.9,280.4z M662.3,277.7v-0.9h7.5v0.9H662.3z M672.6,289.8h-1.1V287h-8v-1h9.1
			V289.8z M663.9,280.4c0,0.7,0.7,1.1,2.2,1.1c1.5,0,2.2-0.4,2.2-1.1c0-0.7-0.7-1.1-2.2-1.1C664.6,279.3,663.9,279.7,663.9,280.4z
			 M668,275.1v0.9h-3.8v-0.9H668z M671.5,285.2v-6.8c0-1.1,0-2.2-0.1-3.2h1.2v10H671.5z"/>
		<path class="st3" d="M595.3,307.6v-1h12.6v1H595.3z M606.1,295.5v7.7h-9v-4.5c0-1.2,0-2.3-0.1-3.2h1.2v2.6h6.9v-2.6H606.1z
			 M598.1,299.1v3.2h6.9v-3.2H598.1z"/>
		<path class="st3" d="M614.6,300h-3.6v2.5h1.1c1.3,0,2.5-0.1,3.6-0.3v1c-1.2,0.2-2.5,0.3-3.8,0.3h-2v-1.7c0-0.8,0-1.7-0.1-2.7h3.7
			v-2.5h-3.6v-1h4.7V300z M611.4,309.2v-1.3c0-1.1,0-2.1-0.1-3h1.2v3.3h8.2v1H611.4z M616.3,305.3v-7c0-1.2,0-2.2-0.1-3.1h1.2v3.8
			h1.9V298c0-1.2,0-2.2-0.1-3.1h1.2v10.7h-1.1v-5.7h-1.9v5.4H616.3z"/>
		<path class="st3" d="M622.5,307.6v-1h12.6v1H622.5z M633.6,302.7h-9.3V299c0-1.2,0-2.2-0.1-3.2h9.3v1h-8.1v5h8.3V302.7z"/>
		<path class="st3" d="M641.7,305.7v-6.6c0-1.2,0-2.2-0.1-3.2h6.3v1h-5.1v7.8h1.7c1.9,0,3.7-0.2,5.2-0.6v1c-0.7,0.2-1.6,0.3-2.7,0.4
			c-1.1,0.1-2,0.2-2.7,0.2H641.7z M650.8,309.5V298c0-1.2,0-2.2-0.1-3.1h1.2v14.6H650.8z"/>
		<path class="st3" d="M655,296.8v-1h7.1v1h-3v1.6c0,1.5,0.3,2.8,1,4c0.7,1.2,1.6,2.2,2.8,2.9l-0.8,0.8c-0.8-0.5-1.5-1.2-2.1-2
			s-1.1-1.7-1.4-2.6c-0.2,0.9-0.7,1.9-1.4,2.8c-0.7,0.9-1.4,1.7-2.1,2.1l-0.9-0.8c1.3-0.8,2.2-1.8,2.9-3.2c0.7-1.3,1-2.8,1-4.4v-1.3
			H655z M663.9,309.5V298c0-1.2,0-2.2-0.1-3.1h1.2v5.7h2.1v1.1H665v7.9H663.9z"/>
		<path class="st3" d="M668.4,299c0-1.1,0.3-1.9,1-2.7c0.7-0.7,1.5-1.1,2.5-1.1c1,0,1.8,0.4,2.5,1.1c0.7,0.7,1,1.6,1,2.7
			c0,1-0.3,1.9-1,2.7c-0.7,0.7-1.5,1.1-2.5,1.1c-1,0-1.9-0.4-2.5-1.1S668.4,300,668.4,299z M670.2,297c-0.5,0.5-0.7,1.2-0.7,2
			c0,0.8,0.2,1.4,0.7,2c0.5,0.5,1,0.8,1.8,0.8s1.3-0.3,1.8-0.8c0.4-0.5,0.7-1.2,0.7-2c0-0.8-0.2-1.4-0.7-2c-0.4-0.5-1-0.8-1.8-0.8
			S670.6,296.4,670.2,297z M670.5,309.2v-1.6c0-1.1,0-2.1-0.1-3.1h1.2v3.6h8.1v1H670.5z M678.1,305.7v-7.5c0-1.1,0-2.2-0.1-3.2h1.2
			v10.8H678.1z"/>
		<path class="st3" d="M602.4,322.7v-1h1.7l0-4.7h1.1l0,4.7h1.3c0.5,0,1,0,1.3,0l0.1-4.7h1.1l-0.1,4.7c0.9-0.1,1.7-0.1,2.4-0.3v1
			c-1.3,0.2-2.9,0.4-4.8,0.4H602.4z M602.8,316.4v-1h7.4v1H602.8z M604.7,328.9v-1.5c0-1.1,0-2.1-0.1-3h1.2v3.5h8v1H604.7z
			 M610.3,320.4v-1h2.2v-1.5h-2.2v-1h2.2c0-0.9,0-1.6-0.1-2.2h1.2v10.8h-1.1v-5H610.3z"/>
		<path class="st3" d="M616.7,316.4v-1h6.9v1h-2.8v0.5c0,1.1,0.3,1.9,1,2.6s1.5,1.2,2.6,1.6l-0.6,0.8c-0.7-0.3-1.3-0.6-2-1.1
			c-0.6-0.5-1.1-1.1-1.5-1.8c-0.5,1.3-1.7,2.5-3.5,3.3l-0.8-0.8c2.5-1,3.7-2.6,3.7-4.7v-0.4H616.7z M618.4,329v-2.7
			c0-1.2,0-2.3-0.1-3.2h1.2v1.8h6.7V323h1.1v6H618.4z M619.5,328.1h6.7v-2.2h-6.7V328.1z M626.1,322.3v-4.4c0-1.1,0-2.2-0.1-3.2h1.2
			v7.7H626.1z"/>
		<path class="st3" d="M634.9,325.4v-6.6c0-1.2,0-2.2-0.1-3.2h6.3v1H636v7.8h1.7c1.9,0,3.7-0.2,5.2-0.6v1c-0.7,0.2-1.6,0.3-2.7,0.4
			c-1.1,0.1-2,0.2-2.7,0.2H634.9z M644,329.3v-11.5c0-1.2,0-2.2-0.1-3.1h1.2v14.6H644z"/>
		<path class="st3" d="M648.1,316.5v-1h7.1v1h-3v1.6c0,1.5,0.3,2.8,1,4c0.7,1.2,1.6,2.2,2.8,2.9l-0.8,0.8c-0.8-0.5-1.5-1.2-2.1-2
			s-1.1-1.7-1.4-2.6c-0.2,0.9-0.7,1.9-1.4,2.8c-0.7,0.9-1.4,1.7-2.1,2.1l-0.9-0.8c1.3-0.8,2.2-1.8,2.9-3.2c0.7-1.3,1-2.8,1-4.4v-1.3
			H648.1z M657.1,329.3v-11.5c0-1.2,0-2.2-0.1-3.1h1.2v5.7h2.1v1.1h-2.1v7.9H657.1z"/>
		<path class="st3" d="M661.6,318.7c0-1.1,0.3-1.9,1-2.7c0.7-0.7,1.5-1.1,2.5-1.1c1,0,1.8,0.4,2.5,1.1c0.7,0.7,1,1.6,1,2.7
			c0,1-0.3,1.9-1,2.7c-0.7,0.7-1.5,1.1-2.5,1.1c-1,0-1.9-0.4-2.5-1.1S661.6,319.8,661.6,318.7z M663.4,316.7c-0.5,0.5-0.7,1.2-0.7,2
			c0,0.8,0.2,1.4,0.7,2c0.5,0.5,1,0.8,1.8,0.8s1.3-0.3,1.8-0.8c0.4-0.5,0.7-1.2,0.7-2c0-0.8-0.2-1.4-0.7-2c-0.4-0.5-1-0.8-1.8-0.8
			S663.8,316.2,663.4,316.7z M663.7,328.9v-1.6c0-1.1,0-2.1-0.1-3.1h1.2v3.6h8.1v1H663.7z M671.3,325.4v-7.5c0-1.1,0-2.2-0.1-3.2
			h1.2v10.8H671.3z"/>
		<path class="st3" d="M589,338c0-1,0.3-1.8,1-2.4c0.6-0.7,1.5-1,2.4-1c1,0,1.8,0.3,2.4,1s1,1.5,1,2.4c0,0.9-0.3,1.7-1,2.4
			s-1.4,1-2.4,1c-1,0-1.8-0.3-2.4-1C589.4,339.8,589,338.9,589,338z M590.8,336.2c-0.4,0.5-0.6,1-0.6,1.7s0.2,1.3,0.6,1.7
			s1,0.7,1.7,0.7c0.7,0,1.3-0.2,1.7-0.7s0.6-1,0.6-1.7s-0.2-1.3-0.6-1.7c-0.4-0.5-1-0.7-1.7-0.7
			C591.7,335.6,591.2,335.8,590.8,336.2z M592.2,346.3v1.6h7.9v1H591v-1c0-0.9,0-1.7-0.1-2.5h7.7v-1.5H591v-1h8.8v3.5H592.2z
			 M598.7,342v-4.3c0-1.1,0-2.2-0.1-3.2h1.2v7.6H598.7z"/>
		<path class="st3" d="M608.9,340.7h-4.7v3.6h1.5c2,0,3.7-0.2,5.1-0.5v1c-0.7,0.2-1.6,0.3-2.6,0.4c-1,0.1-1.9,0.2-2.6,0.2h-2.5V343
			c0-1.1,0-2.2-0.1-3.2h4.8v-3.6h-4.7v-1h5.8V340.7z M609.7,340.3v-1h2.5v-1.8c0-1.2,0-2.2-0.1-3.1h1.2V349h-1.1v-8.7H609.7z"/>
		<path class="st3" d="M615.7,347.1v-1h12.6v1H615.7z M622.6,335v1.3c0,1.2,0.5,2.4,1.6,3.5c1,1.1,2.2,1.9,3.6,2.3l-0.7,0.8
			c-1-0.4-2-1-3-1.8c-1-0.8-1.7-1.7-2-2.7c-0.4,1-1,1.9-2,2.7s-2,1.4-3,1.8l-0.8-0.9c1.4-0.4,2.6-1.2,3.6-2.3c1-1.1,1.6-2.3,1.6-3.5
			c0-0.6,0-1-0.1-1.3H622.6z"/>
		<path class="st3" d="M629.3,347.1v-1h12.6v1H629.3z M640.3,343.3h-9.2v-4.9c0-1.2,0-2.2-0.1-3.2h9.2v1h-8v2.6h8v1h-8v2.6h8.1
			V343.3z"/>
		<path class="st3" d="M648.5,345.2v-6.6c0-1.2,0-2.2-0.1-3.2h6.3v1h-5.1v7.8h1.7c1.9,0,3.7-0.2,5.2-0.6v1c-0.7,0.2-1.6,0.3-2.7,0.4
			c-1.1,0.1-2,0.2-2.7,0.2H648.5z M657.6,349v-11.5c0-1.2,0-2.2-0.1-3.1h1.2V349H657.6z"/>
		<path class="st3" d="M661.8,336.3v-1h7.1v1h-3v1.6c0,1.5,0.3,2.8,1,4c0.7,1.2,1.6,2.2,2.8,2.9l-0.8,0.8c-0.8-0.5-1.5-1.2-2.1-2
			s-1.1-1.7-1.4-2.6c-0.2,0.9-0.7,1.9-1.4,2.8c-0.7,0.9-1.4,1.7-2.1,2.1l-0.9-0.8c1.3-0.8,2.2-1.8,2.9-3.2c0.7-1.3,1-2.8,1-4.4v-1.3
			H661.8z M670.7,349v-11.5c0-1.2,0-2.2-0.1-3.1h1.2v5.7h2.1v1.1h-2.1v7.9H670.7z"/>
		<path class="st3" d="M675.2,338.5c0-1.1,0.3-1.9,1-2.7c0.7-0.7,1.5-1.1,2.5-1.1c1,0,1.8,0.4,2.5,1.1c0.7,0.7,1,1.6,1,2.7
			c0,1-0.3,1.9-1,2.7c-0.7,0.7-1.5,1.1-2.5,1.1c-1,0-1.9-0.4-2.5-1.1S675.2,339.5,675.2,338.5z M677,336.5c-0.5,0.5-0.7,1.2-0.7,2
			c0,0.8,0.2,1.4,0.7,2c0.5,0.5,1,0.8,1.8,0.8s1.3-0.3,1.8-0.8s0.7-1.2,0.7-2c0-0.8-0.2-1.4-0.7-2s-1-0.8-1.8-0.8
			S677.4,335.9,677,336.5z M677.3,348.7v-1.6c0-1.1,0-2.1-0.1-3.1h1.2v3.6h8.1v1H677.3z M684.9,345.2v-7.5c0-1.1,0-2.2-0.1-3.2h1.2
			v10.8H684.9z"/>
		<path class="st3" d="M613.3,357.5c0,0.8-0.2,1.4-0.6,1.9c-0.4,0.5-0.9,0.8-1.4,1c0.7,0.2,1.2,0.6,1.7,1.2s0.7,1.2,0.7,2
			c0,0.7-0.1,1.3-0.4,1.8s-0.7,0.9-1.2,1.2c-0.5,0.3-1,0.5-1.6,0.7s-1.2,0.3-1.8,0.3c-0.6,0-1.2-0.1-1.8-0.1l0-0.9
			c0.5,0,0.9,0,1.5,0.1c0.5,0,1,0,1.5-0.1c0.5-0.1,0.9-0.3,1.3-0.5c0.4-0.2,0.7-0.5,1-0.9c0.2-0.4,0.4-0.9,0.4-1.5
			c0-0.9-0.3-1.5-0.9-2c-0.6-0.4-1.4-0.6-2.3-0.6h-0.7v-0.9h0.6c0.8,0,1.5-0.2,2.1-0.6c0.6-0.4,0.9-1,0.9-1.8c0-0.6-0.2-1.1-0.7-1.4
			c-0.5-0.3-1-0.5-1.7-0.5c-0.8,0-1.6,0.3-2.5,1l-0.5-0.8c1.1-0.8,2.2-1.2,3.3-1.2c0.9,0,1.6,0.2,2.2,0.7
			C613,356,613.3,356.7,613.3,357.5z"/>
		<path class="st3" d="M615.7,367.2V358c0-1.2,0-2.2-0.1-3.1h2.4c3.8,0,5.6,2,5.6,6c0,2-0.5,3.5-1.4,4.6s-2.3,1.7-4.1,1.7H615.7z
			 M616.8,366.2h1.4c1.4,0,2.5-0.5,3.2-1.4c0.7-1,1.1-2.2,1.1-3.9c0-1.8-0.4-3-1.2-3.8c-0.8-0.8-2.1-1.2-3.7-1.2h-0.8V366.2z"/>
		<path class="st3" d="M630.6,364.9v-6.6c0-1.2,0-2.2-0.1-3.2h6.3v1h-5.1v7.8h1.7c1.9,0,3.7-0.2,5.2-0.6v1c-0.7,0.2-1.6,0.3-2.7,0.4
			c-1.1,0.1-2,0.2-2.7,0.2H630.6z M639.7,368.8v-11.5c0-1.2,0-2.2-0.1-3.1h1.2v14.6H639.7z"/>
		<path class="st3" d="M643.9,356v-1h7.1v1h-3v1.6c0,1.5,0.3,2.8,1,4s1.6,2.2,2.8,2.9l-0.8,0.8c-0.8-0.5-1.5-1.2-2.1-2
			s-1.1-1.7-1.4-2.6c-0.2,0.9-0.7,1.9-1.4,2.8c-0.7,0.9-1.4,1.7-2.1,2.1l-0.9-0.8c1.3-0.8,2.2-1.8,2.9-3.2c0.7-1.3,1-2.8,1-4.4V356
			H643.9z M652.9,368.8v-11.5c0-1.2,0-2.2-0.1-3.1h1.2v5.7h2.1v1.1h-2.1v7.9H652.9z"/>
		<path class="st3" d="M657.3,358.2c0-1.1,0.3-1.9,1-2.7c0.7-0.7,1.5-1.1,2.5-1.1c1,0,1.8,0.4,2.5,1.1c0.7,0.7,1,1.6,1,2.7
			c0,1-0.3,1.9-1,2.7c-0.7,0.7-1.5,1.1-2.5,1.1c-1,0-1.9-0.4-2.5-1.1S657.3,359.3,657.3,358.2z M659.1,356.2c-0.5,0.5-0.7,1.2-0.7,2
			c0,0.8,0.2,1.4,0.7,2c0.5,0.5,1,0.8,1.8,0.8s1.3-0.3,1.8-0.8c0.4-0.5,0.7-1.2,0.7-2c0-0.8-0.2-1.4-0.7-2c-0.4-0.5-1-0.8-1.8-0.8
			S659.5,355.7,659.1,356.2z M659.4,368.4v-1.6c0-1.1,0-2.1-0.1-3.1h1.2v3.6h8.1v1H659.4z M667,364.9v-7.5c0-1.1,0-2.2-0.1-3.2h1.2
			v10.8H667z"/>
	</g>
	<g>
		<path class="st3" d="M834.9,282v-1h9.3c0.4-1.6,0.6-3,0.6-4.3h-8.4v-1h9.5c0,1.5-0.2,3.3-0.7,5.3h2.2v1h-5.9v2.9h4.1v5h-1.1v-4
			h-8.2v-1h4V282H834.9z"/>
		<path class="st3" d="M849.3,286.8l-1-0.7c2.2-1.6,3.4-4.1,3.4-7.6v-1.3h-2.4v-1h5.7v1h-2.3v1.3c0,1.7,0.2,3.2,0.7,4.3
			s1.2,2.1,2.2,2.8l-0.8,0.8c-0.5-0.4-1.1-1-1.6-1.7c-0.5-0.7-0.9-1.5-1.1-2.4c-0.2,0.8-0.6,1.7-1.1,2.5
			C850.4,285.7,849.9,286.4,849.3,286.8z M854.3,280.9v-1h2.3v-1.4c0-1.2,0-2.2-0.1-3.1h1.2v13.7h-1.1v-8.2H854.3z M859.2,289.8
			v-11.5c0-1.2,0-2.2-0.1-3.1h1.2v14.6H859.2z"/>
		<path class="st3" d="M866.6,287.8v-1h5.7v-3.7h-4.5v-1h2l-0.1-4.6h1.1l0.1,4.6h4.1l0.1-4.6h1.1l-0.1,4.6h2v1h-4.6v3.7h5.8v1H866.6
			z M868.1,277v-1h9.6v1H868.1z"/>
		<path class="st3" d="M887,279.8h-4.7v2.1h1.5c1.8,0,3.5-0.2,5.2-0.5v1c-0.7,0.1-1.6,0.3-2.7,0.4c-1,0.1-1.9,0.2-2.6,0.2h-2.4v-1.5
			c0-0.7,0-1.5-0.1-2.6h4.8v-2h-4.7v-1h5.8V279.8z M882.8,289.5v-1.9c0-1.2,0-2.3-0.1-3.2h8.8v5.1H882.8z M883.8,285.4v3.1h6.6v-3.1
			H883.8z M887.9,279.4v-1h2.5c0-1.1,0-2.2-0.1-3.2h1.2v8.4h-1.1v-4.2H887.9z"/>
		<path class="st3" d="M899.4,281.6v-2.5c0-1.2,0-2.3-0.1-3.2h6.2v5.7H899.4z M900.8,289.7l-0.7-0.9c1.1-0.1,2-0.5,2.9-1
			s1.4-1.1,1.5-1.7h-3.9v-1h9.2v1h-4c0.2,0.6,0.7,1.1,1.6,1.7c0.9,0.5,1.8,0.9,2.9,1l-0.7,0.9c-0.9-0.2-1.8-0.5-2.6-1
			c-0.8-0.5-1.4-1-1.8-1.6C904.3,288.4,902.8,289.3,900.8,289.7z M904.5,276.9h-4v3.8h4V276.9z M902.8,284v-1h4.6v1H902.8z
			 M908.6,283.3v-4.9c0-1.1,0-2.2-0.1-3.2h1.2v8.1H908.6z"/>
		<path class="st3" d="M917.4,280v-1h1.6c1.4,0,2.4-0.1,3-0.2c0.3-0.6,0.5-1.3,0.6-2h-4.8v-1h6.1c-0.1,2-0.7,3.7-1.9,5.1
			c-1.1,1.4-2.6,2.4-4.5,3.1l-0.7-0.9c2.1-0.7,3.6-1.9,4.6-3.4c-0.6,0.1-1.4,0.2-2.4,0.2H917.4z M919.2,289.4v-1.6
			c0-1.1,0-2.1-0.1-3h1.2v3.6h8v1H919.2z M923.9,280.6v-1h2.9v-1.1c0-1.1,0-2.2-0.1-3.2h1.2v10.8h-1.1v-5.4H923.9z"/>
		<path class="st3" d="M930.6,285.9v-1h1.7l-0.1-7.1h1.1l0.1,7.1h1.2c0.5,0,1,0,1.3,0l0.1-7.1h1.1l-0.1,7c0.9-0.1,1.7-0.1,2.4-0.3v1
			c-1.3,0.2-2.9,0.4-4.8,0.4H930.6z M930.9,277.1v-1h7.5v1H930.9z M938.1,281.2v-1h2.4v-1.9c0-1.2,0-2.2-0.1-3.1h1.2v14.6h-1.1v-8.6
			H938.1z"/>
		<path class="st3" d="M950.6,280.1h-4.7v2.6h1.5c1.8,0,3.5-0.2,5.2-0.5v1c-0.7,0.1-1.6,0.3-2.7,0.4c-1,0.1-1.9,0.2-2.6,0.2h-2.4v-2
			c0-0.7,0-1.5-0.1-2.6h4.8v-2.4h-4.7v-1h5.8V280.1z M946.2,289.4v-1.2c0-1.1,0-2.1-0.1-3h1.2v3.2h8v1H946.2z M951.4,279.8v-1h2.5
			v-0.3c0-1.1,0-2.2-0.1-3.2h1.2v10.8h-1.1v-6.2H951.4z"/>
		<path class="st3" d="M957.4,287.8v-1H970v1H957.4z M964.3,275.7v1.3c0,1.2,0.5,2.4,1.6,3.5c1,1.1,2.2,1.9,3.6,2.3l-0.7,0.8
			c-1-0.4-2-1-3-1.8c-1-0.8-1.7-1.7-2-2.7c-0.4,1-1,1.9-2,2.7s-2,1.4-3,1.8l-0.8-0.9c1.4-0.4,2.6-1.2,3.6-2.3c1-1.1,1.6-2.3,1.6-3.5
			c0-0.6,0-1-0.1-1.3H964.3z"/>
		<path class="st3" d="M858.4,308v-9.2c0-1.2,0-2.2-0.1-3.1h1.2V308H858.4z"/>
		<path class="st3" d="M862.4,308v-9.2c0-1.2,0-2.2-0.1-3.1h3.5c1.2,0,2.1,0.2,2.8,0.7c0.7,0.5,1,1.3,1,2.4c0,1.4-0.5,2.3-1.6,2.9
			c0.9,0.4,1.4,1.2,1.5,2.5c0.1,0.7,0.1,1.2,0.1,1.7c0,0.5,0.1,0.8,0.1,1.2c0.1,0.3,0.2,0.6,0.3,0.9h-1.2c-0.1-0.3-0.2-0.9-0.2-1.6
			c-0.1-0.7-0.1-1.3-0.1-1.6c-0.1-0.8-0.2-1.5-0.5-1.9c-0.3-0.4-0.7-0.7-1.3-0.8c-0.3,0-0.6,0-0.9,0h-2.3v5.8H862.4z M863.5,301.1
			h2.2c1.8,0,2.8-0.8,2.8-2.3c0-0.8-0.2-1.3-0.7-1.6c-0.5-0.3-1.2-0.5-2.1-0.5h-2.2V301.1z"/>
		<path class="st3" d="M876,304.8v-1h12.6v1h-5.7v4.7h-1.1v-4.7H876z M887,302.1h-9.2v-3.5c0-1.2,0-2.2-0.1-3.2h9.2v1h-8v1.9h8v1h-8
			v1.9h8.1V302.1z"/>
		<path class="st3" d="M890.3,296.8v-1h7.1v1h-3v1.6c0,1.5,0.3,2.8,1,4s1.6,2.2,2.8,2.9l-0.8,0.8c-0.8-0.5-1.5-1.2-2.1-2
			s-1.1-1.7-1.4-2.6c-0.2,0.9-0.7,1.9-1.4,2.8c-0.7,0.9-1.4,1.7-2.1,2.1l-0.9-0.8c1.3-0.8,2.2-1.8,2.9-3.2c0.7-1.3,1-2.8,1-4.4v-1.3
			H890.3z M899.3,309.5V298c0-1.2,0-2.2-0.1-3.1h1.2v5.7h2.1v1.1h-2.1v7.9H899.3z"/>
		<path class="st3" d="M912.5,295.2v1.3c0,1,0.3,1.9,1,2.7s1.6,1.4,2.6,1.8l-0.7,0.9c-0.7-0.3-1.4-0.7-2-1.2s-1.2-1.2-1.5-1.9
			c-0.3,0.8-0.7,1.5-1.4,2.1c-0.7,0.6-1.4,1.1-2.1,1.5l-0.8-0.8c1.1-0.5,2-1.2,2.7-2c0.7-0.8,1-1.8,1-2.9c0-0.5,0-1-0.1-1.4H912.5z
			 M911.5,306.8v1.6h7.9v1h-9.1v-1c0-0.9,0-1.7-0.1-2.5h7.7v-1.5h-7.7v-1h8.8v3.5H911.5z M915,298.3v-1h3.1c0-0.8,0-1.6-0.1-2.4h1.2
			v7.6h-1.1v-4.1H915z"/>
		<path class="st3" d="M922.5,302.3v-3.5c0-1.2,0-2.3-0.1-3.2h6.2v1.3h3.1c0-0.4,0-1-0.1-2h1.2v8.8h-1.1v-2.8h-3.1v1.4H922.5z
			 M927.5,296.6h-3.9v4.7h3.9V296.6z M924.8,309c-0.8-0.5-1.2-1.2-1.2-2.1s0.4-1.6,1.3-2.1s2-0.8,3.4-0.8c1.4,0,2.6,0.3,3.4,0.8
			c0.8,0.5,1.3,1.3,1.3,2.2s-0.4,1.6-1.2,2.1c-0.8,0.5-2,0.8-3.4,0.8C926.8,309.8,925.7,309.5,924.8,309z M925.7,305.4
			c-0.6,0.3-1,0.8-1,1.4s0.3,1.1,1,1.4c0.7,0.4,1.5,0.5,2.6,0.5c1.1,0,1.9-0.2,2.6-0.5c0.7-0.3,1-0.8,1-1.4c0-0.6-0.3-1.1-1-1.4
			s-1.5-0.5-2.6-0.5C927.2,304.9,926.3,305.1,925.7,305.4z M931.6,299.9v-2h-3.1v2H931.6z"/>
		<path class="st3" d="M935.6,306.7v-1h2.8c0.5,0,0.9,0,1.2,0v-1.5c-0.8-0.1-1.5-0.3-2-0.8s-0.7-1-0.7-1.7c0-0.8,0.3-1.4,0.9-1.8
			s1.4-0.7,2.3-0.7s1.7,0.2,2.3,0.7c0.6,0.5,0.9,1.1,0.9,1.8c0,0.7-0.2,1.2-0.7,1.7c-0.5,0.4-1.1,0.7-1.9,0.8v1.5
			c1.9-0.1,3.3-0.2,4.3-0.4v1c-1.9,0.3-4.2,0.4-6.6,0.4H935.6z M936.3,298.4v-1h7.5v1H936.3z M940.1,303.3c0.6,0,1.2-0.1,1.6-0.4
			s0.6-0.7,0.6-1.2c0-0.5-0.2-0.9-0.6-1.1c-0.4-0.3-0.9-0.4-1.6-0.4c-0.7,0-1.2,0.1-1.6,0.4c-0.4,0.3-0.6,0.7-0.6,1.1
			c0,0.5,0.2,0.9,0.6,1.2S939.4,303.3,940.1,303.3z M941.9,295.2v1H938v-1H941.9z M945.6,309.5V298c0-1.2,0-2.2-0.1-3.1h1.2v14.6
			H945.6z"/>
		<path class="st3" d="M860.8,325.4v-6.8c0-1.2,0-2.3-0.1-3.2h1.2v9h1.1c1.3,0,2.4-0.1,3.5-0.3v1c-1.1,0.2-2.3,0.4-3.6,0.4H860.8z
			 M864.6,320.3v-1h2.8V318c0-1.2,0-2.2-0.1-3.1h1.2v13.7h-1.1v-8.3H864.6z M870.2,329.3v-11.5c0-1.2,0-2.2-0.1-3.1h1.2v14.6H870.2z
			"/>
		<path class="st3" d="M873.4,327.3v-1H886v1H873.4z M884.4,323.6h-9.2v-4.9c0-1.2,0-2.2-0.1-3.2h9.2v1h-8v2.6h8v1h-8v2.6h8.1V323.6
			z"/>
		<path class="st3" d="M887.4,323.6v-1h2.7c2.9,0,5.1-0.1,6.5-0.4v1c-1.1,0.2-2.7,0.3-4.8,0.4v5.3h-1.1v-5.3H887.4z M888.3,318.1
			c0-0.9,0.3-1.7,0.9-2.3c0.6-0.6,1.4-0.9,2.4-0.9c1,0,1.8,0.3,2.4,0.9c0.6,0.6,0.9,1.3,0.9,2.3c0,0.9-0.3,1.7-0.9,2.2
			c-0.6,0.6-1.4,0.9-2.4,0.9c-1,0-1.8-0.3-2.4-0.9C888.6,319.7,888.3,319,888.3,318.1z M889.4,318c0,0.6,0.2,1.2,0.6,1.6
			c0.4,0.4,1,0.6,1.7,0.6s1.3-0.2,1.7-0.6c0.4-0.4,0.6-0.9,0.6-1.6c0-0.7-0.2-1.2-0.6-1.6c-0.4-0.4-1-0.6-1.7-0.6s-1.3,0.2-1.7,0.6
			C889.6,316.9,889.4,317.4,889.4,318z M894.1,326.2v-1.1h3.3v-7.4c0-1.2,0-2.2-0.1-3.1h1.2v14.6h-1.1v-3.1H894.1z"/>
		<path class="st3" d="M901.9,315.4h6.1c-0.1,1.9-0.8,3.5-1.9,4.8c-1.1,1.3-2.6,2.2-4.4,2.8l-0.7-0.9c2-0.6,3.5-1.5,4.5-2.9
			c-0.6,0.1-1.4,0.2-2.4,0.2h-1.6v-1h1.6c1.4,0,2.4-0.1,3-0.2c0.3-0.6,0.5-1.2,0.6-1.8h-4.8V315.4z M904.2,328.7
			c-0.8-0.5-1.2-1.2-1.2-2.1s0.4-1.6,1.3-2.1c0.8-0.5,2-0.8,3.4-0.8c1.4,0,2.6,0.3,3.4,0.8c0.8,0.5,1.2,1.3,1.2,2.2
			s-0.4,1.6-1.2,2.1c-0.8,0.5-2,0.8-3.4,0.8C906.1,329.5,905,329.2,904.2,328.7z M905,325.1c-0.6,0.3-1,0.8-1,1.4s0.3,1.1,1,1.4
			c0.7,0.4,1.5,0.5,2.6,0.5c1.1,0,1.9-0.2,2.6-0.5c0.7-0.3,1-0.8,1-1.4c0-0.6-0.3-1.1-1-1.4c-0.6-0.4-1.5-0.5-2.6-0.5
			C906.5,324.6,905.6,324.8,905,325.1z M910.9,323.4v-5.5c0-1.1,0-2.2-0.1-3.2h1.2v8.7H910.9z"/>
		<path class="st3" d="M918.9,325.4v-1h1.7l-0.1-7.1h1.1l0.1,7.1h1.2c0.5,0,1,0,1.3,0l0.1-7.1h1.1l-0.1,7c0.9-0.1,1.7-0.1,2.4-0.3v1
			c-1.3,0.2-2.9,0.4-4.8,0.4H918.9z M919.2,316.6v-1h7.5v1H919.2z M928.4,329.3v-11.5c0-1.2,0-2.2-0.1-3.1h1.2v4.9h2.1v1.1h-2.1v8.7
			H928.4z"/>
		<path class="st3" d="M933.4,325.6v-6.9c0-1.1,0-2.2-0.1-3.2h6.5v1h-5.4v3.5h5.2v1h-5.2v3.7h2c1.8,0,3.5-0.2,5-0.5v1
			c-1.5,0.4-3.2,0.5-5.1,0.5H933.4z M942.6,329.3v-11.5c0-1.2,0-2.2-0.1-3.1h1.2v14.6H942.6z"/>
		<path class="st3" d="M864.4,342.9v-1h12.6v1h-5.7v1.8h4v4.4h-1.1v-3.4h-8.2v-1h4.2v-1.8H864.4z M865.9,337.5v-1h9.5v1h-4.1
			c0.2,0.7,0.8,1.3,1.8,1.7c0.9,0.4,2,0.7,3.1,0.8l-0.7,0.8c-1-0.1-1.9-0.3-2.8-0.7c-0.9-0.4-1.6-1-2-1.7c-0.8,1.2-2.4,2.1-4.9,2.4
			l-0.7-0.8c1.2-0.1,2.2-0.4,3.1-0.8s1.5-1,1.7-1.7H865.9z M868.1,335.3v-1h5.1v1H868.1z"/>
		<path class="st3" d="M878.8,346.1l-1-0.7c2.2-1.6,3.4-4.1,3.4-7.6v-1.3h-2.4v-1h5.7v1h-2.3v1.3c0,1.7,0.2,3.2,0.7,4.3
			s1.2,2.1,2.2,2.8l-0.8,0.8c-0.5-0.4-1.1-1-1.6-1.7c-0.5-0.7-0.9-1.5-1.1-2.4c-0.2,0.8-0.6,1.7-1.1,2.5
			C879.9,344.9,879.4,345.6,878.8,346.1z M883.8,340.1v-1h2.3v-1.4c0-1.2,0-2.2-0.1-3.1h1.2v13.7h-1.1v-8.2H883.8z M888.7,349v-11.5
			c0-1.2,0-2.2-0.1-3.1h1.2V349H888.7z"/>
		<path class="st3" d="M897.2,340.9v-2.5c0-1.2,0-2.3-0.1-3.2h6.2v5.7H897.2z M898.5,349l-0.7-0.9c1.1-0.1,2-0.5,2.9-1
			s1.4-1.1,1.5-1.7h-3.9v-1h9.2v1h-4c0.2,0.6,0.7,1.1,1.6,1.7c0.9,0.5,1.8,0.9,2.9,1l-0.7,0.9c-0.9-0.2-1.8-0.5-2.6-1
			c-0.8-0.5-1.4-1-1.8-1.6C902.1,347.7,900.6,348.5,898.5,349z M902.2,336.1h-4v3.8h4V336.1z M900.6,343.3v-1h4.6v1H900.6z
			 M906.3,342.6v-4.9c0-1.1,0-2.2-0.1-3.2h1.2v8.1H906.3z"/>
		<path class="st3" d="M914.3,342v-1h5.1v-0.9c0-0.6,0-1.4-0.1-2.2h1.1v3.1h6.4v1H914.3z M915.7,346.4c0-0.9,0.4-1.6,1.3-2.1
			c0.8-0.5,2-0.8,3.6-0.8c1.5,0,2.7,0.3,3.6,0.8c0.8,0.5,1.3,1.2,1.3,2.1s-0.4,1.6-1.3,2.1c-0.8,0.5-2,0.8-3.6,0.8
			c-1.5,0-2.7-0.3-3.6-0.8C916.2,348,915.7,347.3,915.7,346.4z M924.8,339.8h-1c0.3-1.1,0.4-2.4,0.5-3.9h-8.4v-1h9.5
			C925.3,336.6,925.1,338.3,924.8,339.8z M917.8,345c-0.7,0.3-1,0.8-1,1.4c0,0.6,0.3,1.1,1,1.4c0.7,0.4,1.6,0.5,2.7,0.5
			c1.1,0,2-0.2,2.7-0.5c0.7-0.3,1-0.8,1-1.4c0-0.6-0.3-1.1-1-1.4c-0.7-0.4-1.6-0.5-2.7-0.5C919.4,344.4,918.5,344.6,917.8,345z"/>
		<path class="st3" d="M928.4,338.5c0-1.1,0.3-1.9,1-2.7c0.7-0.7,1.5-1.1,2.5-1.1c0.6,0,1.1,0.1,1.6,0.4c0.5,0.3,0.9,0.6,1.2,1.1
			h3.4c0-0.3,0-0.9-0.1-1.8h1.2v10.8h-1.1v-4.7h-3.2c-0.3,0.5-0.7,1-1.2,1.3c-0.5,0.3-1.1,0.5-1.7,0.5c-1,0-1.9-0.4-2.5-1.1
			S928.4,339.5,928.4,338.5z M930.2,336.5c-0.5,0.5-0.7,1.2-0.7,2c0,0.8,0.2,1.4,0.7,2s1,0.8,1.8,0.8s1.3-0.3,1.8-0.8
			c0.4-0.5,0.7-1.2,0.7-2c0-0.8-0.2-1.4-0.7-2c-0.4-0.5-1-0.8-1.8-0.8S930.6,335.9,930.2,336.5z M930.5,348.7v-1.6
			c0-1.1,0-2.1-0.1-3.1h1.2v3.6h8.1v1H930.5z M938.1,339.5v-2.3h-2.9c0.1,0.4,0.2,0.9,0.2,1.3c0,0.4,0,0.7-0.1,1H938.1z"/>
		<path class="st3" d="M843.9,363v-1h5.1v-2.2h1.1v2.2h6.4v1H843.9z M845.4,358.7v-1h3.6c2.2,0,3.8-0.1,4.8-0.3
			c0-0.5,0.1-1.1,0.1-1.8h-8.4v-1h9.5c0,0.7-0.1,1.8-0.2,3.1c-0.1,1.4-0.3,2.4-0.4,3h-1c0.1-0.6,0.2-1.4,0.3-2.4
			c-1.1,0.2-2.7,0.3-4.7,0.3H845.4z M845.7,368.4v-0.9c0-1.1,0-2.2-0.1-3.2h1.2v3h8.5v1H845.7z"/>
		<path class="st3" d="M858.4,365.1v-6.9c0-1.2,0-2.3-0.1-3.2h5v1h-3.8v3.5h3.5v1h-3.5v3.6h1.3c1.3,0,2.5-0.1,3.5-0.3v1
			c-1,0.2-2.3,0.3-3.7,0.3H858.4z M863.6,360v-1h1.8v-1.5c0-1.2,0-2.2-0.1-3.1h1.2v13.7h-1.1V360H863.6z M867.9,368.8v-11.5
			c0-1.2,0-2.2-0.1-3.1h1.2v14.6H867.9z"/>
		<path class="st3" d="M871.2,366.8v-1h12.6v1H871.2z M878,354.7v1.3c0,1.2,0.5,2.4,1.6,3.5c1,1.1,2.2,1.9,3.6,2.3l-0.7,0.8
			c-1-0.4-2-1-3-1.8c-1-0.8-1.7-1.7-2-2.7c-0.4,1-1,1.9-2,2.7s-2,1.4-3,1.8l-0.8-0.9c1.4-0.4,2.6-1.2,3.6-2.3c1-1.1,1.6-2.3,1.6-3.5
			c0-0.6,0-1-0.1-1.3H878z"/>
		<path class="st3" d="M884.8,366.8v-1h12.6v1H884.8z M895.8,363.1h-9.2v-4.9c0-1.2,0-2.2-0.1-3.2h9.2v1h-8v2.6h8v1h-8v2.6h8.1
			V363.1z"/>
		<path class="st3" d="M904,360.6v-2.5c0-1.2,0-2.3-0.1-3.2h6.2v5.7H904z M905.3,368.7l-0.7-0.9c1.1-0.1,2-0.5,2.9-1
			s1.4-1.1,1.5-1.7h-3.9v-1h9.2v1h-4c0.2,0.6,0.7,1.1,1.6,1.7c0.9,0.5,1.8,0.9,2.9,1l-0.7,0.9c-0.9-0.2-1.8-0.5-2.6-1
			c-0.8-0.5-1.4-1-1.8-1.6C908.9,367.4,907.4,368.3,905.3,368.7z M909,355.8h-4v3.8h4V355.8z M907.4,363v-1h4.6v1H907.4z
			 M913.1,362.3v-4.9c0-1.1,0-2.2-0.1-3.2h1.2v8.1H913.1z"/>
		<path class="st3" d="M921.1,361.8v-1h5.1v-0.9c0-0.6,0-1.4-0.1-2.2h1.1v3.1h6.4v1H921.1z M922.5,366.1c0-0.9,0.4-1.6,1.3-2.1
			c0.8-0.5,2-0.8,3.6-0.8c1.5,0,2.7,0.3,3.6,0.8c0.8,0.5,1.3,1.2,1.3,2.1s-0.4,1.6-1.3,2.1c-0.8,0.5-2,0.8-3.6,0.8
			c-1.5,0-2.7-0.3-3.6-0.8C923,367.7,922.5,367,922.5,366.1z M931.6,359.6h-1c0.3-1.1,0.4-2.4,0.5-3.9h-8.4v-1h9.5
			C932.1,356.4,931.9,358,931.6,359.6z M924.6,364.7c-0.7,0.3-1,0.8-1,1.4c0,0.6,0.3,1.1,1,1.4c0.7,0.4,1.6,0.5,2.7,0.5
			c1.1,0,2-0.2,2.7-0.5c0.7-0.3,1-0.8,1-1.4c0-0.6-0.3-1.1-1-1.4c-0.7-0.4-1.6-0.5-2.7-0.5C926.2,364.2,925.3,364.4,924.6,364.7z"/>
		<path class="st3" d="M934.7,366.8v-1h5.7v-3.8h-3.9v-3.8c0-1.2,0-2.2-0.1-3.2h9.1v7.1h-3.9v3.8h5.7v1H934.7z M944.4,356h-6.8v5.1
			h6.8V356z"/>
		<path class="st3" d="M949.2,355.9v-1h6.7v1h-2.8v1c0,1.1,0.4,2.1,1.1,2.9s1.6,1.5,2.6,1.9l-0.7,0.8c-0.6-0.3-1.3-0.7-1.9-1.3
			c-0.7-0.6-1.2-1.3-1.5-2c-0.3,0.8-0.7,1.5-1.4,2.2s-1.4,1.2-2.1,1.6l-0.8-0.8c1.1-0.5,2-1.2,2.7-2.1s1.1-2,1.1-3.2v-1H949.2z
			 M951.1,368.4v-1.6c0-1.1,0-2.1-0.1-3h1.2v3.6h8v1H951.1z M955.8,358.7v-1h2.9v-0.3c0-1.1,0-2.2-0.1-3.2h1.2v10.8h-1.1v-6.3H955.8
			z"/>
	</g>
	<g>
		<path class="st3" d="M1133.2,278.4v-1h6.8v1h-2.9c0,0.8,0.4,1.6,1.1,2.4c0.7,0.8,1.5,1.4,2.5,1.7l-0.6,0.8c-0.7-0.2-1.3-0.6-2-1.2
			c-0.6-0.6-1.2-1.2-1.5-1.9c-0.7,1.6-1.8,2.9-3.5,3.7l-0.8-0.7c1-0.4,1.9-1.1,2.6-2c0.7-0.9,1-1.8,1.1-2.8H1133.2z M1134.4,287.3
			c0-0.8,0.4-1.5,1.2-2c0.8-0.5,1.9-0.8,3.4-0.8c1.4,0,2.6,0.3,3.4,0.8c0.8,0.5,1.2,1.2,1.2,2s-0.4,1.5-1.2,2
			c-0.8,0.5-1.9,0.7-3.4,0.7s-2.6-0.2-3.4-0.7C1134.8,288.8,1134.4,288.1,1134.4,287.3z M1138.5,275.1v1h-3.9v-1H1138.5z
			 M1136.4,286c-0.6,0.3-0.9,0.7-0.9,1.3c0,0.5,0.3,1,0.9,1.3c0.6,0.3,1.5,0.5,2.5,0.5c1.1,0,1.9-0.2,2.5-0.5s1-0.7,1-1.3
			c0-0.6-0.3-1-1-1.3s-1.5-0.5-2.5-0.5C1137.9,285.5,1137.1,285.6,1136.4,286z M1142.1,284.2v-5.8c0-1.1,0-2.2-0.1-3.2h1.2v3.8h1.9
			v1h-1.9v4.3H1142.1z"/>
		<path class="st3" d="M1146.3,278.9c0-1,0.3-1.8,1-2.5c0.7-0.7,1.5-1,2.5-1c0.9,0,1.7,0.3,2.3,0.9c0.6,0.6,1,1.3,1.1,2.2h2.8v0
			c0-1.1,0-2.2-0.1-3.2h1.2v7.7h-1.1v-3.3h-2.8c-0.1,0.8-0.5,1.5-1.1,2.1c-0.6,0.5-1.4,0.8-2.3,0.8c-1,0-1.8-0.3-2.5-1
			C1146.7,280.7,1146.3,279.9,1146.3,278.9z M1148.1,277.1c-0.4,0.5-0.6,1.1-0.6,1.8c0,0.7,0.2,1.3,0.6,1.8c0.4,0.5,1,0.7,1.7,0.7
			c0.7,0,1.3-0.2,1.7-0.7c0.4-0.5,0.6-1.1,0.6-1.8c0-0.7-0.2-1.3-0.6-1.8c-0.4-0.5-1-0.7-1.7-0.7
			C1149.1,276.4,1148.5,276.6,1148.1,277.1z M1148.3,289.5v-2.7c0-1.2,0-2.3-0.1-3.2h1.2v1.9h6.6v-1.9h1.1v6H1148.3z M1149.4,288.6
			h6.6v-2.1h-6.6V288.6z"/>
		<path class="st3" d="M1164,287.8v-1h3.1v-3.3c0-0.6,0-1.4-0.1-2.2h1.2v5.4h2.2v-3.3c0-0.6,0-1.4-0.1-2.2h1.2v5.4h5v1H1164z
			 M1165.5,277v-1h9.5c0,1.3-0.1,2.8-0.3,4.5c-0.2,1.6-0.4,3-0.6,4.1h-1c0.2-1.1,0.4-2.4,0.6-3.8s0.3-2.7,0.3-3.7H1165.5z"/>
		<path class="st3" d="M1177.6,283.1v-1h12.6v1h-3.5v2.3h1.8v4.5h-1.1v-3.5h-8.2v-1h2v-2.3H1177.6z M1183.9,280.9
			c-1.5,0-2.6-0.3-3.5-0.8c-0.9-0.5-1.3-1.2-1.3-2.1c0-0.9,0.4-1.6,1.3-2.1c0.9-0.5,2-0.8,3.5-0.8c1.5,0,2.6,0.3,3.5,0.8
			c0.9,0.5,1.3,1.2,1.3,2.1c0,0.9-0.4,1.6-1.3,2.1S1185.3,280.9,1183.9,280.9z M1183.9,279.9c1.1,0,2-0.2,2.7-0.5
			c0.7-0.4,1-0.8,1-1.4c0-0.6-0.3-1.1-1-1.4c-0.7-0.4-1.6-0.5-2.7-0.5c-1.1,0-2,0.2-2.7,0.5c-0.7,0.4-1,0.8-1,1.4
			c0,0.6,0.3,1.1,1,1.4C1181.9,279.8,1182.8,279.9,1183.9,279.9z M1182.2,283.1v2.3h3.3v-2.3H1182.2z"/>
		<path class="st3" d="M1121.1,299c0-1,0.3-1.9,0.9-2.6c0.6-0.7,1.3-1.1,2.2-1.1c0.8,0,1.6,0.4,2.1,1.1c0.6,0.7,0.9,1.6,0.9,2.6
			c0,1-0.3,1.9-0.9,2.6c-0.6,0.7-1.3,1.1-2.1,1.1c-0.9,0-1.6-0.4-2.2-1.1S1121.1,300,1121.1,299z M1122.6,297.1
			c-0.4,0.5-0.6,1.1-0.6,1.9c0,0.8,0.2,1.4,0.6,1.9c0.4,0.5,0.9,0.8,1.5,0.8c0.6,0,1.1-0.3,1.4-0.8c0.4-0.5,0.5-1.1,0.5-1.9
			c0-0.8-0.2-1.4-0.5-1.9c-0.4-0.5-0.8-0.8-1.4-0.8C1123.5,296.3,1123,296.5,1122.6,297.1z M1132.3,309.6h-1.1v-4.3h-8.1v-1h9.1
			V309.6z M1128.4,303.6v-5.3c0-1.2,0-2.2-0.1-3.1h1.2v3.1h1.8V298c0-1.2,0-2.2-0.1-3.1h1.2v8.7h-1.1v-4.3h-1.8v4.3H1128.4z"/>
		<path class="st3" d="M1138.4,295.3v1.1c0,2.1,1,3.7,2.9,4.6l-0.7,0.8c-0.5-0.2-1-0.6-1.5-1.1c-0.5-0.5-0.9-1.1-1.2-1.8
			c-0.4,1.3-1.3,2.5-2.8,3.3l-0.8-0.7c2-1.2,3-2.9,3-5c0-0.4,0-0.8-0.1-1.2H1138.4z M1138.1,306.8v1.6h8.1v1h-9.3v-1.1
			c0-0.9,0-1.7-0.1-2.4h7.9v-1.5h-7.8v-1h9v3.5H1138.1z M1140.1,298.4v-1h2.3c0-0.8-0.1-1.6-0.1-2.2h1.2v7.4h-1.1v-4.1H1140.1z
			 M1144.9,302.6V298c0-1.2,0-2.2-0.1-3.1h1.2v7.7H1144.9z"/>
		<path class="st3" d="M1154.9,301.2h-4.7v3.6h1.5c2,0,3.7-0.2,5.1-0.5v1c-0.7,0.2-1.6,0.3-2.6,0.4c-1,0.1-1.9,0.2-2.6,0.2h-2.5
			v-2.4c0-1.1,0-2.2-0.1-3.2h4.8v-3.6h-4.7v-1h5.8V301.2z M1155.7,300.8v-1h2.5V298c0-1.2,0-2.2-0.1-3.1h1.2v14.6h-1.1v-8.7H1155.7z
			"/>
		<path class="st3" d="M1167,301.3h-3.3v3.5h1.2c1.3,0,2.5-0.1,3.6-0.3v1c-1.2,0.2-2.5,0.3-3.8,0.3h-2.1v-2.3c0-1.1,0-2.2-0.1-3.2
			h3.4v-3.5h-3.2v-1h4.3V301.3z M1167.6,300.7v-1h1.9v-1.4c0-1.2,0-2.2-0.1-3.1h1.2v13.7h-1.1v-8.1H1167.6z M1172.1,309.5V298
			c0-1.2,0-2.2-0.1-3.1h1.2v14.6H1172.1z"/>
		<path class="st3" d="M1175.9,300.8c0-1.9,0.3-3.3,1-4.2s1.5-1.3,2.5-1.3c1,0,1.8,0.4,2.4,1.3c0.6,0.9,1,2.3,1,4.2
			c0,1.9-0.3,3.3-1,4.1c-0.6,0.9-1.4,1.3-2.4,1.3c-1,0-1.8-0.4-2.5-1.3S1175.9,302.7,1175.9,300.8z M1177,300.8
			c0,1.4,0.2,2.5,0.6,3.3c0.4,0.8,1,1.2,1.7,1.2c0.7,0,1.3-0.4,1.7-1.2c0.4-0.8,0.6-1.9,0.6-3.3c0-1.4-0.2-2.5-0.6-3.3
			c-0.4-0.8-1-1.2-1.7-1.2c-0.7,0-1.3,0.4-1.7,1.2S1177,299.4,1177,300.8z M1185.5,309.5V298c0-1.2,0-2.2-0.1-3.1h1.2v14.6H1185.5z"
			/>
		<path class="st3" d="M1189.9,305.8v-6.9c0-1.1,0-2.2-0.1-3.2h6.2v1h-5v3.5h4.5v1h-4.5v3.7h1.6c1.8,0,3.5-0.2,5-0.5v1
			c-1.5,0.4-3.2,0.5-5.1,0.5H1189.9z M1196.6,300.9v-1h2.5V298c0-1.2,0-2.2-0.1-3.1h1.2v14.6h-1.1v-8.6H1196.6z"/>
		<path class="st3" d="M1120,325.4v-6.6c0-1.2,0-2.2-0.1-3.2h6.2v9.9H1120z M1125,316.6h-3.9v7.9h3.9V316.6z M1128.7,329.3v-11.5
			c0-1.2,0-2.2-0.1-3.1h1.2v5.2h2.1v1.1h-2.1v8.3H1128.7z"/>
		<path class="st3" d="M1133.6,315.7h4.9c0,4.4-1.6,7.8-4.9,10.3l-0.9-0.7c1.8-1.2,3.2-2.9,3.9-4.9c-0.6,0.1-1.3,0.2-2.2,0.2h-1.2
			v-1h1.2c1,0,1.8-0.1,2.5-0.2c0.2-0.9,0.4-1.8,0.4-2.8h-3.8V315.7z M1138.2,320.9v-1h2.2V318c0-1.2,0-2.2-0.1-3.1h1.2v13.7h-1.1
			v-7.6H1138.2z M1143.1,329.3v-11.5c0-1.2,0-2.2-0.1-3.1h1.2v14.6H1143.1z"/>
		<path class="st3" d="M1147.3,322.7v-4.2c0-1.2,0-2.2-0.1-3.2h6.5v1h-5.3v2.2h5.1v1h-5.1v2.3h2.1c2,0,3.7-0.2,5.2-0.5v1
			c-0.7,0.2-1.6,0.3-2.6,0.4s-1.9,0.2-2.7,0.2H1147.3z M1148.4,326.8c0-0.9,0.4-1.5,1.2-2c0.8-0.5,2-0.7,3.4-0.7
			c1.5,0,2.6,0.2,3.4,0.7c0.8,0.5,1.2,1.2,1.2,2c0,0.9-0.4,1.5-1.2,2c-0.8,0.5-2,0.7-3.4,0.7c-1.5,0-2.6-0.2-3.4-0.7
			C1148.8,328.3,1148.4,327.7,1148.4,326.8z M1150.5,325.5c-0.6,0.3-1,0.7-1,1.3s0.3,1,1,1.3s1.5,0.5,2.6,0.5c1.1,0,1.9-0.1,2.6-0.4
			c0.7-0.3,1-0.7,1-1.3c0-0.6-0.3-1-1-1.3s-1.5-0.5-2.6-0.5C1152,325.1,1151.1,325.2,1150.5,325.5z M1156.5,323.7v-5.8
			c0-1.1,0-2.2-0.1-3.2h1.2v9.1H1156.5z"/>
		<path class="st3" d="M1166,329.7h-1.1l5.2-15.6h1.1L1166,329.7z"/>
		<path class="st3" d="M1178,316.5v-1h7.2v1h-3.1v1.6c0,1.5,0.3,2.8,1,4.1s1.6,2.2,2.8,2.9l-0.8,0.8c-0.8-0.5-1.5-1.2-2.2-2
			s-1.1-1.7-1.4-2.6c-0.2,0.9-0.7,1.9-1.4,2.8c-0.7,1-1.4,1.7-2.2,2.2l-0.9-0.8c1.3-0.8,2.2-1.9,2.9-3.2c0.7-1.3,1-2.8,1-4.4v-1.3
			H1178z M1187.6,329.3v-11.5c0-1.2,0-2.2-0.1-3.1h1.2v14.6H1187.6z"/>
		<path class="st3" d="M1191.1,322.1v-1h2.8c2.9,0,5.1-0.1,6.6-0.4v1c-1.3,0.2-3,0.3-5.2,0.4v2.4h-1.1v-2.4H1191.1z M1192.1,317.4
			c0-0.8,0.3-1.5,0.9-2c0.6-0.5,1.4-0.8,2.4-0.8c1,0,1.8,0.3,2.4,0.8c0.6,0.5,0.9,1.2,0.9,2c0,0.8-0.3,1.4-0.9,1.9s-1.4,0.7-2.4,0.7
			c-1,0-1.8-0.2-2.4-0.7C1192.4,318.8,1192.1,318.2,1192.1,317.4z M1193.3,328.9v-1c0-0.8,0-1.7-0.1-2.7h1.2v2.6h8v1H1193.3z
			 M1193.8,316.1c-0.4,0.3-0.6,0.7-0.6,1.3c0,0.5,0.2,0.9,0.6,1.3c0.4,0.3,1,0.5,1.7,0.5c0.7,0,1.3-0.2,1.6-0.5
			c0.4-0.3,0.6-0.7,0.6-1.3c0-0.5-0.2-1-0.6-1.3c-0.4-0.3-0.9-0.5-1.6-0.5C1194.8,315.6,1194.2,315.8,1193.8,316.1z M1197.9,324.3
			v-0.9h3.2v-5.5c0-1.1,0-2.2-0.1-3.2h1.2v11h-1.1v-1.4H1197.9z"/>
	</g>
</g>
</svg>
