<svg width="26" height="26" viewBox="0 0 26 26" fill="none" xmlns="http://www.w3.org/2000/svg">
<path d="M10.5406 8.53887e-09C12.5054 -7.90628e-05 14.4312 0.549003 16.1006 1.58528C17.7699 2.62156 19.1164 4.10379 19.9881 5.86469C20.8598 7.62559 21.2219 9.59507 21.0337 11.5509C20.8455 13.5067 20.1144 15.371 18.9229 16.9333L25.5892 23.6024C25.8412 23.8553 25.9876 24.1947 25.9985 24.5516C26.0094 24.9085 25.884 25.2562 25.6479 25.5241C25.4117 25.7919 25.0824 25.9598 24.7269 25.9937C24.3715 26.0275 24.0164 25.9248 23.7339 25.7064L23.6018 25.5897L16.9328 18.9235C15.6018 19.9384 14.0482 20.6217 12.4007 20.917C10.7532 21.2123 9.05898 21.111 7.45837 20.6215C5.85776 20.132 4.39673 19.2683 3.19616 18.1021C1.9956 16.9358 1.09002 15.5004 0.554371 13.9146C0.0187166 12.3288 -0.131616 10.6383 0.115812 8.98291C0.36324 7.32751 1.00132 5.75483 1.97724 4.395C2.95316 3.03517 4.23888 1.92729 5.728 1.16302C7.21711 0.398758 8.86682 8.8342e-05 10.5406 8.53887e-09ZM10.5406 2.81098C8.49044 2.81098 6.52423 3.62541 5.07454 5.0751C3.62485 6.52479 2.81042 8.49099 2.81042 10.5412C2.81042 12.5913 3.62485 14.5575 5.07454 16.0072C6.52423 17.4569 8.49044 18.2713 10.5406 18.2713C12.5908 18.2713 14.557 17.4569 16.0067 16.0072C17.4564 14.5575 18.2708 12.5913 18.2708 10.5412C18.2708 8.49099 17.4564 6.52479 16.0067 5.0751C14.557 3.62541 12.5908 2.81098 10.5406 2.81098Z" fill="#383838"/>
</svg>
